<svg id="Texts_Objects" xmlns="http://www.w3.org/2000/svg" viewBox="0 0 4000 3000"><defs><style>
      .cls-1 {
        fill: none;
      }
      .cls-1, .cls-2, .cls-3 {
        stroke-width: 0px;
      }
      .cls-2 {
        fill: #fbb03a;
      }
      .cls-3 {
        fill: #fff;
      }
    </style></defs><path class="cls-1" d="M423.78,1926.25s163.18-25.1,12.55-209.2c0,0-12.55,125.52-12.55,209.2Z"></path><g><path class="cls-3" d="M3576.22,2716H500.92v-803.34h3075.3v803.34ZM538.57,2678.34h2999.99v-728.03H538.57v728.03Z"></path><rect class="cls-2" x="597.35" y="2010.98" width="1945.4" height="606.69"></rect></g><g><g><path class="cls-3" d="M568.72,722.01c-2.5-81.58-7.36-163.54-14.57-245.88l-4.16-3.81-.83-35.07c0-28.97,1.66-57.69,5-86.15,5,0,13.6-.13,25.82-.38,12.21-.25,24.98-.63,38.31-1.14,13.32-.51,25.4-1.14,36.23-1.91,10.83-.76,17.63-1.91,20.4-3.43,8.88-1.02,17.63-1.78,26.23-2.29,8.61-.51,17.63-.76,27.07-.76,7.22,0,15.82.13,25.81.38,9.99.26,20.13,1.02,30.4,2.29,10.27,1.27,19.98,3.3,29.15,6.1,9.16,2.8,16.24,6.74,21.24,11.82,11.1,3.05,19.85,9.66,26.23,19.82,6.38,10.17,11.8,20.08,16.24,29.74l4.16,3.81v4.57c0,2.54.28,5.08.83,7.63.56,5.08,1.39,9.4,2.5,12.96l4.16,3.05c-.56,9.66-.83,19.31-.83,28.97,0,11.69.55,23.64,1.66,35.83,1.11,22.37,1.66,44.22,1.66,65.57,0,23.89,1.53,47.27,4.58,70.14,3.05,22.87,4.58,46,4.58,69.38s2.08,47.65,6.25,71.28c4.16,23.64,6.24,47.4,6.24,71.29l-.83,12.2-4.16,3.81c0,8.64-1.25,15.5-3.75,20.59-2.5,5.08-5.14,11.18-7.91,18.3h-3.33l-4.16,10.67-27.48,25.16h-7.5v3.05h-7.49v3.81h-8.33c-3.33,3.56-9.16,6.1-17.49,7.63-8.33,1.52-16.93,2.54-25.82,3.05-6.11.51-12.49.76-19.15.76-2.77,0-5.55-.25-8.33-.76h-21.65c-19.43,0-38.59,1.4-57.46,4.19-18.88,2.8-38.03,4.19-57.46,4.19-17.21,0-33.59-1.53-49.13-4.57-6.11-82.34-10.41-164.3-12.91-245.88ZM779,485.66c-.56-8.39-2.36-16.01-5.41-22.87-3.06-6.86-7.36-12.71-12.91-17.54-5.55-4.83-13.33-7.24-23.32-7.24s-21.93.25-35.81.76c-13.88.51-25.54,2.03-34.98,4.57.56,59.98,3.33,119.19,8.33,177.64s7.49,117.67,7.49,177.64c0,12.2.42,24.52,1.25,36.98.83,12.45,3.19,24.53,7.08,36.22h49.97c8.33,0,17.07-.63,26.23-1.91,9.16-1.27,17.35-4.19,24.57-8.77,5-9.66,7.5-20.59,7.5-32.78,0-26.43-.97-52.99-2.91-79.67s-4.16-53.37-6.66-80.05c-2.5-26.68-4.72-53.37-6.66-80.05-1.94-26.68-2.91-53.5-2.91-80.44,0-6.61-.28-14.11-.83-22.49ZM749.02,425.81c-1.11-1.52-2.78-2.29-5-2.29-3.89,0-7.5,2.03-10.83,6.1l15.82-3.81ZM790.66,866.49c0,.51.56.76,1.67.76,1.66,0,4.02-1.4,7.08-4.19,3.06-2.8,4.58-5.21,4.58-7.24,0-1.02-.28-1.78-.83-2.29l-4.16,7.63-7.5,3.05-.83,2.29Z"></path><path class="cls-3" d="M1291.15,681.98c8.33,30.5,16.38,61.63,24.15,93.4,7.77,31.77,14.85,62.52,21.23,92.25,6.39,29.74,10.13,56.04,11.24,78.91-12.21,2.54-24.43,4.45-36.64,5.72-12.21,1.27-24.71,1.91-37.48,1.91-7.77,0-15.55-.26-23.32-.76-7.77-.51-15.54-1.78-23.32-3.81-4.44-8.64-7.49-18.17-9.16-28.59-1.66-10.42-3.19-20.84-4.58-31.26s-3.19-20.59-5.41-30.5c-2.22-9.91-6.11-18.93-11.66-27.07h-24.15c-16.1,0-31.92.38-47.47,1.14-15.55.76-30.81,2.67-45.8,5.72-2.22,9.66-3.61,19.95-4.16,30.88-.55,10.93-1.25,21.98-2.08,33.17-.83,11.18-2.08,22.11-3.75,32.78-1.66,10.67-4.72,20.08-9.16,28.21-2.78,1.02-8.47,2.03-17.07,3.05-8.61,1.02-17.77,1.78-27.48,2.29-9.72.51-19.02.89-27.9,1.14-8.88.25-15.27.38-19.15.38-6.66,0-12.49-1.02-17.49-3.05l-.83-22.11c0-2.54.69-10.17,2.08-22.87,1.39-12.71,3.19-27.83,5.41-45.36,2.22-17.54,4.72-36.22,7.5-56.04,2.78-19.82,5.27-38.25,7.49-55.28,2.22-17.03,4.3-31.39,6.25-43.08,1.94-11.69,3.19-18.04,3.75-19.06,0-.51-.28-2.54-.83-6.1-.56-3.56-.83-7.37-.83-11.44-.56-.51-.83-1.27-.83-2.29,0-2.54.55-4.83,1.66-6.86.56-2.03,1.39-3.05,2.5-3.05.56,0,1.11.26,1.67.76,7.77-61.5,14.85-122.62,21.23-183.36,6.38-60.74,13.74-121.86,22.07-183.36,5-1.52,12.77-2.67,23.32-3.43,10.55-.76,21.24-1.53,32.06-2.29,10.83-.76,20.54-1.4,29.15-1.91,8.61-.51,14.02-1.53,16.24-3.05l14.99-.76c7.77,0,15.82.26,24.15.76h23.32c2.22,5.08,5.55,15.5,9.99,31.26,4.44,15.76,8.88,32.53,13.33,50.32,4.44,17.79,8.33,34.31,11.66,49.56,2.78,13.22,4.16,22.11,4.16,26.68v2.29c1.66,1.52,4.44,9.15,8.33,22.87,3.89,13.72,7.77,28.97,11.66,45.75,3.89,16.77,7.36,32.53,10.41,47.27,3.05,14.74,4.58,23.63,4.58,26.68h4.16c5.55,23.89,12.49,51.08,20.82,81.58ZM1018.83,505.48c1.66,1.78,3.61,2.67,5.83,2.67,2.78,0,4.16-1.27,4.16-3.81h-2.5c-4.44,0-7.49-2.29-9.16-6.86l-.83,2.29c0,2.03.83,3.94,2.5,5.72ZM1030.49,578.29c-1.11-2.03-2.78-3.05-5-3.05h-.83c0,2.03.97,4.96,2.91,8.77,1.94,3.81,4.3,5.72,7.08,5.72v-.76c0-.51-.83-1.53-2.5-3.05,0-2.03-.55-4.57-1.66-7.63ZM1042.98,862.68l-.83-.76-2.5-3.05c-1.66-1.02-3.47-2.16-5.41-3.43-1.94-1.27-4.02-1.91-6.24-1.91h-3.33c1.11,2.54,3.33,4.32,6.66,5.34,3.33,1.02,6.39,1.78,9.16,2.29,1.11,1.02,1.94,1.52,2.5,1.52ZM1047.98,810.83c0-5.59-2.5-9.15-7.49-10.68v2.29c0,3.56,2.5,6.35,7.49,8.39ZM1044.65,749.84c1.11,2.54,2.78,3.81,5,3.81,1.66,0,2.5-1.02,2.5-3.05-3.33-.51-5-2.03-5-4.57,0-.51.28-.76.83-.76v-.76c0-2.54-1.39-4.07-4.16-4.57l-.83,3.81c0,1.52.55,3.56,1.66,6.1ZM1047.98,691.89c1.67,0,3.75-.76,6.25-2.29,2.5-1.52,4.3-2.8,5.41-3.81l-11.66,3.81-.83,1.53.83.76ZM1053.81,576.77c-2.78,1.02-4.72,1.78-5.83,2.29l16.66.76c4.44,0,6.66-1.53,6.66-4.57h-11.66c-1.11,0-3.06.51-5.83,1.52ZM1049.64,527.97c0,2.03,1.94,3.56,5.83,4.57l4.16-10.67h-7.5c-1.66,1.52-2.5,3.56-2.5,6.1ZM1057.14,479.94l.83,1.52,1.67,1.52-4.16,10.68h.83c1.11,0,2.64-.38,4.58-1.14,1.94-.76,2.91-1.91,2.91-3.43s-.41-3.18-1.25-4.96-1.81-3.43-2.91-4.96h-1.67c-.55,0-.83.26-.83.76ZM1066.72,507.01c-.28-1.78-1.8-2.67-4.58-2.67h-2.5v6.86l7.49,3.81v-3.05c0-1.52-.14-3.18-.42-4.95ZM1059.64,551.61c0,1.02,1.39,1.78,4.16,2.28,2.78.51,4.72.76,5.83.76,3.89,0,5.83-1.27,5.83-3.81h-14.16c-.56,0-1.11.25-1.66.76ZM1065.47,635.48c-1.11,0-2.36.25-3.75.76-1.39.51-2.08,1.27-2.08,2.29v1.53l4.16,3.05h7.5l.83-3.05c0-3.05-2.22-4.57-6.66-4.57ZM1059.64,808.54c0,1.02,1.39,1.78,4.16,2.29,2.78.51,4.72.76,5.83.76,3.89,0,5.83-1.52,5.83-4.57h-13.33c-1.66,0-2.5.51-2.5,1.53ZM1065.47,614.13c2.22,0,3.61,1.02,4.16,3.05,1.11,3.05,2.5,4.57,4.16,4.57,1.11,0,1.67-1.02,1.67-3.05-1.11-1.52-2.22-3.3-3.33-5.34-1.11-2.03-2.78-3.05-5-3.05-1.11,0-1.94.51-2.5,1.52-.56,1.02-.83,2.03-.83,3.05.56-.51,1.11-.76,1.67-.76ZM1069.63,774.23c0,1.02-.55,2.03-1.66,3.05-2.78,2.54-4.16,5.34-4.16,8.39,0,1.52,1.11,2.8,3.33,3.81,2.78-5.08,4.16-10.17,4.16-15.25,0-3.56-1.39-5.59-4.16-6.1,1.66,2.03,2.5,4.07,2.5,6.1ZM1073.79,509.68c0,2.54,1.25,4.19,3.75,4.96,2.5.76,4.86,1.14,7.08,1.14,1.67,0,3.61-.26,5.83-.76,2.22-.51,3.61-1.78,4.16-3.81-2.22.51-4.16.76-5.83.76-2.78,0-4.44-.76-5-2.29-1.11-2.54-3.89-4.32-8.33-5.34-1.11,2.03-1.67,3.81-1.67,5.34ZM1078.79,572.96c3.33,0,5-2.03,5-6.1,0-1.02-.28-2.16-.83-3.43-.56-1.27-1.39-1.91-2.5-1.91h-1.67l-3.33,3.05v7.62l3.33.76ZM1077.13,685.79c1.11,0,1.94.51,2.5,1.52v4.57c-.55,2.03-.83,3.81-.83,5.34,0,2.03.83,3.05,2.5,3.05h1.66l4.16-6.1c0-2.54-.83-4.96-2.5-7.24-1.66-2.28-3.89-3.43-6.66-3.43-1.66,0-2.5.76-2.5,2.29h1.66ZM1090.45,661.4l-3.33-7.63c.56.51.83,1.02.83,1.53,0,1.02-.83,1.52-2.5,1.52-2.22.51-3.89.76-4.99.76h-1.67l4.16,10.67v-6.86h7.49ZM1091.28,785.67c0-1.02-.14-3.05-.42-6.1-.28-3.05-1.53-4.57-3.75-4.57,1.11,2.03,1.66,3.81,1.66,5.34,0,2.03-1.11,3.81-3.33,5.34-3.33,3.05-4.99,5.85-4.99,8.39,0,1.02.83,1.65,2.5,1.91,1.66.26,3.05.38,4.16.38,2.78-3.56,4.16-7.11,4.16-10.67ZM1085.45,476.13c1.11,0,2.22.25,3.33.76.56,1.52.97,3.18,1.25,4.96.28,1.78.69,3.56,1.25,5.34.55,1.78,1.66,2.67,3.33,2.67-.56-1.02-.83-1.78-.83-2.29,0-1.52.83-2.8,2.5-3.81,1.66-1.52,2.5-3.3,2.5-5.34,0-1.02-.56-1.65-1.66-1.91-1.11-.25-1.94-.38-2.5-.38-1.11,2.03-2.22,3.05-3.33,3.05-1.11-1.02-2.08-2.8-2.91-5.34-.83-2.54-1.53-5.08-2.08-7.63-.56-2.54-1.11-3.81-1.67-3.81s-.83.51-.83,1.52c0,.51-.28.76-.83.76v11.44h2.5ZM1092.12,387.69c1.66,2.03,3.89,3.05,6.66,3.05,1.66,0,3.05-1.27,4.16-3.81-2.78-.51-4.86-1.65-6.25-3.43-1.39-1.78-3.47-3.18-6.25-4.19l-.83,2.29c0,2.03.83,4.07,2.5,6.1ZM1124.18,733.45c11.38-.76,22.9-1.14,34.56-1.14h14.16c-7.77-36.59-16.66-72.81-26.65-108.64-9.99-35.83-18.04-72.05-24.15-108.64l-7.49-3.81c-2.22,38.12-5.55,75.73-9.99,112.84-4.44,37.1-9.16,74.46-14.16,112.07,11.11-1.02,22.35-1.91,33.73-2.67ZM1097.53,548.18c-1.39-1.78-2.36-3.43-2.91-4.96l-.83,3.81c0,1.02.42,2.54,1.25,4.57.83,2.03,2.36,3.05,4.58,3.05s3.33-1.27,3.33-3.81c-2.22,0-4.03-.89-5.41-2.67ZM1098.78,450.21h2.5c2.22.51,4.44.76,6.66.76,4.44,0,6.66-1.27,6.66-3.81h-11.66l-8.33,3.81c1.67-.51,3.05-.76,4.16-.76ZM1094.61,463.93c0,2.03.56,3.43,1.67,4.19,1.11.76,2.5,1.27,4.16,1.52,1.67.26,3.06.76,4.16,1.53,1.11.76,1.66,1.91,1.66,3.43,0,2.54-.69,4.96-2.08,7.24-1.39,2.29-2.08,4.7-2.08,7.24,0,3.05,1.39,4.57,4.16,4.57-.55-2.03-.83-3.56-.83-4.57v-2.29c.56-1.02,1.53-1.91,2.91-2.67l4.16-2.29c1.39-.76,2.08-2.16,2.08-4.19v-1.52l-8.33-7.63v-6.86h-11.66v2.29ZM1102.11,777.29c0-2.03,1.39-3.3,4.16-3.81,2.78-1.02,4.16-2.29,4.16-3.81,0-.51-.56-.89-1.66-1.14-1.11-.26-1.94-.38-2.5-.38-1.66,1.02-3.47,2.03-5.41,3.05-1.94,1.02-2.91,2.29-2.91,3.81,0,1.02.56,1.78,1.66,2.29l3.33,1.52c-.56-.51-.83-1.02-.83-1.52ZM1117.52,410.18c-1.94-1.78-4.3-2.67-7.08-2.67-1.66,0-3.05,1.27-4.16,3.81,1.11,1.52,2.64,3.18,4.58,4.95,1.94,1.78,4.3,2.67,7.08,2.67,1.11,0,2.5-1.27,4.16-3.81-1.11-1.52-2.64-3.18-4.58-4.96ZM1116.27,752.89c-1.11-1.53-2.5-2.29-4.16-2.29h-1.66v1.52c0,1.52.14,3.3.42,5.34.28,2.03,1.53,3.3,3.75,3.81l3.33-3.81c0-1.53-.56-3.05-1.67-4.57ZM1123.76,456.69c-1.11-2.8-3.06-4.7-5.83-5.72,1.66,1.52,2.5,3.05,2.5,4.57,0,1.02-.56,1.78-1.66,2.29-2.78,2.03-4.16,3.81-4.16,5.34,0,1.02,1.11,1.53,3.33,1.53l4.16-3.05,4.16,3.05c-.56-2.54-1.39-5.21-2.5-8.01ZM1133.76,543.6c2.77,11.94,6.66,23.76,11.66,35.45h3.33c1.67,0,2.5-.51,2.5-1.52s-.69-1.65-2.08-1.91c-1.39-.26-2.64-.38-3.75-.38,0-4.07-.83-8.26-2.5-12.58-1.66-4.32-2.5-8.51-2.5-12.58l.83-6.86c1.66-1.02,3.89-2.41,6.66-4.19s4.16-3.43,4.16-4.96l-1.66-.76c-.56,0-.83-.26-.83-.76-1.67,5.08-5.55,7.63-11.66,7.63-1.11-1.53-2.08-3.18-2.91-4.96s-1.25-3.43-1.25-4.96c0-4.57,2.08-7.37,6.24-8.39,4.16-1.02,7.36-3.3,9.58-6.86h-2.5c-2.78,0-5,.76-6.66,2.29-1.67,1.52-3.89,2.29-6.66,2.29l-4.16-.76-3.33-10.67c2.22,11.69,4.72,23.51,7.5,35.45ZM1139.59,449.45c2.77-2.54,4.16-4.57,4.16-6.1,0-2.03-1.94-3.05-5.83-3.05v3.05c0,3.05.56,5.08,1.67,6.1ZM1138.75,469.27c0,1.52.83,2.41,2.5,2.67,1.66.26,3.05.38,4.16.38v-.76c0-3.05-1.39-5.34-4.16-6.86-1.66,1.52-2.5,3.05-2.5,4.57ZM1152.91,803.97c0-3.56,1.39-5.85,4.16-6.86,2.78,0,6.11.51,9.99,1.52.56.51,1.39.76,2.5.76,2.22,0,3.33-2.03,3.33-6.1-5,0-10.27-1.27-15.82-3.81,0,2.03-.56,3.43-1.66,4.19-1.11.76-2.36,1.27-3.75,1.53-1.39.25-2.77.76-4.16,1.52-1.39.76-2.08,1.91-2.08,3.43l7.49,6.86v-3.05ZM1157.07,459.36c0-1.52-.28-2.29-.83-2.29-1.11,0-1.94.63-2.5,1.91-.56,1.27-.83,2.16-.83,2.67l4.16,6.86v-9.15ZM1159.57,514.25c2.22-2.03,3.33-4.06,3.33-6.1,0-2.54-1.94-3.81-5.83-3.81v3.05c0,3.05.83,5.34,2.5,6.86ZM1168.73,529.5c.56-.51.83-1.27.83-2.29,0-2.03-1.66-3.81-5-5.34v2.29c0,3.05-1.11,5.85-3.33,8.39-2.78,3.05-4.16,6.61-4.16,10.67v3.81h7.49c1.67,0,3.33-.13,5-.38,1.67-.26,2.78-1.4,3.33-3.43l-6.66-3.81c0-3.05.83-6.35,2.5-9.91ZM1160.4,806.26c1.11,0,2.22.25,3.33.76,2.22.51,4.44.76,6.66.76,3.89,0,5.83-1.02,5.83-3.05v-.76h-11.66l-7.49,3.05c1.11-.51,2.22-.76,3.33-.76ZM1160.4,820.74c1.11,0,2.22.26,3.33.76,2.22.51,4.44.76,6.66.76,3.89,0,5.83-1.52,5.83-4.57h-11.66l-7.49,3.81c1.11-.51,2.22-.76,3.33-.76ZM1161.65,441.44c-.83,1.78-1.25,3.43-1.25,4.96,0,3.05,1.39,4.57,4.16,4.57-1.11-2.03-1.66-3.56-1.66-4.57s.56-2.03,1.66-3.05c2.22-1.02,3.33-2.8,3.33-5.34,0-1.02-1.11-1.53-3.33-1.53-1.11,1.53-2.08,3.18-2.91,4.96ZM1160.4,644.63c0,.51.28,1.27.83,2.29,0,4.06.83,6.1,2.5,6.1,1.11,0,1.66-1.27,1.66-3.81v-2.29c-.55-4.07-1.66-6.1-3.33-6.1-1.11,0-1.66,1.27-1.66,3.81ZM1181.64,561.52c-1.94-2.03-3.75-3.05-5.41-3.05-6.11,0-9.99,2.03-11.66,6.1h5c5.55,0,10.55,1.27,14.99,3.81v-1.52c0-1.53-.97-3.31-2.91-5.34ZM1170.4,745.26c0-2.03-.28-3.56-.83-4.57-2.78,1.53-4.16,4.07-4.16,7.63,0,1.52,1.11,3.3,3.33,5.34,1.11-3.05,1.66-5.84,1.66-8.39ZM1187.05,587.44c3.33-1.02,4.99-2.03,4.99-3.05s-.55-1.53-1.66-1.53h-2.5c-1.11,2.03-2.78,3.05-5,3.05s-4.44-.26-6.66-.76c-2.22-.51-3.89-1.02-4.99-1.52h-.83c-1.11,0-1.66.76-1.66,2.29h.83c2.22,0,3.33,1.27,3.33,3.81,0,1.53-.28,4.32-.83,8.39-.56,1.02-.83,1.78-.83,2.29,0,2.54,1.11,3.81,3.33,3.81h1.66l2.92-5.34c.83-1.52,1.25-3.3,1.25-5.34v-3.81c1.11-.51,3.33-1.27,6.66-2.29ZM1168.73,610.32v12.2c0,4.06.56,6.1,1.66,6.1,1.67,0,2.5-1.02,2.5-3.05v-8.39c0-2.54-.28-5.08-.83-7.63-.56,0-.83-.25-.83-.76s-.28-.76-.83-.76c-1.11,0-1.66.76-1.66,2.29ZM1187.89,643.1c-2.78.51-5.69,1.27-8.74,2.29-3.06,1.02-5.14,2.8-6.25,5.34h3.33c7.22,0,11.11-2.54,11.66-7.63ZM1177.89,502.82c2.78-2.54,4.16-4.57,4.16-6.1,0-2.03-1.94-3.05-5.83-3.05v3.05c0,3.05.56,5.08,1.67,6.1ZM1193.72,426.57c0-1.02-.83-1.91-2.5-2.67-1.66-.76-3.05-1.14-4.16-1.14s-2.5.13-4.16.38c-1.67.26-2.5.89-2.5,1.91v.76l11.66,3.81c1.11-1.02,1.67-2.03,1.67-3.05ZM1192.88,520.35c0-1.02-.28-2.16-.83-3.43-.55-1.27-1.39-1.91-2.5-1.91h-1.66l-3.33,3.81v6.86l3.33.76c3.33,0,5-2.03,5-6.1ZM1194.55,538.65c4.44-5.59,6.66-11.18,6.66-16.77,0-1.02-.56-2.03-1.66-3.05-1.11,3.56-3.89,9.02-8.33,16.39s-6.66,12.58-6.66,15.63c0,2.03,1.11,3.05,3.33,3.05,0-4.57,2.22-9.65,6.66-15.25ZM1195.38,485.28c0-2.03,1.39-3.3,4.16-3.81,2.78-1.02,4.16-2.29,4.16-3.81,0-1.02-.56-1.52-1.67-1.52h-2.5c-1.66,1.02-3.47,2.03-5.41,3.05-1.94,1.02-2.91,2.29-2.91,3.81,0,1.02.56,1.78,1.67,2.29l3.33,1.53c-.56-.51-.83-1.02-.83-1.53ZM1209.54,638.52c-1.11-1.52-2.5-2.29-4.16-2.29h-1.66v1.53c0,1.52.14,3.3.41,5.34.28,2.03,1.53,3.3,3.75,3.81l3.33-3.81c0-1.52-.56-3.05-1.66-4.57ZM1212.04,702.57c2.78,0,5.28.76,7.5,2.29,3.89,3.05,8.05,4.57,12.49,4.57,1.11,0,2.22-.76,3.33-2.29-4.44-1.02-8.47-2.8-12.08-5.34-3.61-2.54-7.63-3.81-12.08-3.81-3.89,0-6.39,2.03-7.49,6.1,2.77-1.02,5.55-1.53,8.33-1.53ZM1203.71,789.48v2.29c0,3.56.55,6.1,1.66,7.63,1.11,0,1.94-.76,2.5-2.29.56-1.52.83-2.54.83-3.05l-.83-4.57,3.33-6.86-7.49,6.86ZM1206.21,729.25c0,1.53.56,3.05,1.66,4.57,1.11,1.53,2.5,2.29,4.16,2.29,2.22,0,3.33-1.27,3.33-3.81l-7.5-6.86c-1.11,2.03-1.66,3.3-1.66,3.81ZM1227.03,798.63c2.22-1.02,3.61-2.8,4.16-5.34h-10.83c-3.89,0-5.83,1.02-5.83,3.05l.83,3.81h4.16c2.77,0,5.27-.51,7.49-1.52ZM1250.76,698.37c2.5-1.27,3.75-3.18,3.75-5.72v-3.05c-4.44-2.54-9.16-3.81-14.16-3.81-3.33,0-5,1.27-5,3.81h1.66c1.11,0,2.22.51,3.33,1.53.55,1.52.97,3.17,1.25,4.95.28,1.78.69,3.56,1.25,5.34.56,1.78,1.94,2.67,4.16,2.67,0-2.54,1.25-4.45,3.75-5.72Z"></path><path class="cls-3" d="M1382.34,722.01c-2.5-81.58-7.36-163.54-14.57-245.88l-4.16-3.81-.83-35.07c0-28.97,1.66-57.69,5-86.15,5,0,13.6-.13,25.82-.38,12.21-.25,24.98-.63,38.31-1.14,13.32-.51,25.4-1.14,36.23-1.91,10.83-.76,17.63-1.91,20.4-3.43,8.88-1.02,17.63-1.78,26.23-2.29,8.61-.51,17.63-.76,27.07-.76,7.22,0,15.82.13,25.81.38,9.99.26,20.13,1.02,30.4,2.29,10.27,1.27,19.98,3.3,29.15,6.1,9.16,2.8,16.24,6.74,21.24,11.82,11.1,3.05,19.85,9.66,26.23,19.82,6.39,10.17,11.8,20.08,16.24,29.74l4.16,3.81v4.57c0,2.54.28,5.08.83,7.63.55,5.08,1.39,9.4,2.5,12.96l4.16,3.05c-.56,9.66-.83,19.31-.83,28.97,0,11.69.55,23.64,1.66,35.83,1.11,22.37,1.66,44.22,1.66,65.57,0,23.89,1.53,47.27,4.58,70.14,3.05,22.87,4.58,46,4.58,69.38s2.08,47.65,6.25,71.28c4.16,23.64,6.24,47.4,6.24,71.29l-.83,12.2-4.16,3.81c0,8.64-1.25,15.5-3.75,20.59-2.5,5.08-5.14,11.18-7.91,18.3h-3.33l-4.16,10.67-27.48,25.16h-7.5v3.05h-7.49v3.81h-8.33c-3.33,3.56-9.16,6.1-17.49,7.63-8.33,1.52-16.93,2.54-25.82,3.05-6.11.51-12.49.76-19.15.76-2.78,0-5.55-.25-8.33-.76h-21.65c-19.43,0-38.59,1.4-57.46,4.19-18.88,2.8-38.03,4.19-57.46,4.19-17.21,0-33.59-1.53-49.13-4.57-6.11-82.34-10.41-164.3-12.91-245.88ZM1592.62,485.66c-.56-8.39-2.36-16.01-5.41-22.87-3.06-6.86-7.36-12.71-12.91-17.54-5.55-4.83-13.33-7.24-23.32-7.24s-21.93.25-35.81.76c-13.88.51-25.54,2.03-34.98,4.57.56,59.98,3.33,119.19,8.33,177.64s7.49,117.67,7.49,177.64c0,12.2.42,24.52,1.25,36.98.83,12.45,3.19,24.53,7.08,36.22h49.97c8.33,0,17.07-.63,26.23-1.91,9.16-1.27,17.35-4.19,24.57-8.77,5-9.66,7.5-20.59,7.5-32.78,0-26.43-.97-52.99-2.91-79.67s-4.16-53.37-6.66-80.05c-2.5-26.68-4.72-53.37-6.66-80.05-1.94-26.68-2.91-53.5-2.91-80.44,0-6.61-.28-14.11-.83-22.49ZM1562.64,425.81c-1.11-1.52-2.77-2.29-4.99-2.29-3.89,0-7.5,2.03-10.83,6.1l15.82-3.81ZM1604.28,866.49c0,.51.56.76,1.67.76,1.66,0,4.02-1.4,7.08-4.19,3.06-2.8,4.58-5.21,4.58-7.24,0-1.02-.28-1.78-.83-2.29l-4.16,7.63-7.5,3.05-.83,2.29Z"></path><path class="cls-3" d="M2244.68,373.97c2.22,0,4.72-.26,7.49-.76h21.65c7.78,0,15.97.25,24.57.76,8.61.51,16.8,2.8,24.57,6.86-4.45,44.22-7.08,88.7-7.91,133.42-.83,44.73-2.08,89.59-3.75,134.57-1.66,44.98-4.3,89.84-7.91,134.57-3.61,44.73-9.86,88.7-18.74,131.9l-8.33,3.81c-3.33,8.64-7.22,14.99-11.66,19.06-4.44,4.07-8.61,6.99-12.49,8.77-3.88,1.78-7.49,3.05-10.82,3.81-3.33.76-5.83,2.16-7.49,4.19-10.55,3.56-22.07,6.35-34.56,8.39-12.49,2.03-24.29,3.05-35.4,3.05-12.77,0-26.37-.89-40.8-2.67-14.43-1.78-28.04-3.68-40.81-5.72-2.22-5.08-3.61-10.04-4.16-14.87-.56-4.83-.83-10.04-.83-15.63,0-9.15.69-18.3,2.08-27.45,1.39-9.15,3.47-18.3,6.25-27.45,4.44-.51,8.61-.76,12.49-.76,4.45,0,8.89.26,13.33.76,8.32.51,16.65.76,24.98.76,7.77,0,15.55-.25,23.32-.76,7.78-.51,15.55-1.78,23.32-3.81,8.89-14.23,13.33-29.73,13.33-46.51v-4.57c-1.11-17.79-1.66-35.33-1.66-52.61,0-29.48.97-58.83,2.91-88.06,1.94-29.23,4.16-58.58,6.66-88.06,2.5-29.48,4.72-58.83,6.66-88.06,1.94-29.22,2.91-58.58,2.91-88.06l.83-14.48c2.22-1.53,3.75-3.56,4.58-6.1.83-2.54,1.53-5.21,2.08-8,.55-2.8,1.39-5.21,2.5-7.24,1.11-2.03,3.05-3.3,5.83-3.81,4.99.51,9.99.76,14.99.76Z"></path><path class="cls-3" d="M2467.86,285.52c4.44-1.02,9.16-1.52,14.16-1.52h46.64c13.32,0,27.06.13,41.22.38,14.16.26,27.62,1.02,40.39,2.29,12.77,1.27,22.49,3.18,29.15,5.72l4.16,3.81c3.89,0,8.05,1.65,12.49,4.95,4.44,3.31,8.74,7.24,12.91,11.82,4.16,4.57,7.77,9.28,10.83,14.11,3.05,4.83,5.13,8.77,6.24,11.82h4.16v7.63c2.22,2.03,4.03,5.21,5.41,9.53,1.39,4.32,2.49,8.89,3.33,13.72.83,4.83,1.39,9.66,1.66,14.49.28,4.83.69,8.77,1.25,11.82l4.16,3.81c.55,14.23.83,28.46.83,42.7v20.58c-.55,21.35-.83,42.7-.83,64.04,0,35.07,1.25,69.76,3.74,104.07,2.5,34.31,3.75,68.74,3.75,103.31,0,18.81,1.25,37.48,3.75,56.04,2.49,18.55,3.74,36.98,3.74,55.28v3.05l-3.33,3.81c-.56,5.59-.83,11.44-.83,17.54s-1.11,11.94-3.33,17.54l-4.16,3.81c-4.44,19.31-14.99,34.05-31.65,44.22-16.65,10.17-35.67,17.54-57.04,22.11-21.38,4.57-43.45,7.12-66.21,7.63-22.76.51-42.47.76-59.13.76-6.11,0-11.94-.13-17.49-.38-5.55-.26-11.38-1.14-17.49-2.67-1.11-1.02-4.58-3.18-10.41-6.48s-12.49-7.12-19.99-11.44c-7.49-4.32-14.71-8.77-21.65-13.34s-11.8-8.64-14.57-12.2l-3.33-13.72-8.33-7.63v-6.86c-2.78-2.03-4.72-5.72-5.83-11.06-1.11-5.34-1.66-11.06-1.66-17.15-.56-3.05-.83-6.1-.83-9.15s.28-6.1.83-9.15v-12.96c0-66.59-2.08-132.79-6.25-198.61-4.16-65.82-6.24-132.03-6.24-198.61,0-14.23.55-28.08,1.66-41.55,1.11-13.47,3.89-25.92,8.33-37.36,4.44-11.44,11.11-21.86,19.99-31.26,8.88-9.4,21.38-17.66,37.48-24.78l3.33-3.81c5.55,0,10.27-1.27,14.16-3.81,3.33-2.03,8.05-3.05,14.16-3.05h3.33l3.33-3.81ZM2457.03,462.41c-1.11,0-2.22.25-3.33.76-1.11.51-2.22.76-3.33.76,1.66,2.54,4.16,3.81,7.49,3.81l6.66-3.81c-3.33-1.02-5.83-1.52-7.49-1.52ZM2464.53,453.26v2.29c0,3.56,2.5,6.35,7.49,8.39,0-5.59-2.49-9.15-7.49-10.67ZM2545.31,386.93c-2.22,0-3.33.76-3.33,2.29h-5c-19.43,0-33.59,2.54-42.47,7.62-9.99,6.1-14.99,20.33-14.99,42.7,0,60.99,1.94,121.73,5.83,182.22,3.88,60.48,5.83,121.48,5.83,182.98,0,8.64.28,17.41.83,26.31.56,8.89,3.05,17.15,7.49,24.78,7.78,2.03,15.27,4.32,22.49,6.86,7.22,2.54,14.71,3.81,22.49,3.81,9.99,0,19.01-1.27,27.06-3.81,8.05-2.54,16.52-5.84,25.4-9.91l.83-59.47c0-58.45-1.39-116.52-4.16-174.21-2.78-57.69-4.16-115.76-4.16-174.21,0-8.64-.56-17.03-1.66-25.16-1.11-8.13-3.33-16.01-6.66-23.63-4.44-4.07-9.72-6.1-15.82-6.1-6.66,0-13.05-.25-19.15-.76,0-1.53-.28-2.29-.83-2.29ZM2495.34,385.4c2.78-1.52,5.28-2.8,7.5-3.81,1.66-.51,3.33-.76,4.99-.76h3.33c2.78,1.02,5.55,1.53,8.33,1.53,4.44,0,6.66-1.27,6.66-3.81h-35.81c2.78,0,4.16.76,4.16,2.28s-.83,3.05-2.5,4.57l-4.16,3.81-.83.76.83-.76c2.22-1.02,4.72-2.29,7.49-3.81ZM2495.76,858.48c-1.39-3.3-3.19-4.96-5.41-4.96-1.11,0-1.94.76-2.5,2.29h1.66c1.11,0,1.95.51,2.5,1.53v4.57c-.55,2.03-.83,3.81-.83,5.34,0,2.03.83,3.05,2.49,3.05,2.78,0,4.16-1.78,4.16-5.34,0-1.02-.69-3.18-2.08-6.48ZM2565.29,874.11c1.11,0,3.05-.51,5.83-1.52,2.78-1.02,4.72-1.78,5.83-2.29l-3.33-3.81c-5.55,2.54-9.16,3.81-10.83,3.81h-.83c-1.66-.51-5.83-.76-12.49-.76-1.66,0-3.33.26-4.99.76-1.67.51-2.5,1.78-2.5,3.81h23.32ZM2597.78,407.51c0-2.54-.56-6.23-1.67-11.06-1.11-4.83-3.33-7.24-6.66-7.24-1.11,0-1.95.38-2.5,1.14-.55.76-1.11,1.4-1.66,1.91,2.22.51,3.75,1.78,4.58,3.81.83,2.03,1.39,4.19,1.66,6.48s.7,4.57,1.25,6.86c.56,2.29,1.94,3.69,4.16,4.19l.83-6.1ZM2602.77,503.58c-1.66,0-2.5,1.02-2.5,3.05v7.62c0,3.05.28,5.85.83,8.39.55,0,.83.25.83.76s.28.76.83.76c1.11,0,1.66-1.02,1.66-3.05v-11.44c0-4.06-.55-6.1-1.66-6.1Z"></path><path class="cls-3" d="M3101.61,287.81l4.16-.76c1.67,0,2.91.89,3.75,2.67.83,1.78,1.25,3.17,1.25,4.19,0,3.05-.28,5.84-.83,8.39l-4.16,3.81v13.72l-7.49,7.63c0,2.03-1.11,6.23-3.33,12.58-2.22,6.35-5,13.34-8.33,20.97-3.33,7.63-6.52,15-9.57,22.11-3.06,7.12-5.14,12.2-6.25,15.25l-4.16,3.81c-1.11,3.05-1.66,5.85-1.66,8.39,0,3.05-.55,6.1-1.66,9.15l-8.33,7.63c-1.11,3.56-1.66,7.11-1.66,10.67s-.55,7.11-1.66,10.67l-4.16,3.05v7.62l-7.49,6.86v1.52c0,2.03-.56,5.08-1.66,9.15-2.22,5.59-4.58,11.56-7.08,17.92-2.5,6.35-4.86,12.45-7.08,18.3-2.22,5.85-3.61,10.29-4.16,13.34-3.89,4.07-7.49,10.42-10.83,19.06-3.33,8.64-6.11,15.5-8.32,20.59l-8.33,6.86v7.62l-5,12.2c-1.66,4.07-2.49,8.13-2.49,12.2,0,7.12,1.8,12.33,5.41,15.63,3.61,3.31,5.69,7.75,6.25,13.34,2.78,6.1,6.66,10.68,11.66,13.72,2.22,6.1,6.66,14.61,13.32,25.54,6.66,10.93,13.6,22.11,20.82,33.55,7.22,11.43,13.6,21.98,19.16,31.64,5.55,9.66,8.61,16.27,9.16,19.82,0,1.02,1.11,3.31,3.33,6.86,2.22,3.56,4.72,7.5,7.5,11.82,2.78,4.32,5.41,8.13,7.91,11.44s4.03,5.21,4.58,5.72c1.11,3.05,3.33,8.01,6.66,14.87,3.33,6.86,6.94,13.85,10.82,20.97,3.89,7.12,7.78,13.72,11.66,19.82,3.88,6.1,7.22,10.17,9.99,12.2l3.33,6.86,8.33,7.63v6.86c7.77,6.1,14.15,15,19.15,26.68,4.99,11.69,8.88,21.85,11.66,30.5-8.33,3.05-17.35,5.46-27.07,7.24s-19.71,2.92-29.98,3.43c-10.27.51-20.4.76-30.4.76h-29.15c-2.78,0-4.44-2.03-4.99-6.1-.56-4.07-1.39-7.12-2.5-9.15-5-3.56-8.88-7.63-11.66-12.2-2.78-4.57-5.41-9.28-7.91-14.1-2.49-4.83-5.27-9.66-8.33-14.49-3.05-4.83-6.8-9.02-11.24-12.58v-6.86c-2.22-1.52-4.72-4.19-7.5-8-2.77-3.81-5.55-7.88-8.32-12.2-2.78-4.32-5.28-8.51-7.49-12.58-2.22-4.07-3.61-7.37-4.16-9.91l-7.5-3.81c-3.33-5.08-5.41-9.15-6.24-12.2-.83-3.05-4.03-7.37-9.58-12.96v-6.86l-11.66-14.48c0-.51-2.36-4.57-7.08-12.2-4.72-7.62-10.13-16.14-16.24-25.54-6.11-9.4-11.8-18.17-17.07-26.3-5.27-8.13-8.74-12.96-10.41-14.49,1.66,37.11,5.55,74.34,11.66,111.7,6.11,37.36,9.16,74.34,9.16,110.93,0,10.67-1.67,20.84-5,30.5-11.66,4.07-23.88,6.99-36.64,8.77-12.77,1.78-25.54,2.67-38.31,2.67-6.66,0-13.19-.25-19.57-.76-6.38-.51-12.63-1.52-18.74-3.05-7.77-82.85-14.85-165.32-21.23-247.41-6.39-82.09-13.47-164.81-21.24-248.17-2.22-20.84-4.44-41.55-6.66-62.14-2.22-20.58-3.33-41.3-3.33-62.14v-18.3c0-6.1.55-12.2,1.66-18.3,13.32-1.02,26.65-2.54,39.97-4.57,13.32-2.03,26.65-3.05,39.97-3.05,11.1,0,22.21,1.53,33.31,4.57,5.55,37.61,9.16,75.61,10.82,113.98,1.66,38.37,5.83,76.37,12.49,113.98,3.33,0,5.41-2.92,6.24-8.77.83-5.84,1.53-10.04,2.08-12.58h3.33v-7.63c1.66-3.56,3.33-7.37,5-11.43,1.66-4.07,3.88-7.37,6.66-9.91,1.11-5.08,3.47-10.42,7.08-16.01,3.61-5.59,6.53-10.93,8.74-16.01v-6.86h4.16v-6.86h3.33v-7.63h4.16c2.22-4.07,3.61-8.26,4.16-12.58.56-4.32,1.66-8.51,3.33-12.58l4.16-3.05c1.11-5.59,3.33-11.06,6.66-16.39,3.33-5.34,6.38-10.55,9.16-15.63v-7.62h3.33v-6.86c2.78-4.57,5.83-9.91,9.16-16.01,2.22-4.07,3.33-8.13,3.33-12.2,0-1.02-.28-2.29-.83-3.81,4.44-3.56,7.49-7.88,9.16-12.96s3.89-10.17,6.66-15.25c8.32-2.03,16.79-3.43,25.4-4.19s17.07-1.27,25.4-1.52c8.33-.26,16.8-.64,25.4-1.14,8.61-.51,17.07-1.78,25.4-3.81l3.33,3.05ZM2797.22,624.04c-.83-3.05-1.8-4.57-2.91-4.57-1.66,0-3.05,1.27-4.16,3.81l8.33,6.86c0-1.02-.42-3.05-1.25-6.1ZM2798.47,726.2c0-4.07-.55-6.1-1.66-6.1-1.66,0-2.5,1.02-2.5,3.05v16.01c0,3.05.56,4.57,1.66,4.57,1.67,0,2.5-1.02,2.5-3.05v-14.48ZM2820.96,479.94c2.78,0,4.16-1.02,4.16-3.05-2.78-1.02-5.83-1.78-9.16-2.29-3.33-.51-6.38-.76-9.16-.76l-8.33,3.05c1.66,1.52,3.61,2.29,5.83,2.29,1.66,0,3.61-.76,5.83-2.29,4.44,2.03,8.05,3.05,10.83,3.05ZM2810.13,512.73l.83-4.57c0-.51-.28-1.52-.83-3.05-.55-1.52-1.39-2.29-2.5-2.29-1.11,1.02-1.66,2.54-1.66,4.57-.55.51-.83,1.27-.83,2.29s.28,2.03.83,3.05l-4.16,6.86,8.33-6.86ZM2825.12,427.34v-7.63h-7.5v7.63h7.5ZM2833.45,726.2l-4.16-10.67c-.55,3.05-3.05,6.61-7.49,10.67h11.66ZM2852.61,653.01c1.66-1.02,3.05-2.8,4.16-5.34-1.67-1.02-3.61-1.52-5.83-1.52s-4.16-.13-5.83-.38c-1.66-.26-2.49-1.14-2.49-2.67h-.83c0-1.52,1.11-3.56,3.33-6.1h-8.32l-3.33,3.81c2.78,0,4.58.89,5.41,2.67.83,1.78,1.53,3.81,2.08,6.1.55,2.29,1.25,4.32,2.08,6.1.83,1.78,2.64,2.67,5.41,2.67,1.11-2.54,2.5-4.32,4.16-5.34ZM2839.28,609.55c2.22,0,4.45-.76,6.66-2.29,2.22-1.52,3.33-3.3,3.33-5.34,0-2.54-1.39-3.81-4.16-3.81-.55,2.54-1.8,4.32-3.74,5.34-1.94,1.02-3.47,2.8-4.58,5.34l2.49.76ZM2856.77,466.22l-4.16-3.81v2.29c0,1.02-.56,1.52-1.66,1.52-1.67,0-3.2-1.27-4.58-3.81-1.39-2.54-2.63-3.81-3.74-3.81s-1.66.51-1.66,1.53v2.29c3.88,1.02,6.52,2.92,7.91,5.72,1.39,2.8,4.03,4.45,7.91,4.96v-6.86ZM2852.61,630.14v-3.05c0-1.52-.14-3.17-.42-4.95-.28-1.78-1.8-2.67-4.58-2.67h-2.5v6.86l7.5,3.81ZM2870.51,683.51c-3.05-.51-5.13-.76-6.24-.76l-4.16.76c-1.11,2.03-2.78,3.94-5,5.72-2.22,1.78-4.44,3.43-6.66,4.96,2.78.51,4.72,1.65,5.83,3.43,1.11,1.78,3.05,3.18,5.83,4.19v-3.05c0-2.54.55-4.96,1.66-7.24,1.11-2.29,3.33-3.69,6.66-4.19h4.16c1.66,0,2.49-.51,2.49-1.52s-1.53-1.78-4.58-2.29ZM2859.27,557.71c1.11,0,2.08-.76,2.91-2.29l2.08-3.81-11.66-3.05v6.86c1.66,1.52,3.88,2.29,6.66,2.29ZM2860.1,640.05c0-3.05,1.66-5.59,4.99-7.63,3.89-2.03,5.83-4.32,5.83-6.86,0-1.52-.83-2.29-2.49-2.29,0,2.54-2.08,4.57-6.25,6.1-4.16,1.53-6.24,3.56-6.24,6.1s1.39,4.32,4.16,5.34v-.76ZM2868.43,723.15c-3.89,0-7.78-1.27-11.66-3.81l-.83,4.57c0,2.54.69,4.7,2.08,6.48,1.39,1.78,3.47,2.92,6.25,3.43,0-3.56,1.39-7.11,4.16-10.67ZM2866.76,502.05c-2.22,0-3.33-1.02-3.33-3.05v-1.52c.56-2.54.83-4.57.83-6.1,0-2.54-.83-3.81-2.5-3.81h-1.66v2.29c0,1.53-.28,2.8-.83,3.81-1.66,2.03-2.49,4.32-2.49,6.86v1.52h2.49c1.11,0,2.22.25,3.33.76,1.11,1.02,2.49,1.52,4.16,1.52,1.11,0,1.66-.76,1.66-2.29h-1.66ZM2868.43,590.49c2.22,0,3.33-1.27,3.33-3.81v-3.05h-2.5c-2.22,0-4.03,1.02-5.41,3.05-1.39,2.03-2.08,3.81-2.08,5.34s.55,2.29,1.66,2.29h.83c.55-2.54,1.94-3.81,4.16-3.81ZM2873.42,758.99c2.22,0,3.33-1.52,3.33-4.57,0-.51-.28-1.78-.83-3.81-.56-2.03-1.11-3.05-1.66-3.05-1.11,0-2.08,2.03-2.91,6.1-.83,4.07-1.53,6.61-2.08,7.63l2.5-3.05,1.66.76ZM2887.58,570.67c-.55-1.52-.83-3.3-.83-5.34,0-1.52-.28-2.92-.83-4.19-.56-1.27-1.95-1.91-4.16-1.91h-1.66c0,2.03.83,5.21,2.5,9.53,1.66,4.32,3.88,6.48,6.66,6.48,1.66,0,2.5-.76,2.5-2.29-2.22,0-3.61-.76-4.16-2.29ZM2885.92,669.02c2.22,0,4.16-1.4,5.83-4.2,1.66-2.8,3.05-4.95,4.16-6.48-2.78.51-5.83,1.27-9.16,2.29-3.33,1.02-5.55,2.8-6.66,5.34,2.22,2.03,4.16,3.05,5.83,3.05ZM2886.75,677.41c-.55-3.05-1.39-4.57-2.49-4.57-1.66,0-3.05,1.27-4.16,3.81l7.49,6.86c0-1.02-.28-3.05-.83-6.1ZM2887.58,637.76c0-1.53.83-2.92,2.5-4.19,1.66-1.27,2.49-2.92,2.49-4.96l-.83-2.29-3.33-.76c-2.22,0-3.61.76-4.16,2.29-.56,1.52-.83,3.05-.83,4.57,0,1.02.42,3.18,1.25,6.48.83,3.3,2.36,4.96,4.58,4.96,1.66,0,2.5-1.02,2.5-3.05-2.78,0-4.16-1.02-4.16-3.05ZM2906.73,666.74c3.89,0,5.83-.76,5.83-2.29v-1.53c0-1.52.83-3.05,2.5-4.57l4.16,3.81v-1.53c0-2.03-.97-3.43-2.91-4.19-1.94-.76-3.75-1.14-5.41-1.14-.55-1.02-1.39-2.16-2.5-3.43-1.11-1.27-2.22-1.91-3.33-1.91s-1.66.51-1.66,1.52c.55,1.02,1.11,1.78,1.66,2.29.56.51.83,1.27.83,2.29,0,1.53-.97,3.05-2.91,4.57-1.95,1.53-3.2,3.31-3.75,5.34l7.49.76ZM2907.57,558.47c0,1.02.14,2.42.42,4.19.28,1.78,1.25,2.92,2.91,3.43.56-3.05,2.36-6.23,5.41-9.53,3.05-3.3,4.58-6.23,4.58-8.77,0-1.52-.55-2.54-1.66-3.05-1.66,4.57-5.55,6.86-11.66,6.86v6.86ZM2912.56,523.4c2.22,0,4.16-.89,5.83-2.67,1.67-1.78,3.05-3.43,4.16-4.95l4.16,10.67c-.55-1.02-.83-2.29-.83-3.81v-3.05c.55-3.05.83-5.59.83-7.63s-1.39-3.05-4.16-3.05c-.55,3.56-2.36,5.97-5.41,7.24-3.05,1.27-5.13,3.69-6.24,7.24h1.66ZM2919.23,638.52c0-1.02.28-2.03.83-3.05,1.11-1.02,1.66-2.29,1.66-3.81,0-1.02-.83-1.52-2.5-1.52l-4.16,3.81h-4.16c1.11,1.02,2.91,2.92,5.41,5.72,2.5,2.8,4.03,4.19,4.58,4.19s.83-.26.83-.76v-.76c-1.11-.51-1.95-1.02-2.5-1.53v-2.29ZM2922.56,598.12c1.66,0,3.33-.26,5-.76s2.78-1.52,3.33-3.05c-1.66,0-2.5-.51-2.5-1.52-.55,0-.83-.26-.83-.76s.28-1.02.83-1.52c0-.51.28-1.02.83-1.52,0-.51-.83-1.02-2.5-1.53,0,2.03-.55,3.43-1.66,4.19-1.11.76-2.36,1.27-3.75,1.53-1.39.25-2.78.76-4.16,1.52-1.38.76-2.08,1.91-2.08,3.43h7.49ZM2930.89,576.77c1.66-1.02,2.5-2.54,2.5-4.57-1.66-3.56-3.33-6.35-5-8.39-1.11-2.03-2.22-3.81-3.33-5.34-1.11-1.52-1.94-2.54-2.5-3.05-.55,2.54-1.25,5.21-2.08,8-.83,2.8-1.25,5.46-1.25,8.01,0,5.08,2.5,8.13,7.49,9.15,1.11-1.52,2.5-2.8,4.16-3.81ZM2925.06,695.71c1.11,0,1.8.89,2.08,2.67.28,1.78.7,3.81,1.25,6.1.56,2.29,1.39,4.32,2.5,6.1,1.11,1.78,3.05,2.67,5.83,2.67l1.66-.76c-1.66-4.57-3.05-9.53-4.16-14.87-1.11-5.34-3.61-10.04-7.49-14.11-1.11,1.02-2.64,2.67-4.58,4.96-1.94,2.29-2.91,4.19-2.91,5.72,0,2.54,1.11,3.81,3.33,3.81,0-1.53.83-2.29,2.5-2.29ZM2949.62,520.35c-3.05-4.07-5.97-6.1-8.74-6.1-1.66,0-2.5.51-2.5,1.53,3.33,2.03,5.69,4.83,7.08,8.39s4.3,5.59,8.74,6.1c0-2.54-1.53-5.85-4.58-9.91ZM2954.2,730.01h3.33c-1.67-1.52-3.47-3.05-5.41-4.57-1.95-1.52-4.3-2.29-7.08-2.29-1.66,0-2.5,1.02-2.5,3.05,2.78,0,4.16,1.27,4.16,3.81v.76c-.55.51-.83,1.02-.83,1.52,0,2.54,1.39,4.07,4.16,4.57l4.16-6.86ZM2947.54,499.77c1.11,4.07,2.78,6.1,4.99,6.1,1.66,0,3.33-1.27,5-3.81-1.11,0-2.08-1.02-2.91-3.05-.83-2.03-1.39-4.07-1.67-6.1-.28-2.03-.69-3.94-1.25-5.72-.55-1.78-1.38-2.67-2.49-2.67s-1.8.38-2.08,1.14c-.28.76-.69,1.4-1.25,1.91h3.33v.76c-1.11,1.52-2.22,2.54-3.33,3.05,0,1.52.56,4.32,1.67,8.39ZM2954.2,626.33c1.66-1.02,3.47-2.41,5.41-4.19s2.91-3.68,2.91-5.72c0-1.02-.55-1.78-1.66-2.29l-3.33-1.52c0,2.54-1.39,3.81-4.16,3.81-.56,0-.83-.25-.83-.76h-1.66c-2.78,0-4.44,1.27-5,3.81l8.33,6.86ZM2961.7,751.36l-4.16.76c-3.33,0-5.28-1.65-5.83-4.96-.55-3.3-2.49-5.46-5.83-6.48,1.11,2.54,1.95,5.72,2.5,9.53.56,3.81,2.5,6.48,5.83,8,3.33-2.03,6.66-3.05,9.99-3.05h1.66c1.66-4.07,4.16-7.63,7.5-10.67,7.77-1.02,14.29-3.18,19.57-6.48,5.28-3.3,10.41-7.24,15.41-11.82-4.44,1.02-8.05,2.41-10.83,4.19-2.78,1.78-5.69,3.56-8.74,5.34-3.05,1.78-6.24,3.18-9.57,4.2-2.78.51-5.55.76-8.33.76h-5l-4.16,10.67ZM2953.79,659.87c-.28-5.08-.97-7.63-2.08-7.63s-1.66,1.02-1.66,3.05v11.44c0,4.06.56,6.1,1.66,6.1,1.67,0,2.5-1.02,2.5-3.05,0-1.52-.14-4.83-.41-9.91ZM2960.87,598.88c-.56-3.05-1.39-4.57-2.5-4.57-1.66,0-3.05,1.27-4.16,3.81l7.49,6.86c0-1.02-.28-3.05-.83-6.1ZM2957.54,712.48c4.44,0,7.49-1.91,9.16-5.72,1.66-3.81,4.16-5.72,7.49-5.72l6.66,3.81.83-3.05c0-3.05-1.53-5.21-4.58-6.48-3.05-1.27-5.97-1.91-8.74-1.91l-10.82,4.57h2.49c1.11,0,2.78.13,5,.38,2.22.26,3.33.89,3.33,1.91-2.22,1.53-5.14,3.69-8.74,6.48-3.61,2.8-5.41,5.46-5.41,8,0,2.03,1.11,3.56,3.33,4.57v-6.86ZM2973.36,680.46c2.77-2.03,4.16-4.32,4.16-6.86,0-1.52-1.39-2.8-4.16-3.81.55,1.02.83,2.03.83,3.05,0,2.03-1.11,3.56-3.33,4.57-3.89,1.52-5.83,3.56-5.83,6.1,0,1.52,1.39,2.8,4.16,3.81,0-2.54,1.39-4.83,4.16-6.86ZM2976.69,778.81v-2.29c.55-2.03.83-4.07.83-6.1v-1.52c0-2.03-1.11-3.05-3.33-3.05h-.83c-2.22,2.03-3.33,5.08-3.33,9.15,0,1.52.7,3.3,2.08,5.34,1.39,2.03,3.19,3.05,5.41,3.05-.55-1.52-.83-3.05-.83-4.57ZM2975.02,562.28c2.78,0,5.27-1.4,7.49-4.19,2.22-2.8,4.44-4.96,6.66-6.48h-1.67c-3.88,0-6.8,1.14-8.74,3.43-1.94,2.29-3.74,4.7-5.41,7.24h1.66ZM2983.35,794.82c2.22,0,4.16-1.02,5.83-3.05,1.66-2.03,2.49-4.07,2.49-6.1,0-1.52-1.39-2.29-4.16-2.29h-2.49v3.81l-4.16,6.86,2.49.76ZM2985.02,717.05h-1.67c1.11,1.02,2.5,2.03,4.16,3.05,1.67,1.02,3.33,1.52,5,1.52s3.05-.76,4.16-2.29c-4.44-1.52-8.33-2.29-11.66-2.29ZM2990.01,439.53c-.55-.51-1.39-.76-2.5-.76s-1.8.64-2.08,1.91c-.28,1.27-.42,2.41-.42,3.43v.76c3.33,0,5.83-1.27,7.49-3.81-1.11-.51-1.95-1.02-2.5-1.52ZM3008.34,462.41v-3.05c0-1.52-.14-3.18-.41-4.96-.28-1.78-1.81-2.67-4.58-2.67h-2.49v7.62l7.49,3.05Z"></path><path class="cls-3" d="M3512.99,316.4c.55,6.35.83,12.83.83,19.44,0,10.17-.28,20.33-.83,30.5-.56,4.57-.83,9.15-.83,13.72,0,6.1.28,11.94.83,17.54-7.78,1.52-15.68,2.54-23.74,3.05-8.05.51-15.96.76-23.73.76-17.21,0-34.15-.63-50.8-1.91-16.66-1.27-33.59-1.91-50.8-1.91-14.99,0-28.87,1.02-41.64,3.05l-.83,112.84c0,5.59.28,11.18.83,16.77.56,5.59,1.67,11.18,3.33,16.77,2.22,2.03,7.49,3.3,15.82,3.81,8.32.51,17.49.76,27.48.76s19.57-.26,28.73-.76c9.16-.51,15.68-.76,19.57-.76,9.99,0,20.13.26,30.4.76,10.28.51,20.41,1.52,30.4,3.05,1.66,6.61,2.77,13.09,3.33,19.44.55,6.35.83,12.83.83,19.44,0,10.17-.41,19.95-1.25,29.35-.83,9.4-1.81,18.93-2.91,28.59-24.99,2.03-49.69,3.05-74.12,3.05-8.33.51-16.66.76-24.98.76-16.1,0-32.48-.25-49.13-.76-2.22,9.66-3.61,19.19-4.16,28.59-.56,9.4-.83,18.93-.83,28.59v91.49c0,9.15.28,18.3.83,27.45.55,9.15,1.94,18.3,4.16,27.45,6.66,3.05,14.15,4.57,22.48,4.57,14.99,0,29.98-.89,44.97-2.67,14.99-1.78,30.26-2.67,45.8-2.67,12.77,0,25.68.26,38.72.76,13.05.51,25.95,1.78,38.72,3.81,4.99,19.31,7.49,39.14,7.49,59.47,0,5.59-.28,11.06-.83,16.39-.56,5.34-1.39,10.8-2.5,16.39-24.43,5.08-48.86,7.63-73.29,7.63-3.33,0-6.66-.26-9.99-.76-27.76-.51-55.8-.76-84.11-.76-17.77,0-35.4.89-52.88,2.67-17.49,1.78-35.11,2.67-52.88,2.67-13.32,0-26.09-1.52-38.31-4.57-4.44-62.01-6.66-124.02-6.66-186.03v-186.03c0-38.63-.97-77.26-2.91-115.89-1.94-38.63-2.91-77.26-2.91-115.89,0-8.64.28-17.28.83-25.92.55-8.64,1.66-17.28,3.33-25.92,16.65-3.05,33.59-4.57,50.8-4.57h16.66c22.21,1.52,44.42,2.29,66.62,2.29,5.55,0,13.32-.13,23.32-.38,9.99-.25,17.21-1.65,21.65-4.19l34.98-.76c14.99,0,29.98.26,44.97.76h44.97c2.22,6.1,3.61,12.33,4.16,18.68ZM3258.99,632.43c0-2.03.83-3.81,2.5-5.34,1.66-1.52,2.5-3.3,2.5-5.34s-1.39-3.05-4.16-3.05v1.53c0,2.54-.83,4.32-2.5,5.34-2.78,2.03-4.16,4.32-4.16,6.86,0,1.02.83,1.78,2.5,2.29,1.66.51,3.05,1.02,4.16,1.52l-.83-3.81ZM3267.32,536.36l-4.16-.76c-1.11,0-2.22.13-3.33.38-1.11.25-1.66.89-1.66,1.91,0,.51.55,1.27,1.66,2.29h7.49l4.16,3.05-4.16-6.86ZM3285.64,450.97c-3.33,0-5-1.78-5-5.34s-1.66-5.34-4.99-5.34l-4.16,10.67c2.22-1.02,3.61-1.52,4.16-1.52,2.22,0,4.03.76,5.41,2.29,1.39,1.52,2.91,2.29,4.58,2.29,1.11,0,1.66-1.02,1.66-3.05h-1.66ZM3306.46,682.74l.83-3.05c0-3.56-2.22-5.34-6.66-5.34-1.11,0-2.36.26-3.74.76-1.39.51-2.08,1.27-2.08,2.29v1.52l4.16,3.81h7.49ZM3298.14,636.24c0,3.56,1.66,5.34,4.99,5.34,1.66,0,3.75-.63,6.24-1.91,2.5-1.27,3.75-2.67,3.75-4.19,0-1.02-.83-2.03-2.5-3.05-1.11,2.03-2.49,3.05-4.16,3.05l-.83-.76c-2.78-.51-5-1.27-6.66-2.29l-.83,3.81ZM3318.12,393.79h27.48c3.88,0,7.77-.51,11.66-1.53,1.66,0,2.49-.25,2.49-.76,0-1.02-.83-1.53-2.49-1.53-3.89-1.02-7.5-1.52-10.83-1.52h-4.16c-1.66.51-3.05.76-4.16.76-3.88,0-8.05-.76-12.49-2.29l-7.49,6.86ZM3346.44,630.9c-.55-.51-1.39-.76-2.5-.76s-1.8.63-2.08,1.91c-.28,1.27-.42,2.41-.42,3.43v.76c3.33,0,5.83-1.27,7.49-3.81-1.11-.51-1.94-1.02-2.5-1.52Z"></path></g><g><path class="cls-3" d="M719.75,1150.77c.52,7.16.78,14.33.78,21.5,0,27.23-1.69,54.22-5.09,80.97-3.39,26.75-5.09,53.74-5.09,80.97,0,45.38-2.09,90.89-6.26,136.51-4.17,45.62-7.04,91.36-8.61,137.22,10.44,2.87,21.39,4.3,32.87,4.3h4.7c13.04-.48,25.83-.72,38.35-.72,15.13,0,30.14.48,45.01,1.43s29.61,2.63,44.22,5.02c1.57,4.3,2.61,8.72,3.13,13.26.52,4.54.78,9.2.78,13.97,0,9.55-.78,18.99-2.35,28.3-1.57,9.32-3.39,18.75-5.48,28.3-8.87,2.87-17.74,4.3-26.61,4.3-10.44,0-20.61-.95-30.53-2.86-9.91-1.91-20.09-3.34-30.53-4.3-28.7-2.39-58.44-4.54-89.23-6.45-19.83-.95-39.14-1.43-57.92-1.43-10.96,0-21.65.24-32.09.72l-.78-35.83c0-40.6,1.96-80.97,5.87-121.1,3.91-40.13,6.91-80.5,9-121.1,2.61-46.34,4.57-92.68,5.87-139.02,1.3-46.34,4.3-92.68,9-139.02.52-5.73,2.61-8.96,6.26-9.67,3.65-.72,7.83-1.08,12.52-1.08,13.57,0,26.87.95,39.92,2.87,8.87,1.43,17.74,2.15,26.61,2.15,4.17,0,8.61-.24,13.31-.72,1.04,7.17,1.82,14.33,2.35,21.5Z"></path><path class="cls-3" d="M992.13,1059.76c4.17-.95,8.61-1.43,13.3-1.43h43.83c12.52,0,25.44.12,38.74.36,13.31.24,25.96.95,37.96,2.15,12,1.19,21.13,2.99,27.39,5.37l3.91,3.58c3.65,0,7.57,1.55,11.74,4.66,4.17,3.11,8.22,6.81,12.13,11.11,3.91,4.3,7.31,8.72,10.18,13.26,2.87,4.54,4.83,8.24,5.87,11.11h3.91v7.17c2.09,1.91,3.78,4.9,5.09,8.96,1.3,4.06,2.35,8.36,3.13,12.9.78,4.54,1.3,9.08,1.56,13.62.26,4.54.65,8.24,1.17,11.11l3.91,3.58c.52,13.38.78,26.75.78,40.13v19.35c-.52,20.07-.78,40.13-.78,60.19,0,32.96,1.17,65.57,3.52,97.81,2.35,32.24,3.52,64.61,3.52,97.1,0,17.68,1.17,35.23,3.52,52.67,2.35,17.44,3.52,34.75,3.52,51.95v2.86l-3.13,3.58c-.52,5.25-.78,10.75-.78,16.48s-1.04,11.23-3.13,16.48l-3.91,3.58c-4.17,18.15-14.09,32.01-29.74,41.56-15.65,9.55-33.52,16.48-53.61,20.78s-40.83,6.69-62.23,7.17c-21.39.48-39.92.72-55.57.72-5.74,0-11.22-.12-16.44-.36-5.22-.24-10.7-1.08-16.44-2.51-1.04-.95-4.3-2.99-9.78-6.09-5.48-3.1-11.74-6.69-18.79-10.75-7.04-4.06-13.83-8.24-20.35-12.54-6.52-4.3-11.09-8.12-13.7-11.47l-3.13-12.9-7.83-7.17v-6.45c-2.61-1.91-4.44-5.37-5.48-10.39-1.04-5.01-1.57-10.39-1.57-16.12-.52-2.87-.78-5.73-.78-8.6s.26-5.73.78-8.6v-12.18c0-62.58-1.96-124.8-5.87-186.67-3.91-61.86-5.87-124.09-5.87-186.67,0-13.38.52-26.39,1.56-39.05,1.04-12.66,3.65-24.37,7.83-35.11,4.17-10.75,10.44-20.54,18.79-29.38,8.35-8.84,20.09-16.6,35.22-23.29l3.13-3.58c5.22,0,9.65-1.19,13.31-3.58,3.13-1.91,7.57-2.86,13.31-2.86h3.13l3.13-3.58ZM981.96,1226.01c-1.04,0-2.09.24-3.13.72-1.04.48-2.09.72-3.13.72,1.56,2.39,3.91,3.58,7.04,3.58l6.26-3.58c-3.13-.95-5.48-1.43-7.04-1.43ZM989,1217.41v2.15c0,3.34,2.35,5.97,7.05,7.88,0-5.25-2.35-8.6-7.05-10.03ZM1064.92,1155.07c-2.09,0-3.13.72-3.13,2.15h-4.7c-18.26,0-31.57,2.39-39.92,7.16-9.39,5.73-14.09,19.11-14.09,40.13,0,57.33,1.83,114.41,5.48,171.26,3.65,56.85,5.48,114.17,5.48,171.98,0,8.12.26,16.36.78,24.72.52,8.36,2.87,16.12,7.05,23.29,7.31,1.91,14.35,4.06,21.13,6.45,6.78,2.39,13.83,3.58,21.13,3.58,9.39,0,17.87-1.19,25.44-3.58,7.57-2.39,15.52-5.49,23.87-9.31l.78-55.89c0-54.94-1.3-109.52-3.91-163.74-2.61-54.22-3.91-108.8-3.91-163.74,0-8.12-.52-16-1.57-23.65-1.04-7.64-3.13-15.05-6.26-22.21-4.17-3.82-9.13-5.73-14.87-5.73-6.26,0-12.26-.24-18-.72,0-1.43-.26-2.15-.78-2.15ZM1017.96,1153.63c2.61-1.43,4.96-2.63,7.04-3.58,1.57-.48,3.13-.72,4.7-.72h3.13c2.61.96,5.22,1.43,7.83,1.43,4.17,0,6.26-1.19,6.26-3.58h-33.66c2.61,0,3.91.72,3.91,2.15s-.78,2.87-2.35,4.3l-3.91,3.58-.78.72.78-.72c2.09-.96,4.43-2.15,7.04-3.58ZM1018.35,1598.27c-1.3-3.1-3-4.66-5.09-4.66-1.04,0-1.83.72-2.35,2.15h1.56c1.04,0,1.83.48,2.35,1.43v4.3c-.52,1.91-.78,3.58-.78,5.01,0,1.91.78,2.87,2.35,2.87,2.61,0,3.91-1.67,3.91-5.02,0-.95-.65-2.99-1.95-6.09ZM1083.71,1612.96c1.04,0,2.87-.48,5.48-1.43,2.61-.95,4.44-1.67,5.48-2.15l-3.13-3.58c-5.22,2.39-8.61,3.58-10.18,3.58h-.78c-1.57-.48-5.48-.72-11.74-.72-1.56,0-3.13.24-4.7.72-1.56.48-2.35,1.67-2.35,3.58h21.91ZM1114.23,1174.41c0-2.39-.52-5.85-1.56-10.39-1.04-4.54-3.13-6.81-6.26-6.81-1.04,0-1.83.36-2.35,1.07-.52.72-1.04,1.31-1.56,1.79,2.09.48,3.52,1.67,4.3,3.58.78,1.91,1.3,3.94,1.57,6.09.26,2.15.65,4.3,1.17,6.45.52,2.15,1.83,3.46,3.91,3.94l.78-5.73ZM1118.93,1264.7c-1.56,0-2.35.95-2.35,2.87v7.16c0,2.87.26,5.49.78,7.88.52,0,.78.24.78.72s.26.72.78.72c1.04,0,1.56-.95,1.56-2.87v-10.75c0-3.82-.52-5.73-1.56-5.73Z"></path><path class="cls-3" d="M1577.59,1432.38c7.83,28.66,15.39,57.92,22.7,87.78,7.3,29.86,13.96,58.76,19.96,86.7,6,27.95,9.52,52.67,10.57,74.16-11.48,2.39-22.96,4.18-34.44,5.38-11.48,1.19-23.22,1.79-35.22,1.79-7.31,0-14.61-.24-21.92-.72-7.3-.48-14.61-1.67-21.91-3.58-4.17-8.12-7.04-17.08-8.61-26.87-1.56-9.79-3-19.59-4.3-29.38-1.3-9.79-3-19.35-5.09-28.66-2.09-9.32-5.74-17.79-10.96-25.44h-22.7c-15.13,0-30.01.36-44.61,1.07-14.61.72-28.96,2.51-43.05,5.38-2.09,9.08-3.39,18.75-3.91,29.02-.52,10.27-1.17,20.66-1.95,31.17-.78,10.51-1.96,20.78-3.52,30.81-1.56,10.03-4.43,18.87-8.61,26.51-2.61.95-7.96,1.91-16.05,2.86-8.09.95-16.7,1.67-25.83,2.15-9.13.48-17.87.84-26.22,1.08-8.35.24-14.35.36-18,.36-6.26,0-11.74-.95-16.44-2.86l-.78-20.78c0-2.39.65-9.55,1.96-21.5,1.3-11.94,3-26.15,5.09-42.64,2.09-16.48,4.44-34.04,7.05-52.67,2.61-18.63,4.96-35.95,7.04-51.95,2.09-16,4.04-29.5,5.87-40.49,1.83-10.99,3-16.96,3.52-17.91,0-.48-.26-2.39-.78-5.73-.52-3.34-.78-6.93-.78-10.75-.52-.48-.78-1.19-.78-2.15,0-2.39.52-4.54,1.56-6.45.52-1.91,1.3-2.87,2.35-2.87.52,0,1.04.24,1.57.72,7.3-57.8,13.96-115.25,19.96-172.34,6-57.09,12.91-114.53,20.74-172.34,4.7-1.43,12-2.51,21.91-3.22,9.92-.72,19.96-1.43,30.14-2.15,10.18-.72,19.31-1.31,27.39-1.79,8.09-.48,13.18-1.43,15.26-2.87l14.09-.72c7.3,0,14.87.24,22.7.72h21.91c2.09,4.78,5.22,14.57,9.39,29.38,4.17,14.81,8.35,30.57,12.52,47.29,4.17,16.72,7.83,32.25,10.96,46.58,2.61,12.42,3.91,20.78,3.91,25.08v2.15c1.56,1.43,4.17,8.6,7.83,21.5,3.65,12.9,7.31,27.23,10.96,43,3.65,15.76,6.91,30.57,9.78,44.43,2.87,13.85,4.3,22.21,4.3,25.08h3.91c5.22,22.45,11.74,48.01,19.57,76.67ZM1321.65,1266.49c1.56,1.67,3.39,2.51,5.48,2.51,2.61,0,3.91-1.19,3.91-3.58h-2.35c-4.17,0-7.04-2.15-8.61-6.45l-.78,2.15c0,1.91.78,3.7,2.35,5.37ZM1332.6,1334.93c-1.04-1.91-2.61-2.86-4.7-2.86h-.78c0,1.91.91,4.66,2.74,8.24,1.83,3.58,4.04,5.37,6.65,5.37v-.72c0-.48-.78-1.43-2.35-2.87,0-1.91-.52-4.3-1.56-7.17ZM1344.35,1602.21l-.78-.72-2.35-2.87c-1.56-.95-3.26-2.03-5.09-3.23-1.82-1.19-3.78-1.79-5.87-1.79h-3.13c1.04,2.39,3.13,4.06,6.26,5.02,3.13.95,6,1.67,8.61,2.15,1.04.95,1.83,1.43,2.35,1.43ZM1349.04,1553.48c0-5.26-2.35-8.6-7.04-10.03v2.15c0,3.34,2.35,5.97,7.04,7.88ZM1345.91,1496.16c1.04,2.39,2.61,3.58,4.7,3.58,1.56,0,2.35-.95,2.35-2.86-3.13-.48-4.7-1.91-4.7-4.3,0-.48.26-.72.78-.72v-.72c0-2.39-1.3-3.82-3.91-4.3l-.78,3.58c0,1.43.52,3.34,1.56,5.73ZM1349.04,1441.7c1.57,0,3.52-.72,5.87-2.15,2.35-1.43,4.04-2.63,5.09-3.58l-10.96,3.58-.78,1.43.78.72ZM1354.52,1333.49c-2.61.95-4.44,1.67-5.48,2.15l15.66.72c4.17,0,6.26-1.43,6.26-4.3h-10.96c-1.04,0-2.87.48-5.48,1.43ZM1350.61,1287.63c0,1.91,1.82,3.34,5.48,4.3l3.91-10.03h-7.05c-1.56,1.43-2.35,3.34-2.35,5.73ZM1357.65,1242.49l.78,1.43,1.57,1.43-3.91,10.03h.78c1.04,0,2.48-.36,4.3-1.08,1.83-.72,2.74-1.79,2.74-3.22s-.39-2.99-1.17-4.66c-.78-1.67-1.7-3.23-2.74-4.66h-1.57c-.52,0-.78.24-.78.72ZM1366.65,1267.93c-.26-1.67-1.69-2.51-4.3-2.51h-2.35v6.45l7.04,3.58v-2.87c0-1.43-.13-2.99-.39-4.66ZM1360,1309.85c0,.95,1.3,1.67,3.91,2.15,2.61.48,4.44.72,5.48.72,3.65,0,5.48-1.19,5.48-3.58h-13.31c-.52,0-1.04.24-1.56.72ZM1365.48,1388.67c-1.04,0-2.22.24-3.52.72-1.3.48-1.96,1.19-1.96,2.15v1.43l3.91,2.86h7.05l.78-2.86c0-2.87-2.09-4.3-6.26-4.3ZM1360,1551.33c0,.95,1.3,1.67,3.91,2.15,2.61.48,4.44.72,5.48.72,3.65,0,5.48-1.43,5.48-4.3h-12.52c-1.56,0-2.35.48-2.35,1.43ZM1365.48,1368.61c2.09,0,3.39.96,3.91,2.87,1.04,2.87,2.35,4.3,3.91,4.3,1.04,0,1.57-.95,1.57-2.87-1.04-1.43-2.09-3.1-3.13-5.01-1.04-1.91-2.61-2.87-4.7-2.87-1.04,0-1.83.48-2.35,1.43-.52.96-.78,1.91-.78,2.87.52-.48,1.04-.72,1.57-.72ZM1369.39,1519.09c0,.95-.52,1.91-1.56,2.87-2.61,2.39-3.91,5.01-3.91,7.88,0,1.43,1.04,2.63,3.13,3.58,2.61-4.78,3.91-9.55,3.91-14.33,0-3.34-1.3-5.25-3.91-5.73,1.56,1.91,2.35,3.82,2.35,5.73ZM1373.3,1270.43c0,2.39,1.17,3.94,3.52,4.66,2.35.72,4.56,1.08,6.65,1.08,1.57,0,3.39-.24,5.48-.72,2.09-.48,3.39-1.67,3.91-3.58-2.09.48-3.91.72-5.48.72-2.61,0-4.17-.72-4.7-2.15-1.04-2.39-3.65-4.06-7.83-5.01-1.04,1.91-1.57,3.58-1.57,5.01ZM1378,1329.91c3.13,0,4.7-1.91,4.7-5.73,0-.96-.26-2.03-.78-3.23-.52-1.19-1.3-1.79-2.35-1.79h-1.57l-3.13,2.87v7.16l3.13.72ZM1376.44,1435.96c1.04,0,1.83.48,2.35,1.43v4.3c-.52,1.91-.78,3.58-.78,5.02,0,1.91.78,2.86,2.35,2.86h1.56l3.91-5.73c0-2.39-.78-4.66-2.35-6.81-1.56-2.15-3.65-3.22-6.26-3.22-1.56,0-2.35.72-2.35,2.15h1.56ZM1388.96,1413.03l-3.13-7.17c.52.48.78.96.78,1.43,0,.95-.78,1.43-2.35,1.43-2.09.48-3.65.72-4.69.72h-1.57l3.91,10.03v-6.45h7.04ZM1389.74,1529.84c0-.95-.13-2.87-.39-5.73-.26-2.87-1.43-4.3-3.52-4.3,1.04,1.91,1.56,3.58,1.56,5.01,0,1.91-1.04,3.58-3.13,5.02-3.13,2.87-4.69,5.49-4.69,7.88,0,.95.78,1.55,2.35,1.79,1.56.24,2.87.36,3.91.36,2.61-3.34,3.91-6.69,3.91-10.03ZM1384.26,1238.91c1.04,0,2.09.24,3.13.72.52,1.43.91,2.99,1.17,4.66.26,1.67.65,3.34,1.17,5.02.52,1.67,1.56,2.51,3.13,2.51-.52-.95-.78-1.67-.78-2.15,0-1.43.78-2.63,2.35-3.58,1.56-1.43,2.35-3.1,2.35-5.02,0-.95-.52-1.55-1.56-1.79-1.04-.24-1.83-.36-2.35-.36-1.04,1.91-2.09,2.86-3.13,2.86-1.04-.95-1.96-2.63-2.74-5.01-.78-2.39-1.44-4.78-1.96-7.17-.52-2.39-1.04-3.58-1.57-3.58s-.78.48-.78,1.43c0,.48-.26.72-.78.72v10.75h2.35ZM1390.52,1155.78c1.56,1.91,3.65,2.87,6.26,2.87,1.56,0,2.87-1.19,3.91-3.58-2.61-.48-4.57-1.55-5.87-3.23s-3.26-2.99-5.87-3.94l-.78,2.15c0,1.91.78,3.82,2.35,5.73ZM1420.66,1480.75c10.7-.72,21.52-1.08,32.48-1.08h13.31c-7.31-34.39-15.65-68.43-25.05-102.11-9.39-33.68-16.96-67.72-22.7-102.11l-7.04-3.58c-2.09,35.83-5.22,71.18-9.39,106.05-4.17,34.87-8.61,69.99-13.31,105.34,10.44-.96,21-1.79,31.7-2.51ZM1395.61,1306.62c-1.3-1.67-2.22-3.22-2.74-4.66l-.78,3.58c0,.95.39,2.39,1.17,4.3.78,1.91,2.22,2.86,4.3,2.86s3.13-1.19,3.13-3.58c-2.09,0-3.78-.84-5.09-2.51ZM1396.79,1214.54h2.35c2.09.48,4.18.72,6.26.72,4.17,0,6.26-1.19,6.26-3.58h-10.96l-7.83,3.58c1.57-.48,2.87-.72,3.91-.72ZM1392.87,1227.44c0,1.91.52,3.22,1.57,3.94,1.04.72,2.35,1.19,3.91,1.43,1.57.24,2.87.72,3.91,1.43,1.04.72,1.56,1.79,1.56,3.22,0,2.39-.65,4.66-1.96,6.81-1.3,2.15-1.95,4.42-1.95,6.81,0,2.86,1.3,4.3,3.91,4.3-.52-1.91-.78-3.34-.78-4.3v-2.15c.52-.96,1.43-1.79,2.74-2.51l3.91-2.15c1.3-.72,1.96-2.03,1.96-3.94v-1.43l-7.83-7.17v-6.45h-10.96v2.15ZM1399.92,1521.95c0-1.91,1.3-3.1,3.91-3.58,2.61-.95,3.91-2.15,3.91-3.58,0-.48-.52-.84-1.56-1.07-1.04-.24-1.83-.36-2.35-.36-1.56.95-3.26,1.91-5.09,2.86-1.83.96-2.74,2.15-2.74,3.58,0,.95.52,1.67,1.56,2.15l3.13,1.43c-.52-.48-.78-.95-.78-1.43ZM1414.4,1176.92c-1.83-1.67-4.04-2.51-6.65-2.51-1.56,0-2.87,1.19-3.91,3.58,1.04,1.43,2.48,2.99,4.31,4.66,1.82,1.67,4.04,2.51,6.65,2.51,1.04,0,2.35-1.19,3.91-3.58-1.04-1.43-2.48-2.99-4.3-4.66ZM1413.22,1499.02c-1.04-1.43-2.35-2.15-3.91-2.15h-1.56v1.43c0,1.43.13,3.1.39,5.02.26,1.91,1.43,3.1,3.52,3.58l3.13-3.58c0-1.43-.52-2.87-1.57-4.3ZM1420.27,1220.63c-1.04-2.63-2.87-4.42-5.48-5.37,1.56,1.43,2.35,2.87,2.35,4.3,0,.95-.52,1.67-1.56,2.15-2.61,1.91-3.91,3.58-3.91,5.01,0,.96,1.04,1.43,3.13,1.43l3.91-2.87,3.91,2.87c-.52-2.39-1.3-4.9-2.35-7.53ZM1429.66,1302.32c2.61,11.23,6.26,22.33,10.96,33.32h3.13c1.57,0,2.35-.48,2.35-1.43s-.65-1.55-1.96-1.79c-1.3-.24-2.48-.36-3.52-.36,0-3.82-.78-7.76-2.35-11.83-1.56-4.06-2.35-8-2.35-11.82l.78-6.45c1.56-.95,3.65-2.27,6.26-3.94,2.61-1.67,3.91-3.22,3.91-4.66l-1.56-.72c-.52,0-.78-.24-.78-.72-1.57,4.78-5.22,7.17-10.96,7.17-1.04-1.43-1.96-2.99-2.74-4.66-.78-1.67-1.17-3.23-1.17-4.66,0-4.3,1.95-6.93,5.87-7.88,3.91-.95,6.91-3.1,9-6.45h-2.35c-2.61,0-4.7.72-6.26,2.15-1.57,1.43-3.65,2.15-6.26,2.15l-3.91-.72-3.13-10.03c2.09,10.99,4.44,22.09,7.05,33.32ZM1435.14,1213.83c2.61-2.39,3.91-4.3,3.91-5.73,0-1.91-1.82-2.86-5.48-2.86v2.86c0,2.87.52,4.78,1.57,5.73ZM1434.35,1232.46c0,1.43.78,2.27,2.35,2.51,1.56.24,2.87.36,3.91.36v-.72c0-2.87-1.3-5.02-3.91-6.45-1.56,1.43-2.35,2.86-2.35,4.3ZM1447.66,1547.03c0-3.34,1.3-5.49,3.91-6.45,2.61,0,5.74.48,9.39,1.43.52.48,1.3.72,2.35.72,2.09,0,3.13-1.91,3.13-5.73-4.7,0-9.65-1.19-14.87-3.58,0,1.91-.52,3.23-1.56,3.94-1.04.72-2.22,1.19-3.52,1.43-1.3.24-2.61.72-3.91,1.43-1.3.72-1.96,1.79-1.96,3.22l7.04,6.45v-2.86ZM1451.58,1223.14c0-1.43-.26-2.15-.78-2.15-1.04,0-1.83.6-2.35,1.79-.52,1.19-.78,2.03-.78,2.51l3.91,6.45v-8.6ZM1453.92,1274.73c2.09-1.91,3.13-3.82,3.13-5.73,0-2.39-1.83-3.58-5.48-3.58v2.86c0,2.87.78,5.02,2.35,6.45ZM1462.53,1289.07c.52-.48.78-1.19.78-2.15,0-1.91-1.56-3.58-4.7-5.01v2.15c0,2.86-1.04,5.49-3.13,7.88-2.61,2.87-3.91,6.21-3.91,10.03v3.58h7.04c1.57,0,3.13-.12,4.7-.36,1.57-.24,2.61-1.31,3.13-3.23l-6.26-3.58c0-2.87.78-5.97,2.35-9.32ZM1454.71,1549.18c1.04,0,2.09.24,3.13.72,2.09.48,4.17.72,6.26.72,3.65,0,5.48-.95,5.48-2.87v-.72h-10.96l-7.04,2.86c1.04-.48,2.09-.72,3.13-.72ZM1454.71,1562.8c1.04,0,2.09.24,3.13.72,2.09.48,4.17.72,6.26.72,3.65,0,5.48-1.43,5.48-4.3h-10.96l-7.04,3.58c1.04-.48,2.09-.72,3.13-.72ZM1455.88,1206.3c-.78,1.67-1.17,3.23-1.17,4.66,0,2.87,1.3,4.3,3.91,4.3-1.04-1.91-1.56-3.34-1.56-4.3s.52-1.91,1.56-2.87c2.09-.95,3.13-2.63,3.13-5.01,0-.96-1.04-1.43-3.13-1.43-1.04,1.43-1.96,2.99-2.74,4.66ZM1454.71,1397.27c0,.48.26,1.19.78,2.15,0,3.82.78,5.73,2.35,5.73,1.04,0,1.56-1.19,1.56-3.58v-2.15c-.52-3.82-1.56-5.73-3.13-5.73-1.04,0-1.56,1.19-1.56,3.58ZM1474.66,1319.16c-1.83-1.91-3.52-2.87-5.09-2.87-5.74,0-9.39,1.91-10.96,5.73h4.7c5.22,0,9.92,1.19,14.09,3.58v-1.43c0-1.43-.91-3.11-2.74-5.02ZM1464.1,1491.86c0-1.91-.26-3.34-.78-4.3-2.61,1.43-3.91,3.82-3.91,7.17,0,1.43,1.04,3.1,3.13,5.01,1.04-2.86,1.56-5.49,1.56-7.88ZM1479.75,1343.53c3.13-.95,4.69-1.91,4.69-2.86s-.52-1.43-1.56-1.43h-2.35c-1.04,1.91-2.61,2.87-4.7,2.87s-4.17-.24-6.26-.72c-2.09-.48-3.65-.96-4.69-1.43h-.78c-1.04,0-1.56.72-1.56,2.15h.78c2.09,0,3.13,1.19,3.13,3.58,0,1.43-.26,4.06-.78,7.88-.52.95-.78,1.67-.78,2.15,0,2.39,1.04,3.58,3.13,3.58h1.56l2.74-5.02c.78-1.43,1.17-3.1,1.17-5.01v-3.58c1.04-.48,3.13-1.19,6.26-2.15ZM1462.53,1365.02v11.47c0,3.82.52,5.73,1.56,5.73,1.57,0,2.35-.95,2.35-2.87v-7.88c0-2.39-.26-4.78-.78-7.17-.52,0-.78-.24-.78-.72s-.26-.72-.78-.72c-1.04,0-1.56.72-1.56,2.15ZM1480.54,1395.84c-2.61.48-5.35,1.19-8.22,2.15-2.87.95-4.83,2.63-5.87,5.02h3.13c6.79,0,10.44-2.39,10.96-7.17ZM1471.14,1263.99c2.61-2.39,3.91-4.3,3.91-5.73,0-1.91-1.83-2.86-5.48-2.86v2.86c0,2.87.52,4.78,1.57,5.73ZM1486.01,1192.33c0-.95-.78-1.79-2.35-2.51-1.56-.72-2.87-1.07-3.91-1.07s-2.35.12-3.91.36c-1.57.24-2.35.84-2.35,1.79v.72l10.96,3.58c1.04-.95,1.57-1.91,1.57-2.86ZM1485.23,1280.47c0-.96-.26-2.03-.78-3.23-.52-1.19-1.3-1.79-2.35-1.79h-1.56l-3.13,3.58v6.45l3.13.72c3.13,0,4.7-1.91,4.7-5.73ZM1486.8,1297.66c4.17-5.25,6.26-10.51,6.26-15.76,0-.95-.52-1.91-1.56-2.87-1.04,3.34-3.65,8.48-7.83,15.41-4.17,6.93-6.26,11.82-6.26,14.69,0,1.91,1.04,2.86,3.13,2.86,0-4.3,2.09-9.07,6.26-14.33ZM1487.58,1247.5c0-1.91,1.3-3.1,3.91-3.58,2.61-.95,3.91-2.15,3.91-3.58,0-.95-.52-1.43-1.57-1.43h-2.35c-1.56.95-3.26,1.91-5.09,2.86-1.82.95-2.74,2.15-2.74,3.58,0,.96.52,1.67,1.57,2.15l3.13,1.43c-.52-.48-.78-.96-.78-1.43ZM1500.89,1391.54c-1.04-1.43-2.35-2.15-3.91-2.15h-1.56v1.43c0,1.43.13,3.1.39,5.01.26,1.91,1.43,3.1,3.52,3.58l3.13-3.58c0-1.43-.52-2.86-1.56-4.3ZM1503.23,1451.73c2.61,0,4.96.72,7.05,2.15,3.65,2.87,7.57,4.3,11.74,4.3,1.04,0,2.09-.72,3.13-2.15-4.18-.95-7.96-2.63-11.35-5.01-3.39-2.39-7.18-3.58-11.35-3.58-3.65,0-6,1.91-7.04,5.73,2.61-.95,5.22-1.43,7.83-1.43ZM1495.41,1533.42v2.15c0,3.34.52,5.73,1.56,7.17,1.04,0,1.83-.72,2.35-2.15.52-1.43.78-2.39.78-2.87l-.78-4.3,3.13-6.45-7.04,6.45ZM1497.75,1476.81c0,1.43.52,2.87,1.56,4.3,1.04,1.43,2.35,2.15,3.91,2.15,2.09,0,3.13-1.19,3.13-3.58l-7.05-6.45c-1.04,1.91-1.56,3.1-1.56,3.58ZM1517.32,1542.02c2.09-.95,3.39-2.63,3.91-5.01h-10.18c-3.65,0-5.48.95-5.48,2.86l.78,3.58h3.91c2.61,0,4.96-.48,7.04-1.43ZM1539.63,1447.79c2.35-1.19,3.52-2.99,3.52-5.37v-2.87c-4.17-2.39-8.61-3.58-13.3-3.58-3.13,0-4.7,1.19-4.7,3.58h1.56c1.04,0,2.09.48,3.13,1.43.52,1.43.91,2.98,1.17,4.66.26,1.67.65,3.34,1.17,5.02s1.83,2.51,3.91,2.51c0-2.39,1.17-4.18,3.52-5.38Z"></path><path class="cls-3" d="M1663.3,1470c-2.35-76.68-6.91-153.71-13.7-231.1l-3.91-3.58-.78-32.96c0-27.23,1.56-54.22,4.7-80.97,4.7,0,12.78-.12,24.26-.36,11.48-.24,23.48-.6,36-1.07,12.52-.48,23.87-1.08,34.05-1.79,10.17-.72,16.57-1.79,19.18-3.22,8.35-.95,16.57-1.67,24.65-2.15,8.09-.48,16.57-.72,25.44-.72,6.78,0,14.87.12,24.26.36,9.39.24,18.92.95,28.57,2.15s18.79,3.1,27.39,5.73c8.61,2.63,15.26,6.33,19.96,11.11,10.44,2.87,18.66,9.08,24.65,18.63,6,9.55,11.09,18.87,15.26,27.95l3.91,3.58v4.3c0,2.39.26,4.78.78,7.17.52,4.78,1.3,8.84,2.34,12.18l3.91,2.86c-.52,9.08-.78,18.15-.78,27.23,0,10.99.52,22.22,1.56,33.68,1.04,21.02,1.56,41.56,1.56,61.63,0,22.45,1.43,44.43,4.3,65.92,2.87,21.5,4.3,43.23,4.3,65.21s1.96,44.78,5.87,67c3.91,22.22,5.87,44.55,5.87,67l-.78,11.47-3.91,3.58c0,8.12-1.17,14.57-3.52,19.35s-4.83,10.51-7.43,17.2h-3.13l-3.91,10.03-25.83,23.65h-7.04v2.87h-7.04v3.58h-7.83c-3.13,3.34-8.61,5.73-16.44,7.17-7.83,1.43-15.92,2.39-24.26,2.87-5.74.48-11.74.72-18,.72-2.61,0-5.22-.24-7.83-.72h-20.35c-18.27,0-36.27,1.31-54.01,3.94-17.74,2.63-35.74,3.94-54.01,3.94-16.18,0-31.57-1.43-46.18-4.3-5.74-77.39-9.78-154.42-12.13-231.1ZM1860.93,1247.86c-.52-7.88-2.22-15.05-5.09-21.5-2.87-6.45-6.91-11.94-12.13-16.48-5.22-4.54-12.52-6.81-21.91-6.81s-20.61.24-33.66.72c-13.04.48-24,1.91-32.87,4.3.52,56.37,3.13,112.02,7.83,166.96,4.69,54.94,7.04,110.59,7.04,166.96,0,11.47.39,23.05,1.17,34.75.78,11.7,3,23.05,6.65,34.04h46.96c7.83,0,16.05-.6,24.66-1.79,8.61-1.19,16.31-3.94,23.09-8.24,4.69-9.08,7.04-19.35,7.04-30.81,0-24.84-.91-49.8-2.74-74.88-1.82-25.08-3.91-50.16-6.26-75.24-2.34-25.08-4.43-50.16-6.26-75.24-1.83-25.08-2.74-50.28-2.74-75.6,0-6.21-.26-13.26-.78-21.14ZM1832.76,1191.61c-1.04-1.43-2.61-2.15-4.69-2.15-3.65,0-7.04,1.91-10.18,5.73l14.87-3.58ZM1871.89,1605.79c0,.48.52.72,1.56.72,1.56,0,3.78-1.31,6.65-3.94s4.3-4.9,4.3-6.81c0-.95-.26-1.67-.78-2.15l-3.91,7.17-7.04,2.87-.78,2.15Z"></path><path class="cls-3" d="M2137.22,1071.94c0,86.46.78,172.45,2.34,257.97,1.56,85.51,2.35,171.5,2.35,257.97,0,33.92-1.56,67.6-4.69,101.04-7.83,2.39-15.79,3.94-23.87,4.66-8.09.72-16.31,1.08-24.65,1.08-18.79,0-38.09-1.91-57.92-5.73-1.56-6.69-2.74-18.03-3.52-34.04-.78-16-1.17-34.28-1.17-54.82s.13-42.52.39-65.92c.26-23.41.65-45.98,1.17-67.72.52-21.74,1.04-41.56,1.56-59.47.52-17.91.78-31.65.78-41.2,0-38.7-1.43-77.39-4.3-116.09-2.87-38.69-4.3-77.39-4.3-116.08,0-12.9.78-25.56,2.35-37.98l3.91-3.58v-5.02c0-2.39.13-4.66.39-6.81.26-2.15.91-4.06,1.95-5.73,1.04-1.67,2.61-2.51,4.7-2.51h102.54Z"></path><path class="cls-3" d="M2491.79,1121.03c13.57.72,27.13,1.55,40.7,2.51-4.18,96.5-9.39,192.52-15.66,288.06-6.26,95.54-12,191.56-17.22,288.06-10.43,1.91-22.44,2.87-36,2.87-15.66,0-31.18-.95-46.57-2.87-15.39-1.91-30.65-4.06-45.79-6.45-4.69-21.5-10.43-45.86-17.22-73.09-6.78-27.23-13.57-55.06-20.35-83.48-6.78-28.42-12.79-55.89-18.01-82.41-5.21-26.51-8.61-49.56-10.17-69.15-2.61,2.39-4.04,4.9-4.3,7.53-.26,2.63-.39,5.14-.39,7.52,0,47.3-1.56,95.07-4.69,143.31-3.13,48.25-7.3,95.78-12.52,142.6-6.78,2.39-13.7,4.06-20.74,5.02-7.04.95-14.22,1.43-21.52,1.43-10.44,0-20.74-.72-30.92-2.15-10.18-1.43-19.96-3.82-29.35-7.17,3.13-63.06,6.52-125.64,10.18-187.74,3.65-62.1,7.56-124.68,11.74-187.74,1.04-12.42,1.56-25.08,1.56-37.98v-9.32c-.52-8.12-.78-16.24-.78-24.36s.26-16.24.78-24.36c0-16.24.52-32.37,1.56-48.37,1.04-16,3.65-31.41,7.83-46.22,1.04-4.78,3.39-8.12,7.04-10.03h27.4c15.65,0,31.44.36,47.35,1.07,15.91.72,31.44,3.7,46.57,8.96,1.56,3.82,4.04,12.3,7.44,25.44,3.39,13.14,6.78,27.23,10.17,42.28,3.39,15.05,6.39,29.02,9,41.92,1.56,10.51,2.34,17.92,2.34,22.22v2.15c2.61,3.82,3.91,7.88,3.91,12.18v4.3c5.22,11.46,9.26,23.53,12.13,36.19,2.87,12.66,5.48,25.44,7.83,38.34l7.04,38.69c2.35,12.9,5.61,25.32,9.79,37.26,2.6-3.34,3.91-6.69,3.91-10.03,0-17.67.13-39.65.39-65.92.26-26.27,1.04-53.03,2.34-80.26,1.3-27.23,3.13-53.51,5.48-78.83,2.34-25.32,5.61-46.34,9.78-63.06h17.22c13.57,0,27.14.36,40.7,1.07ZM2213.15,1291.22c0-2.39,1.3-4.78,3.91-7.16,2.61-2.39,3.91-5.25,3.91-8.6,0-1.91-1.04-3.34-3.13-4.3-1.04,3.34-2.61,6.33-4.69,8.96-2.09,2.63-3.13,5.61-3.13,8.96,0,2.39,1.3,4.06,3.91,5.02-.52-.95-.78-1.91-.78-2.87ZM2242.89,1415.18h-2.35c-3.65,0-6.52,2.15-8.61,6.45,5.74,0,9.39-2.15,10.96-6.45ZM2244.45,1294.8c0,2.39-.52,4.3-1.56,5.73-3.13,2.87-4.7,5.73-4.7,8.6,0,1.43.52,2.15,1.56,2.15l7.05-3.58v-20.07c-1.04-.48-1.96-.95-2.74-1.43-.78-.48-1.7-.72-2.74-.72v.72l1.56,1.43c1.04,2.87,1.56,5.25,1.56,7.17ZM2245.23,1239.62c-1.04,0-2.21.24-3.52.72s-1.96,1.19-1.96,2.15v1.43l3.13,3.58h7.82l.78-2.86c0-3.34-2.09-5.02-6.26-5.02ZM2260.11,1335.64c.52.48,1.3.72,2.35.72v-.72c-.52-.48-.78-.95-.78-1.43v-2.15c0-3.82,1.04-7.4,3.13-10.75h-3.13c-1.57,0-2.61-.24-3.13-.72-1.56-.48-3-1.31-4.3-2.51-1.3-1.19-2.61-2.27-3.91-3.23-1.3-.95-3-1.43-5.09-1.43l-5.48.72v1.43c0,5.25,2.61,7.88,7.83,7.88,2.61,0,4.7-.72,6.26-2.15l2.74,5.02c.78,1.43,1.17,3.1,1.17,5.01v2.87c1.04.48,1.82.95,2.34,1.43ZM2247.58,1428.8c-2.61,0-4.17.96-4.69,2.87,3.65.48,6.13,2.15,7.43,5.02,1.3,2.86,3.78,4.54,7.44,5.01l.78-2.86c0-6.69-3.65-10.03-10.96-10.03ZM2245.23,1448.15c0,1.91.52,3.82,1.57,5.73l3.91-6.45c0-2.39-1.3-4.3-3.91-5.73-1.04,2.87-1.57,5.02-1.57,6.45ZM2251.5,1490.42c.52,2.39,1.04,3.58,1.56,3.58l.78-.72v-6.45c0-2.39-.52-3.58-1.56-3.58s-1.57.72-1.57,2.15c0,.96.26,2.63.78,5.02ZM2257.37,1464.27c-3.91,1.19-5.87,2.51-5.87,3.94,0,.48.26.72.78.72h1.56c2.08-.95,4.04-2.03,5.87-3.22,1.82-1.19,3.52-2.51,5.09-3.94-1.04.48-3.52,1.31-7.44,2.51ZM2253.85,1539.15c-.52.95-1.04,2.03-1.56,3.22-.52,1.19-.78,2.27-.78,3.22,0,3.82,2.09,7.17,6.26,10.03l.78-5.73c0-4.3-1.56-7.88-4.69-10.75ZM2261.28,1308.05c4.96,1.67,8.74,4.9,11.35,9.68v-13.62h-2.35c-3.13,0-5.48-.72-7.04-2.15-2.61-1.91-5.74-3.34-9.39-4.3v2.15c0,3.82,2.48,6.57,7.43,8.24ZM2269.5,1285.84c-2.08.72-4.17,1.07-6.26,1.07l-6.26-.72h-1.56c0,.48.26.72.78.72s1.04.24,1.56.72c1.04,1.91,2.34,2.87,3.91,2.87,1.04,0,3.13-.48,6.26-1.43,1.04,0,1.56.72,1.56,2.15l-.78,6.45,10.96-3.58c-1.04.48-2.35.72-3.91.72-2.09,0-3.13-.96-3.13-2.87,0-.95.78-3.1,2.34-6.45v-2.15c0-1.43-.52-2.15-1.56-2.15h-.78c0,2.39-1.04,3.94-3.13,4.66ZM2257.76,1367.17v.72h7.04l3.91-2.87-7.04-7.17c-2.61,2.39-3.91,5.49-3.91,9.32ZM2269.11,1574.26c-1.3-.48-2.48-.72-3.52-.72l-2.34.72c.52.95,1.17,1.91,1.95,2.86.78.96,1.69,1.43,2.74,1.43,2.09,0,3.65-.96,4.7-2.87-1.04-.48-2.22-.95-3.52-1.43ZM2278.89,1465.34c-2.08,0-3.91-1.43-5.48-4.3-1.56-3.34-3.65-5.02-6.26-5.02-1.57,0-2.35.96-2.35,2.87h1.56c2.09,0,3.65,1.43,4.69,4.3,1.04,3.82,2.61,5.73,4.7,5.73,1.04,0,2.35-1.19,3.91-3.58h-.78ZM2265.58,1422.35c0,.95,1.17,1.79,3.52,2.51,2.35.72,4.04,1.08,5.09,1.08,3.65,0,5.48-1.43,5.48-4.3h-12.52c-.52,0-1.04.24-1.57.72ZM2270.28,1267.21c1.56.72,2.87,1.07,3.91,1.07s2.21-.24,3.52-.72,1.96-1.43,1.96-2.87v-.72c-2.09-1.91-4.7-2.87-7.83-2.87h-3.13l-.78,2.87c0,1.43.78,2.51,2.35,3.22ZM2281.24,1441.7c0-.95-.52-2.75-1.56-5.37-1.04-2.63-2.61-3.94-4.7-3.94-1.56,0-2.34.95-2.34,2.86l7.04,10.03c1.04-.96,1.56-2.15,1.56-3.58ZM2279.68,1486.48c1.56-2.15,2.35-3.94,2.35-5.38s-1.04-2.15-3.13-2.15h-2.34v2.87l-3.91,7.17,1.56.72c2.08,0,3.91-1.07,5.48-3.22ZM2285.93,1332.78c-.52,0-.78-.24-.78-.72-1.04-.96-1.56-2.39-1.56-4.3,0-1.43-.13-2.87-.39-4.3-.26-1.43-1.17-2.15-2.74-2.15h-.78c-1.56,2.39-3,4.78-4.3,7.17-1.3,2.39-1.96,4.78-1.96,7.16,0,3.34,1.17,5.73,3.52,7.17,2.35,1.43,5.09,2.15,8.22,2.15h2.35v-2.15c0-3.34,1.04-7.17,3.13-11.47-2.09.95-3.65,1.43-4.7,1.43ZM2276.55,1333.49v-2.15c4.69,1.43,7.04,4.78,7.04,10.03-4.7-1.91-7.04-4.54-7.04-7.88ZM2283.59,1401.57v-6.45c0-2.39-.39-4.66-1.17-6.81-.78-2.15-2.74-3.23-5.87-3.23v2.87c0,6.69,2.34,11.23,7.04,13.62ZM2283.98,1546.68c.26,1.67.65,2.51,1.17,2.51s.78-1.43.78-4.3v-5.02c0-1.43-.13-3.94-.39-7.52-.26-3.58-1.69-5.38-4.3-5.38-1.56,0-3.13.72-4.69,2.15l7.04,2.87v10.03c0,1.43.13,2.99.39,4.66ZM2283.59,1242.49c-.52,2.86-.78,4.78-.78,5.73s.13,2.15.39,3.58c.26,1.43.91,2.15,1.96,2.15,1.56,0,2.35-.95,2.35-2.86,0-.96-.26-3.34-.78-7.17s-1.04-5.73-1.56-5.73-1.04,1.43-1.56,4.3ZM2287.11,1413.75c2.35,1.43,4.83,2.86,7.44,4.3-1.56-1.91-2.35-3.82-2.35-5.73s.26-3.82.78-5.73c.52-.96.78-1.91.78-2.87v-2.15c-.52-1.43-1.56-2.63-3.13-3.58l-7.04,7.17v1.43c0,3.34,1.17,5.73,3.52,7.17ZM2292.98,1226.72c-1.04,0-2.22.24-3.52.72s-1.95,1.19-1.95,2.15v1.43l3.13,2.87h7.83l.78-2.87c0-2.86-2.08-4.3-6.26-4.3ZM2290.24,1285.48c-.26,2.87-.39,4.78-.39,5.73,0,.48.13,1.67.39,3.58.26,1.91.91,2.86,1.95,2.86,1.56,0,2.35-1.19,2.35-3.58,0-.95-.26-3.34-.78-7.17-.52-3.82-1.04-5.73-1.56-5.73-1.04,0-1.69,1.43-1.95,4.3ZM2294.55,1323.46c2.08,0,3.65.95,4.69,2.87,1.56,3.34,3.65,5.01,6.26,5.01,1.04,0,2.35-1.19,3.91-3.58-2.09,0-3.78-.72-5.09-2.15-1.3-1.43-2.22-2.87-2.74-4.3l-2.35,2.15h-.78c0-.48.26-1.31.78-2.51.52-1.19,1.04-2.51,1.56-3.94.52-1.43.78-2.87.78-4.3,0-.95-.52-1.43-1.56-1.43-1.56,0-3.26.36-5.09,1.07-1.82.72-3.26,1.31-4.3,1.79v10.03c1.56-.48,2.87-.72,3.91-.72ZM2297.68,1389.39c0-1.43.26-2.86.78-4.3.52-3.34.78-6.69.78-10.03,0-1.91-.26-3.82-.78-5.73-.52-1.91-1.83-3.34-3.91-4.3-.52,2.87-1.17,5.61-1.96,8.24-.78,2.63-1.17,5.37-1.17,8.24,0,5.73,2.34,10.27,7.04,13.62-.52-1.91-.78-3.82-.78-5.73ZM2312.94,1267.21c-1.82.24-3.52.36-5.08.36h-6.26c-1.56-3.82-3.91-7.17-7.04-10.03.52.95.78,1.91.78,2.86s-.26,1.91-.78,2.87c-.52,1.91-.78,3.82-.78,5.73,0,3.34,1.56,5.02,4.7,5.02v-3.58c-.52,0-.78-.24-.78-.72,0-.95.52-1.43,1.56-1.43,2.61,0,4.83.6,6.65,1.79,1.83,1.19,4.04,1.79,6.65,1.79l3.91-.72,7.04,10.03h-1.56c-2.61,0-4.56-.72-5.87-2.15-1.3-1.43-3.26-2.15-5.87-2.15l-4.69.72v2.87c0,1.91.78,3.1,2.35,3.58,1.56.48,3.13.72,4.69.72,2.61,0,5.22-.24,7.83-.72,1.04-.48,2.08-.72,3.13-.72,1.56,0,2.87.24,3.91.72l-3.91-10.03c-2.61,0-3.91-1.19-3.91-3.58,0-.48.26-.96.78-1.43v-.72c0-2.39-1.3-3.82-3.91-4.3-.52,1.91-1.69,2.98-3.52,3.22ZM2302.37,1341.38h3.13l3.91,6.45v-2.86c0-7.17-3.91-10.75-11.74-10.75h-3.13v1.43c0,3.82,2.61,5.73,7.83,5.73ZM2304.72,1358.57c0,.95.39,2.27,1.17,3.94.78,1.67,1.96,2.51,3.52,2.51,2.08,0,3.13-1.19,3.13-3.58l-7.04-6.45c-.52.95-.78,2.15-.78,3.58ZM2310.98,1189.46c2.61-2.39,3.91-4.3,3.91-5.73,0-2.39-1.82-3.58-5.48-3.58v2.86c0,3.34.52,5.49,1.56,6.45ZM2319.2,1302.32c3.91-.24,6.65-1.79,8.22-4.66h-7.04c-2.61,0-5.09.36-7.44,1.08-2.34.72-3.52,2.51-3.52,5.37,2.61-.95,5.87-1.55,9.78-1.79ZM2331.33,1423.07c0,2.87.52,4.3,1.56,4.3s1.56-.48,1.56-1.43v-2.15c0-3.82-1.17-6.81-3.52-8.96-2.35-2.15-3.52-4.9-3.52-8.24v-1.43c4.17,0,7.17,2.15,9,6.45,1.82,4.3,4.82,6.45,9,6.45,1.57,0,2.87-.96,3.91-2.87-7.82-2.87-13.04-5.85-15.65-8.96-2.61-3.1-6-8-10.18-14.69-1.04,1.91-1.82,2.87-2.35,2.87-1.04-.48-1.95-1.43-2.74-2.87-.78-1.43-1.69-2.86-2.74-4.3-1.04-1.43-2.08-2.15-3.13-2.15v-5.73c0-2.39-.52-3.58-1.56-3.58s-1.56.48-1.56,1.43v2.15c0,2.39.65,4.3,1.95,5.73,1.3,1.43,1.96,3.11,1.96,5.02l-.78,5.02h2.35c3.13,0,5.48.72,7.04,2.15,2.09,2.39,3.91,5.01,5.48,7.88l-10.96-3.58c0,2.86.65,4.9,1.95,6.09,1.3,1.19,2.74,2.03,4.31,2.51,1.56.48,2.87.84,3.91,1.08,1.04.24,1.56.84,1.56,1.79l-.78,2.15-7.04,2.87h10.96v5.01ZM2315.68,1251.45c-1.56.24-2.6,1.07-3.13,2.51h6.26c1.04.96,1.95,2.15,2.74,3.58.78,1.43,1.43,2.75,1.95,3.94.52,1.19,1.83,2.03,3.91,2.51v-12.9h-7.83c-1.04,0-2.34.12-3.91.36ZM2318.03,1314.86c-2.61,0-4.43,2.15-5.48,6.45l6.26.72c2.61,0,6.39-.72,11.35-2.15,4.96-1.43,7.44-3.82,7.44-7.17,0-1.43-.78-2.51-2.35-3.22l-3.91-1.79c0,5.25-2.61,8.6-7.83,10.03-2.08-1.91-3.91-2.87-5.48-2.87ZM2333.68,1347.83v-.72c-.52-.96-.91-2.15-1.17-3.58-.26-1.43-.39-3.1-.39-5.01,0-1.43.78-2.87,2.34-4.3-1.56,0-3.13-.48-4.69-1.43-1.56-.95-2.35-2.15-2.35-3.58v-1.43l10.96,3.58v-1.43c0-3.34-1.3-5.02-3.91-5.02-3.13,0-6.78.95-10.96,2.87h-3.13v6.45h-3.91l10.96,7.16,3.91,10.03c1.56-1.43,2.35-2.63,2.35-3.58ZM2326.24,1362.52c-1.3-1.67-2.21-3.22-2.74-4.66-.52.96-1.04,2.03-1.56,3.23-.52,1.19-.78,2.27-.78,3.22s.78,2.15,2.35,3.58l7.83-2.87c-2.09,0-3.78-.84-5.09-2.51ZM2325.85,1291.22c-1.56.48-2.35,1.43-2.35,2.87,4.17,0,7.44.95,9.78,2.87,2.35,1.91,5.35,3.34,9,4.3v-7.17l3.13-2.87-15.65-.72c-1.04,0-2.35.24-3.91.72ZM2331.33,1458.18c3.13,4.3,7.04,6.45,11.74,6.45,2.08,0,4.17-.95,6.26-2.86-2.61-1.91-4.95-3.46-7.04-4.66-2.08-1.19-3.91-2.39-5.48-3.58-1.56-1.19-3-2.63-4.3-4.3-1.3-1.67-3-4.18-5.09-7.53l-.78,4.3c0,3.82,1.56,7.88,4.69,12.18ZM2337.6,1246.07c-.52.48-1.04.72-1.57.72s-.78-.24-.78-.72c-1.04,0-1.82-.24-2.35-.72h-.78c-.52,0-.78.72-.78,2.15,1.04.48,2.35,1.19,3.91,2.15,1.56.96,2.35,1.91,2.35,2.87,0,2.39-.39,4.42-1.17,6.09-.78,1.67-1.43,3.46-1.96,5.38,2.09-.48,4.17-.72,6.26-.72,3.13,0,5.74.72,7.83,2.15,3.65,2.39,7.56,3.58,11.74,3.58,2.09,0,3.39-.48,3.91-1.43l-3.91-6.45h-18l-.78-2.87c0-1.43.26-4.3.78-8.6v-1.43c0-2.87-1.04-4.3-3.13-4.3h-.78c0,1.43-.26,2.15-.78,2.15ZM2338.38,1355.71c-2.08.48-4.43,1.19-7.04,2.15l7.04,2.87c4.7,0,7.04-1.91,7.04-5.73-2.61,0-4.95.24-7.04.72ZM2350.9,1283.33c0-1.91-.52-3.1-1.56-3.58-1.04-.48-2.34-.95-3.91-1.43-1.56-.48-3-.96-4.3-1.43s-2.21-1.43-2.74-2.86l10.96-2.87h-14.87v12.9c4.7,0,9.65,1.19,14.87,3.58,1.04-1.91,1.56-3.34,1.56-4.3ZM2343.08,1403c1.56,0,2.61.48,3.13,1.43,1.56,2.39,3.39,3.58,5.48,3.58,1.04,0,1.56-.95,1.56-2.86-2.08-1.43-4.3-3.46-6.65-6.09-2.34-2.63-4.82-3.94-7.43-3.94-2.09,0-3.65.95-4.7,2.86l3.91,7.17c2.09-1.43,3.65-2.15,4.7-2.15ZM2343.47,1430.95c2.87-2.39,4.83-5.49,5.87-9.31h-1.56c-6.26,0-9.39,2.86-9.39,8.6v1.43l-3.91,6.45c3.13-2.39,6.13-4.78,9-7.17ZM2339.94,1371.47c1.57,0,2.61.24,3.13.72.52.95.91,2.15,1.17,3.58.26,1.43.78,2.75,1.56,3.94.78,1.19,1.95,1.79,3.52,1.79l.78-2.87c0-1.91-.52-4.18-1.56-6.81-1.04-2.63-2.87-3.94-5.48-3.94-2.09,0-3.65,1.19-4.7,3.58h1.56ZM2341.51,1512.64l3.91-.72c0-2.39-.52-4.9-1.56-7.53-1.04-2.63-2.87-4.42-5.48-5.37v8.6c0,3.34,1.04,5.01,3.13,5.01ZM2353.64,1437.04c-1.82.24-3.52.6-5.08,1.08s-2.87,1.43-3.91,2.87c-1.04,1.43-1.83,3.82-2.35,7.16,1.56-.95,3.91-1.55,7.04-1.79,3.13-.24,6.52-.6,10.18-1.07,3.65-.48,6.78-.96,9.39-1.43,2.61-.48,3.91-1.43,3.91-2.86,0-.96-.52-1.91-1.57-2.87h-3.91c1.04-3.82,3.13-6.21,6.26-7.17,3.13-.95,4.7-3.34,4.7-7.16v-2.15c-1.04-.95-2.61-2.27-4.7-3.94-2.08-1.67-4.17-2.51-6.26-2.51s-3.13.95-3.13,2.87c3.65,1.43,7.31,3.82,10.96,7.16-4.69,2.39-7.82,5.73-9.39,10.03-1.56,4.3-4.17,6.45-7.82,6.45h-1.56l3.91-6.45c-2.61.96-4.82,1.55-6.65,1.79ZM2344.64,1323.46c0,.48.26,1.91.78,4.3.52,2.39,1.3,3.58,2.35,3.58.52,0,.91-.48,1.17-1.43.26-.95.39-1.67.39-2.15,0-1.43.13-2.99.39-4.66.26-1.67,1.17-2.99,2.74-3.94,1.56,0,3,.6,4.3,1.79l3.52,3.23c-1.04-1.91-1.56-3.82-1.56-5.73v-3.58c0-1.43-.78-2.63-2.34-3.58l-7.05,2.86h-3.91l3.91,3.58-4.69,5.73ZM2347.77,1499.02c4.17,0,6.26-2.15,6.26-6.45l-.78-3.58-7.83,10.03h2.35ZM2362.25,1385.45c-.78-2.63-1.43-5.14-1.96-7.52l7.05-2.87h-10.96l-3.13-10.03-.78,5.02c0,3.82,1.04,6.93,3.13,9.31,2.08,2.39,3.65,5.25,4.69,8.6h-1.56c-2.61,0-4.69-.72-6.26-2.15-.52-.48-1.04-.72-1.57-.72-1.04,0-1.56,1.43-1.56,4.3v2.15h7.05l3.91,10.03,3.13-7.88c0-2.86-.39-5.61-1.17-8.24ZM2351.68,1529.12v1.43c0,1.43-.78,3.1-2.35,5.01,2.61-.48,5.48-1.07,8.61-1.79,3.13-.72,5.22-2.27,6.26-4.66l-10.96-3.58c0-.96-.13-2.03-.39-3.22-.26-1.19-.91-1.79-1.96-1.79-.52,0-.78.24-.78.72s-.26.72-.78.72c0,3.34.78,5.73,2.35,7.16ZM2368.12,1570.68c2.61-.95,3.91-2.63,3.91-5.01l-.78-3.58-21.91-10.03v2.15c0,3.82.52,6.21,1.56,7.17,1.04.95,2.35,1.67,3.91,2.15l4.7,1.43c1.56.48,3.13,1.91,4.69,4.3-1.04.95-1.82,2.39-2.34,4.3-.52.48-.78.95-.78,1.43s.52.72,1.56.72h1.56c0-2.39,1.3-4.06,3.91-5.02ZM2374.38,1291.93c-1.04,0-2.61.36-4.7,1.08-2.08.72-3.91,1.31-5.48,1.79s-2.87.72-3.91.72c-.52,0-1.04-.24-1.56-.72-1.56,0-2.34-1.19-2.34-3.58l-3.13-3.58-.78,14.33c0,3.82,1.3,5.73,3.91,5.73-.52-2.39-.78-4.78-.78-7.17,0-1.91,1.56-2.87,4.69-2.87,2.09,0,5.22.48,9.39,1.43,1.04.48,2.09.72,3.13.72,2.08,0,3.13-.95,3.13-2.86l-.78-2.87c0-1.43-.26-2.15-.78-2.15ZM2360.29,1451.73c0-1.91-.52-2.86-1.56-2.86s-1.82,1.07-2.34,3.22c-.52,2.15-.78,3.46-.78,3.94l.78,22.93c2.08-1.43,3.91-2.15,5.48-2.15h1.56c1.56.48,3,1.19,4.3,2.15,1.3.96,2.35,2.03,3.13,3.23.78,1.19,1.69,1.79,2.74,1.79s1.56-.72,1.56-2.15c-1.04-5.25-3.78-9.91-8.22-13.97-4.43-4.06-6.65-8.24-6.65-12.54v-3.58ZM2376.73,1307.7c-4.7,0-7.44,1.43-8.22,4.3-.78,2.87-1.17,5.97-1.17,9.32v6.45l-10.96,3.58h2.34c3.65,0,7.83.95,12.52,2.87,1.57-1.43,2.35-3.1,2.35-5.02,0-.95-.26-2.86-.78-5.73-.52-1.43-.78-2.39-.78-2.87,0-.95.26-1.43.78-1.43,1.04,0,1.95.24,2.74.72.78.48,1.69.95,2.74,1.43v-13.61h-1.56ZM2368.12,1519.8c0-3.34-1.82-5.02-5.48-5.02-1.04,0-2.35.24-3.91.72-1.56.48-2.34,1.43-2.34,2.86v.72l3.91,2.87h7.05l.78-2.15ZM2364.21,1591.46c0,2.39,2.09,3.58,6.26,3.58h.78c0-.96-.52-1.55-1.56-1.79-1.04-.24-1.82-.36-2.34-.36v-1.43c0-.95-.26-1.91-.78-2.86-1.56-1.43-3.13-2.15-4.69-2.15-3.65,0-5.48.95-5.48,2.86,0,1.43,1.3,2.63,3.91,3.58l3.91-3.58v2.15ZM2360.29,1247.5c0,5.26,2.35,8.6,7.05,10.03v-2.15c0-3.34-2.35-5.97-7.05-7.88ZM2368.9,1406.58c3.65.95,6.78,1.43,9.39,1.43,1.04,0,2.48-.12,4.3-.36,1.82-.24,2.74-1.08,2.74-2.51s-1.04-2.63-3.13-3.58v1.43c0,.48-.26.72-.78.72l-.78.72c-1.04,0-1.82-.24-2.34-.72-1.56-.48-3-.95-4.3-1.43-1.3-.48-2.22-.72-2.74-.72,1.04,0,2.48-.12,4.31-.36,1.82-.24,2.74-1.08,2.74-2.51v-.72h-14.09l-.78,2.87c0,2.86,1.82,4.78,5.48,5.73ZM2389.25,1373.98c1.04-.24,1.56-.84,1.56-1.79,0-3.82-1.56-5.73-4.7-5.73-1.56,0-2.87.84-3.91,2.51-1.04,1.67-2.87,2.51-5.48,2.51h-1.57l-7.82-6.45-3.13-7.17v13.62c1.04-.48,2.09-.72,3.13-.72,2.61,0,4.17.95,4.69,2.87.52,2.87,2.61,4.3,6.26,4.3l7.82-3.58c1.04,0,2.09-.12,3.13-.36ZM2376.34,1509.06c3.91-1.43,5.87-3.34,5.87-5.73,0-1.43-1.3-2.87-3.91-4.3-.52.95-1.04,2.27-1.56,3.94-.52,1.67-1.57,2.51-3.13,2.51-2.08,0-3.65-2.03-4.69-6.09-1.04-4.06-2.09-6.09-3.13-6.09s-1.56.72-1.56,2.15c1.56,1.91,2.35,4.06,2.35,6.45,0,.96-.26,1.91-.78,2.87-.52,1.43-.78,2.63-.78,3.58,0,1.91.78,3.1,2.35,3.58,2.08-.48,5.08-1.43,9-2.87ZM2377.12,1345.68c2.87-1.43,4.3-3.1,4.3-5.01,0-2.87-1.04-5.02-3.13-6.45-.52,3.34-2.22,5.73-5.09,7.16-2.87,1.43-4.83,3.58-5.87,6.45h3.13c1.56,0,3.78-.72,6.65-2.15ZM2375.95,1463.19c-.52-1.43-1.04-2.99-1.56-4.66-.52-1.67-.91-3.34-1.17-5.01-.26-1.67-.65-2.51-1.17-2.51-1.04,0-1.95.48-2.74,1.43-.78.95-1.43,1.91-1.95,2.87,2.61,0,4.3,2.15,5.08,6.45.78,4.3,1.96,6.45,3.52,6.45s2.35-.96,2.35-2.87c-1.04,0-1.83-.72-2.35-2.15ZM2374.38,1362.87l.78.72c1.57,0,3.52-.72,5.87-2.15,2.34-1.43,4.04-2.63,5.08-3.58l-10.96,3.58-.78,1.43ZM2382.21,1612.96c0-5.25-2.35-8.6-7.05-10.03,0,5.25,2.35,8.6,7.05,10.03ZM2386.12,1395.12c0-5.26-2.6-8.6-7.82-10.03,0,5.26,2.61,8.6,7.82,10.03ZM2383.78,1563.16c1.56,1.67,3.39,2.51,5.48,2.51,2.61,0,3.91-1.19,3.91-3.58h-1.56c-2.09,0-3.65-.48-4.7-1.43-2.09-1.43-3.65-3.1-4.69-5.01l-.78,2.15c0,1.91.78,3.7,2.35,5.37ZM2393.95,1496.16l-.78-4.3,6.26-2.86c3.13-1.43,4.7-2.87,4.7-4.3,0-.96-1.04-1.91-3.13-2.87l-1.56,1.43-.78.72c-.52,0-.78-.24-.78-.72,0-1.43.52-3.58,1.56-6.45.52-.48.78-.95.78-1.43,0-1.91-1.04-3.1-3.13-3.58-1.04,0-2.22.12-3.52.36-1.3.24-1.95.84-1.95,1.79s.78,1.55,2.34,1.79c1.56.24,2.35.84,2.35,1.79,0,1.43-1.04,2.75-3.13,3.94-2.09,1.19-3.39,2.51-3.91,3.94l3.91,6.45c-1.56.95-3.26,1.91-5.09,2.87-1.82.96-2.74,2.39-2.74,4.3l.78,2.86h1.57c4.17,0,6.26-1.91,6.26-5.73ZM2396.69,1519.45c1.83-1.19,2.74-2.51,2.74-3.94,0-.95-.52-1.79-1.56-2.51-1.04-.72-2.08-1.07-3.13-1.07-1.56,0-3.52.36-5.87,1.07-2.34.72-3.52,2.27-3.52,4.66,0,.95.78,1.79,2.35,2.51,1.56.72,2.87,1.07,3.91,1.07,1.56,0,3.26-.6,5.08-1.79ZM2392.38,1429.16c-1.04-2.63-2.08-5.14-3.13-7.52v13.61h3.91l.78,2.15v-.72c0-2.39-.52-4.9-1.56-7.53ZM2394.73,1402.29c.52,5.25,1.3,8.36,2.35,9.32-.52,1.43-.78,4.06-.78,7.88s1.3,5.73,3.91,5.73h.78l3.13-7.16c0-3.82-1.17-7.64-3.52-11.47s-3.52-7.64-3.52-11.46l-3.91-3.58c.52,1.91,1.04,5.49,1.56,10.75ZM2407.26,1511.21c.52,0,.78-.48.78-1.43v-.72l-7.05-7.17-7.82,7.17h10.96c1.56,1.43,2.61,2.15,3.13,2.15ZM2397.86,1564.23c.52,2.39,1.3,3.58,2.35,3.58l.78-.72v-1.43c0-.95-.26-2.63-.78-5.02-.52-2.39-1.3-3.58-2.35-3.58-.52,0-.78.48-.78,1.43v.72c0,.95.26,2.63.78,5.01ZM2397.08,1579.28v20.07h.78c3.65,0,5.48-1.67,5.48-5.02s-.52-5.73-1.56-7.17c1.04,0,2.22.84,3.52,2.51,1.3,1.67,2.21,2.75,2.74,3.23v-13.62h-10.96ZM2406.08,1471.08c1.3,1.43,2.87,2.75,4.7,3.94,1.82,1.19,3.91,2.15,6.26,2.87,2.35.72,4.3,2.03,5.87,3.94l.78-2.15c0-3.34-1.82-5.02-5.48-5.02-4.17,0-6.26-1.43-6.26-4.3v-8.6h-7.83v2.15c0,3.34.65,5.73,1.95,7.16ZM2411.95,1501.17l-.78.72c0,.96.52,1.43,1.56,1.43.52,0,1.3-.48,2.35-1.43l.78-.72c0-.95-.52-1.55-1.56-1.79-1.04-.24-1.82-.36-2.34-.36-.52-.48-.91-1.08-1.17-1.79-.26-.72-.65-1.08-1.17-1.08-1.04,0-1.56.95-1.56,2.87h3.91v2.15ZM2429.17,1518.73c1.04,1.19,2.09,1.79,3.13,1.79s1.56-.48,1.56-1.43c-2.61-.48-4.17-1.79-4.7-3.94-.52-2.15-2.08-3.22-4.69-3.22h-1.56c-2.61,1.91-4.7,4.06-6.26,6.45l-4.69,7.17c2.08.95,3.91,1.43,5.48,1.43,3.13,0,4.69-1.67,4.69-5.01s1.3-5.49,3.91-6.45c1.04.95,2.08,2.03,3.13,3.22ZM2426.04,1455.31v-1.43c0-3.82-2.35-6.69-7.04-8.6,0-.96-.13-3.34-.39-7.17-.26-3.82-.91-5.73-1.95-5.73-.52,0-.78.48-.78,1.43,0,.48-.26.95-.78,1.43v16.48c3.65,0,7.3,1.19,10.96,3.58ZM2426.83,1397.27c0,1.91-1.3,3.34-3.91,4.3-3.13,1.43-4.7,3.34-4.7,5.73,0,.95.52,1.79,1.56,2.51,1.04.72,2.09,1.31,3.13,1.79v-2.15c0-1.91,1.04-3.34,3.13-4.3,3.13-1.43,4.69-3.34,4.69-5.73,0-.96-.52-1.79-1.56-2.51-1.04-.72-2.08-1.31-3.13-1.79.52.48.78,1.19.78,2.15ZM2422.52,1359.65c-.78,3.1-1.17,5.13-1.17,6.09s.13,2.15.39,3.58c.26,1.43.91,2.15,1.95,2.15s1.69-.48,1.96-1.43c.26-.96.39-1.67.39-2.15,0-1.43-.13-3.94-.39-7.53-.26-3.58-.65-5.37-1.17-5.37s-1.17,1.55-1.96,4.66ZM2440.91,1373.62c-1.56-.48-2.87-.72-3.91-.72-2.08,0-4.17.24-6.26.72-2.08.48-3.13,1.91-3.13,4.3,0,.95.78,2.15,2.35,3.58v-.72c0-1.91,1.3-2.86,3.91-2.86,1.04,0,3.13.24,6.26.72h1.57c2.08,0,3.13-.72,3.13-2.15v-1.43c-1.04-.48-2.35-.95-3.91-1.43ZM2434.26,1339.23c-2.35.96-3.78,2.87-4.3,5.73,2.61-.96,4.43-1.43,5.48-1.43h.78c1.04.48,1.96,1.31,2.74,2.51.78,1.19,1.56,2.27,2.34,3.23.78.95,1.96,1.67,3.52,2.15v-2.15c0-3.34,1.04-7.17,3.13-11.47h-6.26c-2.61,0-5.09.48-7.44,1.43ZM2440.13,1550.62c0-1.91-1.3-3.58-3.91-5.02-2.6-1.43-4.69-2.63-6.26-3.58v2.87c0,2.39.39,4.66,1.17,6.81.78,2.15,2.74,3.46,5.87,3.94,2.09-1.91,3.13-3.58,3.13-5.02ZM2440.91,1497.59c2.61,0,5.35-1.91,8.22-5.73s4.3-6.93,4.3-9.31c0-.96-.52-1.43-1.56-1.43s-2.22.48-3.52,1.43c-1.3.95-2.47,1.91-3.52,2.86l3.13,6.45-10.96,3.58c.52,1.43,1.82,2.15,3.91,2.15ZM2447.18,1430.59c2.6-2.15,3.91-4.42,3.91-6.81,0-1.43-1.04-2.15-3.13-2.15v1.43c0,1.91-1.3,3.34-3.91,4.3-4.17,1.91-6.26,3.82-6.26,5.73,0,1.43,1.04,2.15,3.13,2.15,1.56-.95,3.65-2.51,6.26-4.66ZM2453.43,1464.63c0-4.3-2.61-6.45-7.83-6.45-3.13,0-4.69,1.19-4.69,3.58h1.56c2.09,0,3.65.72,4.7,2.15,1.04,1.91,2.6,3.58,4.69,5.01,1.04-1.91,1.56-3.34,1.56-4.3ZM2451.87,1321.31v.72c0,1.91-1.56,3.58-4.69,5.01-3.65,1.43-5.48,3.1-5.48,5.02,0,1.43,1.04,2.15,3.13,2.15,3.13-1.91,6.26-2.87,9.39-2.87h1.56v-7.16l-3.91-2.87ZM2454.61,1378.28c-.26-2.63-1.69-3.94-4.3-3.94l-2.35.72v6.45l7.83,3.58c-.52-1.91-.91-4.18-1.17-6.81ZM2462.83,1468.93v16.48l.78.72c1.04,0,1.82-2.63,2.34-7.88.52-5.25.78-8.36.78-9.32l3.13-3.58-7.04,3.58ZM2469.87,1499.74c0,1.43.52,2.15,1.56,2.15,1.57,0,2.74-1.55,3.52-4.66.78-3.11,1.17-5.14,1.17-6.09v-.72c0-.48-.26-.95-.78-1.43-1.04,0-1.56.96-1.56,2.86-2.61.95-3.91,2.63-3.91,5.02v2.86ZM2491.01,1516.22c-.52-2.86-1.3-4.3-2.35-4.3-1.56,0-2.87,1.19-3.91,3.58l7.05,6.45c0-.95-.26-2.87-.78-5.73Z"></path><path class="cls-3" d="M2763.39,1503.32h-.78c-4.69.48-8.87.72-12.52.72-5.22,0-10.43-.72-15.65-2.15-3.13-.95-6.26-1.43-9.39-1.43-2.09,0-4.17.24-6.26.72l-.78-12.9c0-13.38,1.04-26.51,3.13-39.41,1.04-10.03,1.56-20.07,1.56-30.1v-8.6l24.26-.72c20.35,0,40.7.72,61.05,2.15,20.35,1.43,40.44,2.15,60.27,2.15,3.65,0,7.04.12,10.17.36,3.13.24,6,1.32,8.61,3.23-1.04,25.8-1.82,51.59-2.34,77.39-.52,15.29-.78,30.57-.78,45.86v30.81l-3.91,3.58v17.2c.52,5.73.78,11.47.78,17.2,0,5.25-.78,11.35-2.35,18.27-1.56,6.93-3.39,12.78-5.48,17.56-6.78,4.78-12.13,10.39-16.05,16.84-3.91,6.45-9.52,12.06-16.83,16.84-8.35,5.73-18.14,10.03-29.35,12.9-11.22,2.87-22.83,5.02-34.83,6.45-12,1.43-24,2.15-36,2.15h-56.36c-7.83,0-15.39-.48-22.7-1.43l-3.91-3.58c-5.21-.48-10.3-.84-15.26-1.08-4.96-.24-9.78-1.07-14.48-2.51l-3.13-2.86c-14.09-1.91-25.57-8.6-34.44-20.07-8.87-11.46-15.66-24.72-20.35-39.77-4.7-15.05-7.83-30.33-9.39-45.86-1.56-15.53-2.35-28.3-2.35-38.34,0-15.29,1.04-29.98,3.13-44.07,2.09-14.09,3.65-28.54,4.7-43.35,2.08-46.82,3.52-93.28,4.3-139.37.78-46.1,1.17-92.56,1.17-139.38,0-4.3.13-8.72.39-13.26.26-4.54.65-8.96,1.17-13.26l3.91-2.87c0-8.12,1.3-14.57,3.91-19.35,2.61-4.78,4.95-10.75,7.04-17.92l7.04-2.86v-7.17c4.7-5.25,11.35-10.39,19.96-15.41,8.61-5.02,16.57-8.72,23.87-11.11l7.82-6.45h7.05c6.78-5.25,14.48-8.12,23.09-8.6,8.61-.48,17.35-.72,26.22-.72,4.17,0,12,.24,23.48.72,11.48.48,23.35,1.19,35.62,2.15,12.26.95,23.48,2.27,33.65,3.94,10.18,1.67,16.57,3.46,19.18,5.38h3.91l10.96,3.58,3.13,3.58c13.05,4.3,23.09,9.68,30.13,16.12,7.04,6.45,15.26,14.45,24.65,24.01v6.45c1.57,1.43,3,4.3,4.31,8.6,1.3,4.3,2.34,9.08,3.13,14.33.78,5.25,1.43,10.39,1.95,15.4.52,5.02.78,8.72.78,11.11,0,18.15-.65,37.38-1.96,57.68-1.3,20.3-4.04,39.29-8.22,56.97h-7.82c-12,0-24.13-.48-36.4-1.43-12.26-.95-24.65-1.43-37.18-1.43-3.65,0-7.3-.24-10.96-.72-3.65-.48-7.04-1.43-10.17-2.87-2.09-7.16-3.13-15.05-3.13-23.65,0-10.03.65-20.07,1.96-30.1,1.3-10.03,1.95-20.06,1.95-30.1,0-15.76-3.39-26.75-10.17-32.96-6.78-6.21-19.31-9.31-37.57-9.31-7.83,0-15.92.72-24.26,2.15-8.35,1.43-16.18,3.58-23.48,6.45-6.26,10.51-9.39,21.5-9.39,32.96,0,1.91.26,3.82.78,5.73,1.04,13.85,1.56,27.71,1.56,41.56,0,10.03-.52,20.18-1.56,30.45-1.04,10.27-1.82,20.42-2.34,30.46-2.61,42.04-3.91,84.08-3.91,126.12,0,4.3.26,8.6.78,12.9v12.9c0,42.04-1.3,84.08-3.91,126.12l7.05,10.03c9.91,3.34,18.65,6.33,26.22,8.96,7.57,2.63,16.83,3.94,27.79,3.94,3.13,0,6.26-.24,9.39-.72,3.13-.48,6.26-1.19,9.39-2.15l8.61-1.43c.52,0,1.3.24,2.34.72v.72c1.57-.48,2.35-1.19,2.35-2.15,0-.48-.26-.95-.78-1.43-1.04-.96-1.57-2.15-1.57-3.58l3.91-2.86,3.91-17.2c2.61-1.91,4.04-4.78,4.3-8.6.26-3.82.39-6.93.39-9.31,0-9.08-.26-17.92-.78-26.51-.52-5.25-.78-10.51-.78-15.76v-10.03c-2.61-2.87-6-4.3-10.18-4.3ZM2642.07,1551.33c1.57-1.43,4.18-3.11,7.83-5.02,3.65-1.91,5.48-4.06,5.48-6.45l-2.34-2.15c0,.95-1.3,2.87-3.91,5.73-2.61,2.87-5.48,5.85-8.61,8.96-3.13,3.1-6,5.97-8.61,8.6-2.61,2.63-3.91,4.42-3.91,5.37,0,.48.52.72,1.56.72.52,0,1.04.24,1.56.72l7.05-6.45,3.91-10.03ZM2635.02,1542.73c0-1.43-.26-2.15-.78-2.15-1.04,0-1.83.6-2.35,1.79s-.78,2.03-.78,2.51l3.91,6.45v-8.6ZM2655.37,1380.07c-1.56-1.43-3.13-2.15-4.69-2.15h-.78c0,1.43,1.04,2.15,3.13,2.15v5.01c0,2.87.52,4.3,1.56,4.3s1.82-.6,2.34-1.79c.52-1.19.78-2.27.78-3.22,0-1.43-.78-2.87-2.35-4.3ZM2664.76,1474.66c1.56,0,2.61-.83,3.13-2.51.52-1.67.78-2.99.78-3.94l-4.69-7.17v2.15c0,3.82-1.04,7.4-3.13,10.75,1.04.48,2.35.72,3.91.72ZM2677.29,1611.53c0-1.43-.78-2.39-2.34-2.87-1.56-.48-2.87-.72-3.91-.72l-7.04,3.58,10.96,3.58c1.56-1.43,2.34-2.63,2.34-3.58ZM2696.86,1155.07c0-2.39,1.04-3.58,3.13-3.58h1.56c3.13.96,5.48,1.43,7.05,1.43,2.08,0,3.13-.95,3.13-2.87v-.72c-2.61-1.43-4.96-2.15-7.04-2.15-1.56,0-3.52.36-5.87,1.07-2.34.72-3.52,2.27-3.52,4.66,0,1.43.52,2.39,1.56,2.86v-.72ZM2732.08,1453.88v-1.43c-1.04.95-2.09,2.15-3.13,3.58-1.04,1.43-1.57,2.87-1.57,4.3,0,1.91.78,3.1,2.35,3.58,1.56-2.87,2.35-6.21,2.35-10.03ZM2749.3,1148.62c3.13,0,6,1.07,8.61,3.22,2.61,2.15,5.22,3.23,7.83,3.23,2.08,0,3.65-.95,4.69-2.87h-2.34c-3.13,0-5.48-.95-7.05-2.87-2.08-1.91-3.91-4.3-5.48-7.16v-2.87c0,1.43-.65,2.51-1.95,3.23-1.3.72-2.61,1.19-3.91,1.43-1.3.24-2.48.72-3.52,1.43-1.04.72-1.56,2.03-1.56,3.94l4.7-.72ZM2787.65,1542.73c-.52-2.39-1.3-3.58-2.35-3.58-.52,0-.78.48-.78,1.43v.72c0,.96.26,2.63.78,5.02.52,2.39,1.3,3.58,2.35,3.58.52,0,.78-.24.78-.72v-1.43c0-.95-.26-2.63-.78-5.01ZM2791.56,1602.21c0-2.39.78-4.42,2.35-6.09,1.56-1.67,2.34-3.46,2.34-5.37,0-1.43-1.04-2.27-3.13-2.51-2.09-.24-3.65-.36-4.69-.36.52,1.43.78,2.87.78,4.3v1.43c-.52,2.39-.78,4.78-.78,7.17,0,2.87,1.3,4.3,3.91,4.3l-.78-2.87Z"></path></g><g><path class="cls-3" d="M3113.33,1622.89v7.91c.52,8.51.78,16.82.78,24.93v8.51c0,7.3-1.3,15.41-3.92,24.33-10.98.41-21.95,1.01-32.92,1.82-10.97.81-21.94,1.22-32.91,1.22-6.27,0-12.55-.2-18.81-.61-6.27-.41-12.28-1.22-18.03-2.43-5.22-15.81-7.83-32.64-7.83-50.48,0-5.27.26-10.54.78-15.81.52-5.27,1.83-10.54,3.92-15.81,4.7-2.43,9.92-3.65,15.68-3.65h1.56c5.75.41,11.5.61,17.24.61,7.31,0,14.89-.51,22.73-1.52,7.84-1.01,15.42-1.52,22.73-1.52,5.22,0,10.45.41,15.68,1.22,5.22.81,9.93,2.43,14.11,4.87-.52,5.27-.78,10.74-.78,16.42Z"></path><path class="cls-3" d="M3260.68,1622.89v7.91c.52,8.51.78,16.82.78,24.93v8.51c0,7.3-1.3,15.41-3.92,24.33-10.98.41-21.95,1.01-32.92,1.82-10.97.81-21.95,1.22-32.92,1.22-6.27,0-12.54-.2-18.81-.61-6.27-.41-12.28-1.22-18.03-2.43-5.23-15.81-7.84-32.64-7.84-50.48,0-5.27.26-10.54.79-15.81.52-5.27,1.82-10.54,3.92-15.81,4.7-2.43,9.93-3.65,15.67-3.65h1.57c5.74.41,11.5.61,17.24.61,7.32,0,14.89-.51,22.73-1.52,7.84-1.01,15.41-1.52,22.73-1.52,5.22,0,10.45.41,15.67,1.22s9.93,2.43,14.11,4.87c-.52,5.27-.78,10.74-.78,16.42Z"></path><path class="cls-3" d="M3408.03,1622.89v7.91c.52,8.51.78,16.82.78,24.93v8.51c0,7.3-1.31,15.41-3.92,24.33-10.97.41-21.94,1.01-32.91,1.82-10.98.81-21.95,1.22-32.92,1.22-6.27,0-12.54-.2-18.81-.61-6.27-.41-12.28-1.22-18.03-2.43-5.23-15.81-7.84-32.64-7.84-50.48,0-5.27.27-10.54.79-15.81.52-5.27,1.83-10.54,3.92-15.81,4.7-2.43,9.93-3.65,15.68-3.65h1.57c5.75.41,11.5.61,17.24.61,7.32,0,14.89-.51,22.73-1.52,7.84-1.01,15.41-1.52,22.73-1.52,5.23,0,10.45.41,15.67,1.22,5.23.81,9.93,2.43,14.11,4.87-.52,5.27-.78,10.74-.78,16.42Z"></path></g></g></svg>