<svg id="_ëÎÓÈ_1" xmlns="http://www.w3.org/2000/svg" version="1.1" viewBox="0 0 2000 2000"><defs><style>
      .cls-1 {
        fill: #0086ff;
      }
      .cls-1, .cls-2, .cls-3 {
        stroke-width: 0px;
      }
      .cls-2 {
        fill: #000;
      }
      .cls-3 {
        fill: #fff;
      }
    </style></defs><polygon class="cls-3" points="1535.9 227.5 726.1 401 613.9 1231.9 917.4 1152.5 683.2 1829.6 1523.7 844.2 1165.7 934.4 1535.9 227.5"></polygon><g><path class="cls-3" d="M1673.1,969.6c-.8-.2-25.5-8.2-25.5-8.2l.8-20.1-15.4,19.8h-17.3c0,.1,11.4,12.7,11.4,12.7l-8.2,17.5,16-7.5,13.1,23.5-.6-26.6,25.8-11h0Z"></path><path class="cls-3" d="M1286,500.4c-.6.5-39.2,45.3-39.2,45.3l-16.2-12.1,7.4,24.1-10,14.4,17.1-2.2,9.7,16.8,3.2-17.6,27.1,2.5-22.4-14.7,23.4-56.5h0Z"></path><polygon class="cls-3" points="973.9 1659.1 983.1 1618.3 1007.4 1605.3 982.4 1599.7 972.8 1529 963.9 1599.4 913.1 1610 962.7 1621.4 973.9 1659.1"></polygon><polygon class="cls-3" points="595.9 471.7 589.4 517.3 568.4 527.8 589.6 533.1 596.2 575.1 608.7 532.6 645.1 519.6 606.8 515.1 595.9 471.7"></polygon><polygon class="cls-3" points="216.4 966.6 253.1 947.8 290.2 984.2 275.9 990.6 311.4 1015.5 241.3 996 258 988.4 216.4 966.6"></polygon><path class="cls-3" d="M1231.8,420.5c-10.4,0-10.4,16.3,0,16.2,10.4,0,10.4-16.3,0-16.2Z"></path><path class="cls-1" d="M1420.1,318.5c-.3-.7-.6-1.4-.9-2.1-.6-1-1.3-1.9-2.3-2.5-.6-.5-1.2-.9-2-1.1-1.1-.6-2.2-.8-3.5-.8-.8.1-1.6.2-2.4.3-.7.3-1.4.6-2.2.9-1.3.8-2.4,1.9-3.2,3.2,0,.1-.2.3-.3.4s0,.1-.1.2c-.2.3-.3.6-.4,1-.5.9-.7,1.9-.7,3,0,1.6.6,3.2,1.5,4.5.6,1,1.3,1.9,2.3,2.5.6.5,1.2.9,2,1.1,1.1.6,2.2.8,3.5.8.8-.1,1.6-.2,2.4-.3.7-.3,1.4-.6,2.2-.9,1.1-.6,1.9-1.4,2.5-2.3.6-.6.9-1.2,1.2-2,.6-1.1.8-2.2.8-3.5-.1-.8-.2-1.6-.3-2.4h0Z"></path><path class="cls-3" d="M898,446.9c-.6-.3-1.2-.6-1.8-.9-1.5-.7-3.1-.8-4.6,0-1.4.8-2.2,2.3-2.2,3.9s.9,3.1,2.2,3.9c1.5.9,3.1.7,4.6,0,.6-.3,1.2-.6,1.8-.9,2.3-1.2,2.3-4.9,0-6Z"></path><path class="cls-3" d="M1056.9,408.6c-12.1,0-12.1,18.9,0,18.8,12.1,0,12.1-18.9,0-18.8Z"></path></g><path class="cls-2" d="M212.6,1442.6c0,6.2-5.8,107.8-5.8,107.8l91.8-7.1-77.1-21.5-8.9-79.2h0Z"></path><polygon class="cls-2" points="308.2 495.5 227.6 489.8 235.6 609 253.4 508.1 308.2 495.5"></polygon><polygon class="cls-2" points="1677.9 1526.4 1753.4 1502.8 1760.5 1432.7 1769 1534.3 1677.9 1526.4"></polygon><path class="cls-2" d="M1775.8,624.7s.2-121.1-108.8-121.2c0,0,114.4-32.6,108.8,121.2Z"></path><polygon class="cls-3" points="1763.8 1393.7 1756.4 1379.2 1784.6 1358.9 1791.3 1370.8 1763.8 1393.7"></polygon><g><path class="cls-1" d="M268,823.5c2.1,3-31.1,160.9,127.7,170,123.4,7.1,174.2-32.5,176.8-156.8,1.6-75.7-56.7-109.6-119.1-114.8-41.1-9-70.7,3.8-73.8-57.7-1.6-32.1,10.6-54.4,41.4-49.7,33.2,5.1,41.5,17.7,36.3,71.6l93.1,20.8s56.6-178.5-136.2-179.9c-160.2-1.2-163.1,84.5-157.7,136.2,5,48.2,20.4,109.8,110.2,111.2,88.6,1.4,93.9,29.5,93.9,55.4,0,25.2-6.4,54.8-54.2,55.3-59.1.6-51.5-73-51.5-73l-86.9,11.3h0Z"></path><path class="cls-1" d="M1187.9,660.9c-2.1-119.5-100.6-124.5-265.4-109.8l4.2,362.5-39.5,2.3-.6,63.1,201.4,2.6-4.6-72-45.4-.4-4.3-101.7s157.3,24.8,154.3-146.6h0ZM1032.9,615.2s56-14.5,58.3,45c3.5,90.6-56,89.7-56,89.7l-2.3-134.7h0Z"></path><path class="cls-1" d="M1216.3,653c0,9-8.7,351.5-8.7,351.5l230,3.8-4.1-107.7-123.2,2.9-2.6-64,69.4-1.8-1.1-59.8-71.2,1.8.4-40.7,119.4-17.6-3.8-95.4-204.5,27.1h0Z"></path><path class="cls-1" d="M866.9,637.7c-.5,0-1,.1-1.5,0-15.1-1.2-63.3,4.8-110.2,5.6,0,.8,5.2,118.9-.6,207.6-3.5,53.5.7,95.2-26.2,96.3-26.5,1.2-23-56.1-21.7-140.1,1-60.5,2.3-173.2,2.2-183.6l-108.6-1.5s-5.4,226.4-4.4,253c.6,15.2,2.1,32.8,5.4,50.8,2.8,15.7,7,31.7,13.1,46.7,5,12.3,11.3,23.8,19.1,33.8,7.1,9.1,15.5,17,25.4,23,8.6,5.2,18.2,9.1,29.2,11.4,29.7,6.1,47.8,3.2,48,3.2,119.5-15.7,140-32.1,130.7-406.2h0Z"></path><path class="cls-1" d="M536.3,1314.7c2.5-179.5-102.7-285.2-350.1-257.2l-1.8,77.3,72.7,5.9,12.4,261.2-29.8,3.1v90.7c0,0,94.8,2.8,126.3,1.4,58.9-2.5,168-17.5,170.3-182.5h0ZM365.3,1395.8l-6-240.3c35.7,13.1,72.4,36.9,78.9,127.9,8.2,114.5-72.9,112.4-72.9,112.4h0Z"></path><path class="cls-1" d="M1525.7,1340.4c6.8-185.2-95.8-294.1-343.8-265.4l-3.6,79.7,72.5,6.2,3.2,269.4-26.9,3.2-2.2,93.6s94.7,2.9,126.3,1.5c58.9-2.5,168.4-18,174.6-188.2h0ZM1359.8,1419.8l-7.3-243.7c35.4,13.6,71.5,38.1,75.8,132,5.4,118.1-68.5,111.7-68.5,111.7h0Z"></path><path class="cls-1" d="M1181.1,1320.8c12.5-178.9-94.8-284.2-343.6-256.3l6,91,68.3-8.1-2.1,250.3-38,3.2,2.9,100.3s94.6,2.7,126.2,1.4c59-2.5,168.9-17.4,180.4-181.9ZM1005.6,1393.7l7.4-231.5c35,13.1,69.4,36.8,71.7,127.5,2.5,97-79.1,104-79.1,104h0Z"></path><path class="cls-1" d="M758.1,1109.2l-134.9,2.1-93.6,400.2,114.3-.8,14.5-116.7,69.3-4.9,25.1,155.7,100.2,3-95-438.7h0ZM668.8,1321.4l19.3-119.9,23.5,118.1-42.8,1.8h0Z"></path><path class="cls-1" d="M1491,1057.2c17.3.9,97-.4,97-.4l68.3,137.5,49.4-137h114.1s-122.5,239-122.5,239l4.8,179.9-120.6-10.3,9.8-181.2-100.5-227.4h0Z"></path><path class="cls-1" d="M1795.3,989.9l.9-85.8c-66-15.9-130.6-102.6-143.5-152.7,0,0,91.5-24.3,85.7-124.4-5.8-100.1-164.6-100.9-283-86.2l.4,79.3,25.6.3-5.3,332.7,103.8-.7-5.5-165.8s69.1,190.4,220.9,203.3h0ZM1570.1,709.2l-3.7-100.3c4.8-1.3,69.5-4.4,75.5,44s-71.8,56.3-71.8,56.3h0Z"></path></g><g><path class="cls-2" d="M277.7,805.9c2.1,3-31.1,160.9,127.7,170,123.4,7.1,174.2-32.5,176.8-156.8,1.6-75.7-56.7-109.6-119.1-114.8-41.1-9-70.7,3.8-73.8-57.7-1.6-32.1,10.6-54.4,41.4-49.7,33.2,5.1,41.5,17.7,36.3,71.6l93.1,20.8s56.6-178.5-136.2-179.9c-160.2-1.2-163.1,84.5-157.7,136.2,5,48.2,20.4,109.8,110.2,111.2,88.6,1.4,93.9,29.5,93.9,55.4,0,25.2-6.4,54.8-54.2,55.3-59.1.6-51.5-73-51.5-73l-86.9,11.3h0Z"></path><path class="cls-2" d="M1805,975l.9-85.8c-66-15.9-130.6-102.6-143.5-152.7,0,0,91.5-24.3,85.7-124.4-5.8-100.1-164.6-100.9-283-86.2l.4,79.3,25.6.3-5.3,332.7,103.8-.7-5.5-165.8s69.1,190.4,220.9,203.3ZM1579.8,694.2l-3.7-100.3c4.8-1.3,69.5-4.4,75.5,44,6,48.4-71.8,56.3-71.8,56.3h0Z"></path><path class="cls-2" d="M1197.7,643.3c-2.1-119.5-100.6-124.5-265.4-109.8l4.2,362.5-39.5,2.3-.6,63.1,201.4,2.6-4.6-72-45.4-.4-4.3-101.7s157.3,24.8,154.3-146.6h0ZM1042.7,597.5s56-14.5,58.3,45c3.5,90.6-56,89.7-56,89.7l-2.3-134.7h0Z"></path><path class="cls-2" d="M1226.1,635.4c0,9-8.7,351.5-8.7,351.5l230,3.8-4.1-107.7-123.2,2.9-2.6-64,69.4-1.8-1.1-59.8-71.2,1.8.4-40.7,119.4-17.6-3.8-95.4-204.5,27.1h0Z"></path><path class="cls-2" d="M876.6,620.1c-.5,0-1,.1-1.5,0-15.1-1.2-63.3,4.8-110.2,5.6,0,.8,5.2,118.9-.6,207.6-3.5,53.5.7,95.2-26.2,96.3-26.5,1.2-23-56.1-21.7-140.2,1-60.5,2.3-173.2,2.2-183.6l-108.6-1.5s-5.4,226.4-4.4,253c.6,15.2,2.1,32.8,5.4,50.8,2.8,15.7,7,31.7,13.1,46.7,5,12.3,11.3,23.8,19.1,33.8,7.1,9.1,15.5,17,25.4,23,8.6,5.2,18.3,9.1,29.2,11.4,29.7,6.1,47.8,3.2,48,3.2,119.5-15.7,140-32.1,130.7-406.2h0Z"></path><path class="cls-2" d="M551.3,1296.6c2.5-179.5-102.7-285.2-350.1-257.2l-1.8,77.3,72.7,5.9,12.4,261.2-29.8,3.1v90.7c0,0,94.8,2.8,126.3,1.4,58.9-2.5,168-17.5,170.3-182.5h0ZM380.2,1377.7l-6-240.3c35.7,13.1,72.4,36.9,78.9,127.9,8.2,114.5-72.9,112.4-72.9,112.4h0Z"></path><path class="cls-2" d="M1540.6,1322.3c6.8-185.2-95.8-294.1-343.8-265.4l-3.6,79.7,72.5,6.2,3.2,269.4-26.9,3.2-2.2,93.6s94.7,2.9,126.3,1.5c58.9-2.5,168.4-18,174.6-188.2h0ZM1374.8,1401.7l-7.3-243.7c35.4,13.6,71.5,38.1,75.8,132,5.4,118.1-68.5,111.7-68.5,111.7h0Z"></path><path class="cls-2" d="M1196.1,1302.7c12.5-178.9-94.8-284.2-343.6-256.3l6,91,68.3-8.1-2.1,250.3-38,3.2,2.9,100.3s94.6,2.7,126.2,1.4c59-2.5,168.9-17.4,180.4-181.9ZM1020.6,1375.6l7.4-231.5c35,13.1,69.4,36.8,71.7,127.5,2.5,97-79.1,104-79.1,104h0Z"></path><path class="cls-2" d="M773.1,1091.1l-134.9,2.1-93.6,400.2,114.3-.8,14.5-116.7,69.3-4.9,25.1,155.7,100.2,3-95-438.7h0ZM683.8,1303.3l19.3-119.9,23.5,118.1-42.8,1.8h0Z"></path><path class="cls-2" d="M1506,1039.1c17.3.9,97-.4,97-.4l68.3,137.5,49.4-137h114.1s-122.5,239-122.5,239l4.8,179.9-120.6-10.3,9.8-181.2-100.5-227.4h0Z"></path></g><g><path class="cls-3" d="M262.5,753.5c-.2-5.3-4.2-9.8-9.7-9.7-5.1,0-10.1,4.6-9.9,9.9.2,5.3,4.2,9.8,9.7,9.7,5.1,0,10.1-4.6,9.9-9.9Z"></path><path class="cls-1" d="M1496.9,453.1c-1.4-5.4-5.7-9.8-11.1-11.2h-.5c-5.4-1.5-11.4,0-15.4,4.1s-5.6,10-4.2,15.5v.5c1.5,5.4,5.9,9.8,11.2,11.2,5.5,1.5,11.6-.2,15.7-4.3,4.1-4.1,5.8-10.2,4.3-15.8h0Z"></path><path class="cls-1" d="M573.9,1058.8c-.7-2.5-2.7-4.6-5.2-5.3,0,0-.2,0-.2,0-2.6-.7-5.3,0-7.3,2s-2.7,4.7-2,7.3c0,0,0,.2,0,.2.7,2.6,2.7,4.6,5.2,5.3,2.6.7,5.5,0,7.4-2s2.7-4.8,2-7.4h0Z"></path><path class="cls-1" d="M217.8,1328.7c-14.4,0-14.7,22.6-.2,22.5,14.4,0,14.7-22.6.2-22.5Z"></path><path class="cls-3" d="M481.9,1541.8c-20.3.1-20.7,31.9-.3,31.8,20.3-.1,20.7-31.9.3-31.8Z"></path><path class="cls-1" d="M545.1,1050.2c-8.8,0-16.4,7.7-16.5,16.6,0,8.9,7.3,16.4,16.2,16.3,8.8,0,16.4-7.7,16.5-16.6,0-8.9-7.3-16.4-16.2-16.3Z"></path><path class="cls-1" d="M1101.9,1658.9c-.2-7.3-5.8-13.5-13.3-13.4-7.1,0-13.9,6.3-13.6,13.6.2,7.3,5.8,13.5,13.3,13.4,7.1,0,13.9-6.3,13.6-13.6Z"></path><path class="cls-3" d="M1769,759.3c-.4-3.2-1.5-6.3-3.6-8.7-3.2-3.8-8.8-5.3-13.6-3.7-5.4,1.8-8.9,7.5-9.6,12.9-.3,2.5,0,4.7.7,6.7,3.8,10.8,20.3,14.5,25.3,1.4,1.1-2.8,1.2-5.8.8-8.7h0Z"></path><path class="cls-3" d="M217.7,1257.9c-7.1,0-7.2,11.2-.1,11.1,7.1,0,7.2-11.2.1-11.1Z"></path><path class="cls-1" d="M404.4,804c-8.9,0-9.1,14-.1,13.9,8.9,0,9.1-14,.1-13.9Z"></path><path class="cls-1" d="M1786.1,864.2c8.9,0,9.1-14,.2-13.9-8.9,0-9.1,14-.2,13.9Z"></path><path class="cls-3" d="M1224.1,1581.6c-13.7,0-14,21.5-.2,21.4,13.7,0,14-21.5.2-21.4Z"></path><path class="cls-1" d="M1434.8,767.6c-8.9,0-9.1,14-.2,13.9,8.9,0,9.1-14,.2-13.9Z"></path><path class="cls-1" d="M1792.9,706.3c8.9,0,9.1-14,.2-13.9-8.9,0-9.1,14-.2,13.9Z"></path><path class="cls-3" d="M1136.8,1546.1c-8.9,0-9.1,14-.2,13.9,8.9,0,9.1-14,.2-13.9Z"></path><polygon class="cls-1" points="1146.2 1038.7 1149.8 1012.7 1178 1001.5 1151.1 993.7 1146 971.1 1139.2 995.8 1123.2 1004.9 1138.7 1012.8 1146.2 1038.7"></polygon><path class="cls-1" d="M1536.7,1581.8c0-1,1.1-33.3,1.1-33.3l45.2-15.4-49.9-2.2,6.4-40.9-23.5,38.4-23.6-3.5,14.4,16.4-18,27.1,26-13.3,21.9,26.7h0Z"></path><path class="cls-1" d="M437.7,1634.3c0-.5-.1-1.1-.2-1.6-.3-1-.8-1.9-1.5-2.6-.4-.3-.8-.6-1.2-.9-.9-.5-1.9-.8-3-.8-.8,0-1.6.2-2.3.5-.7.2-1.4.7-1.9,1.2-.6.5-1,1.2-1.2,1.9-.4.7-.5,1.5-.5,2.3,0,.5.1,1.1.2,1.6.3,1,.8,1.9,1.5,2.6.4.3.8.6,1.2.9.9.5,1.9.8,3,.8.8,0,1.6-.2,2.3-.5.7-.2,1.4-.7,1.9-1.2.6-.5,1-1.2,1.2-1.9.4-.7.5-1.5.5-2.3Z"></path><path class="cls-1" d="M1134.2,830.1c-9,0-16.7,7.8-16.8,16.8,0,9,7.4,16.6,16.4,16.6,9,0,16.7-7.8,16.8-16.8,0-9-7.4-16.6-16.4-16.6Z"></path><path class="cls-1" d="M1136.9,484.9c-6.8,0-12.7,5.9-12.8,12.8,0,6.9,5.7,12.7,12.5,12.6,6.8,0,12.7-5.9,12.8-12.8,0-6.9-5.7-12.7-12.5-12.6Z"></path><path class="cls-1" d="M878.7,577.1c-3.3,0-6.2,2.9-6.2,6.2,0,3.4,2.8,6.2,6.1,6.2,3.3,0,6.2-2.9,6.2-6.2,0-3.4-2.8-6.2-6.1-6.2Z"></path><path class="cls-3" d="M1018.4,1010.7c-3.3,0-6.2,2.9-6.2,6.2,0,3.4,2.8,6.2,6.1,6.2,3.3,0,6.2-2.9,6.2-6.2,0-3.4-2.8-6.2-6.1-6.2Z"></path><path class="cls-3" d="M1408.9,560.9c-3.3,0-6.2,2.9-6.2,6.2,0,3.4,2.8,6.2,6.1,6.2,3.3,0,6.2-2.9,6.2-6.2,0-3.4-2.8-6.2-6.1-6.2Z"></path><path class="cls-1" d="M1441.8,1038.7c-5.3,0-9.9,4.6-9.9,9.9,0,5.4,4.4,9.8,9.7,9.8,5.3,0,9.9-4.6,9.9-9.9,0-5.4-4.4-9.8-9.7-9.8Z"></path><path class="cls-1" d="M693.9,1439.2c-3.3,0-6.2,2.9-6.2,6.2,0,3.4,2.8,6.2,6.1,6.2,3.3,0,6.2-2.9,6.2-6.2,0-3.4-2.8-6.2-6.1-6.2Z"></path><path class="cls-3" d="M562.4,981.3c-3.3,0-6.2,2.9-6.2,6.2,0,3.4,2.8,6.2,6.1,6.2,3.3,0,6.2-2.9,6.2-6.2,0-3.4-2.8-6.2-6.1-6.2Z"></path><path class="cls-1" d="M803,1637.1c-3.3,0-6.2,2.9-6.2,6.2,0,3.4,2.8,6.2,6.1,6.2,3.3,0,6.2-2.9,6.2-6.2,0-3.4-2.8-6.2-6.1-6.2Z"></path><polygon class="cls-1" points="776.3 475.7 820.5 484.9 826.2 530.3 809.7 526.1 822.2 563 776.7 509.4 796.2 514.2 776.3 475.7"></polygon><polygon class="cls-1" points="1796.5 1249.5 1762.2 1255.6 1755.6 1298 1768.5 1295 1757.1 1329 1794.5 1281.2 1779.4 1284.6 1796.5 1249.5"></polygon></g></svg>