<svg id="Layer_2" xmlns="http://www.w3.org/2000/svg" version="1.1" viewBox="0 0 2000 2000"><defs><style>
      .cls-1 {
        fill: #fff;
      }
      .cls-1, .cls-2 {
        stroke-width: 0px;
      }
      .cls-2 {
        fill: #00a5d8;
      }
    </style></defs><g><g><path class="cls-1" d="M516,660.7c-3.8,0-6.9-3-7.1-6.7l-16.8-347.1c-.2-3.9,2.8-7.2,6.7-7.4,3.8-.2,7.2,2.8,7.4,6.7l16.8,347.1c.2,3.9-2.8,7.2-6.7,7.4h-.4.1Z"></path><path class="cls-1" d="M533.3,618.1c-17.7,0-36.2-3.1-54.7-9.2-3.7-1.2-5.7-5.2-4.5-9,1.2-3.7,5.2-5.7,9-4.5,21,6.9,53.1,13.2,86.2,3.4,28.9-8.5,52.7-28.5,63.6-53.4,11.5-26.4,7.2-58.8-10.5-78.6-15.2-17-37.3-24.9-63-31-19.6,11.7-38.3,15.1-56.1,10.1-2.3-.6-4.9-1.6-7.1-3.8-3.1-3.1-4.3-7.3-3.2-11.6,1.7-6.7,8.3-11.9,14.1-13.5,14.1-4.1,28.9-.9,40.8,1.7,2.9.6,5.9,1.3,8.9,2,10.6-7,20.3-16,28.3-24.5,5.5-5.8,10.5-11.5,12.7-18.1,3.3-10.3-1.2-23.3-11-31.5-11-9.2-25.9-11.6-36.5-12.1-23.3-.9-46.6,6.2-65.4,20.1-3.1,2.3-7.6,1.6-9.9-1.5s-1.6-7.6,1.5-9.9c21.4-15.7,47.8-23.8,74.3-22.8,18.4.7,33.9,6,45.1,15.4,14.3,12,20.5,30.8,15.4,46.7-3,9.4-9.5,16.8-15.8,23.5-7,7.4-13.8,13.8-20.7,19.2,20.8,5.9,42.8,15,58.3,32.3,21.6,24.3,26.8,61.9,12.9,93.8-12.5,28.7-39.7,51.6-72.6,61.3-12.7,3.7-26.1,5.6-40,5.6h-.1ZM507.7,432.6c9.6,2.5,19.4,1.5,28.8-1.7-8.6-1.6-17.6-2.6-25.7-.2-1.2.3-2.3,1.1-3.1,1.9h0Z"></path></g><g><path class="cls-1" d="M772.3,667.7c-3.6,0-6.7-2.8-7-6.4-8-84.2-21-168.7-38.6-251.4-.8-3.8,1.6-7.6,5.5-8.4,3.8-.8,7.6,1.6,8.4,5.5,17.8,83.2,30.9,168.4,38.9,253.1.4,3.9-2.5,7.3-6.4,7.7h-.8Z"></path><path class="cls-1" d="M718.9,455.9c-3.2,0-6.1-2.1-6.9-5.4-1-3.8,1.3-7.6,5.1-8.6,28.2-7.1,56.9-13.3,85.4-18.4,5.5-1,13.1-2.4,20.4,0,3.7,1.2,5.8,5.1,4.7,8.9-1.2,3.7-5.1,5.8-8.9,4.7-3.7-1.1-8.2-.5-13.7.5-28.2,5.1-56.6,11.2-84.5,18.2-.6.1-1.2.2-1.7.2h.1Z"></path><path class="cls-1" d="M735.8,525.5c-3.3,0-6.3-2.3-6.9-5.7-.8-3.8,1.7-7.6,5.6-8.3l88.3-17.6c3.8-.8,7.6,1.7,8.3,5.6.8,3.8-1.7,7.6-5.6,8.3l-88.3,17.6c-.5,0-.9,0-1.4,0h0Z"></path><path class="cls-1" d="M872.6,603.3c-.7-3.9-4.3-6.5-8.2-5.8-50.3,8.5-100.6,19.9-149.7,33.9-3.8,1.1-5.9,5-4.9,8.8.9,3.1,3.7,5.1,6.8,5.1s1.3,0,2-.3c48.5-13.8,98.4-25.1,148.1-33.6,3.9-.7,6.5-4.3,5.8-8.2h.1Z"></path></g><path class="cls-1" d="M974.1,556.3c-4.5,0-9.1-.6-13.8-1.7-14.5-3.7-27.1-12.2-38.2-19.7-3.2-2.2-4.1-6.6-1.9-9.8,2.2-3.2,6.6-4.1,9.8-1.9,10.6,7.2,21.6,14.6,33.7,17.7,12.2,3.1,24.4.5,31.2-6.4,6.2-6.3,9-16.6,8.3-30.5-1.6-34.1-19-65.9-35.2-93-10.4-17.4-20.7-37.5-12.3-56.8,5.7-13,19.5-22.2,36-23.9,13.9-1.4,27.5,2.2,40,6.3,3.7,1.2,5.7,5.2,4.5,8.9s-5.2,5.7-8.9,4.5c-11.1-3.6-22.9-6.9-34.2-5.7-11.3,1.2-20.9,7.2-24.5,15.5-5.8,13.1,2.9,29.5,11.5,43.9,17.1,28.6,35.4,62.3,37.2,99.6.8,18-3.3,31.8-12.3,41.1-7.6,7.8-18.8,12-31,12h.1Z"></path><g><path class="cls-1" d="M1305.9,313c-.5,0-1.1,0-1.6-.2-42.1-9.6-85.6-19.5-128.9-25.5l-8.1-1.1c-13.9-1.9-28.4-3.8-42.4-7.7-6.4-1.8-12.6-4-18.7-6.1-10.7-3.8-20.8-7.3-31.3-8.7-3.9-.5-6.6-4.1-6.1-8s4.1-6.6,8-6.1c12,1.6,23.3,5.6,34.2,9.4,5.8,2.1,11.9,4.2,17.8,5.9,13,3.7,26.9,5.5,40.4,7.3l8.2,1.1c44,6,87.8,16,130.2,25.7,3.8.9,6.2,4.7,5.3,8.5-.8,3.3-3.7,5.5-6.9,5.5h0Z"></path><path class="cls-1" d="M1132.5,556.8c-1.6,0-3.2-.5-4.5-1.5-3-2.2-3.8-6.3-1.9-9.4,3.2-89.5,10.7-179.8,22.4-268.5.5-3.9,4.1-6.6,7.9-6.1,3.9.5,6.6,4.1,6.1,8-11.7,89.2-19.2,180.1-22.4,270.1,0,2.8-1.8,5.3-4.3,6.6-1.1.5-2.2.8-3.4.8h.1ZM1126,548.9h0ZM1136.4,543.9h0Z"></path></g></g><g><g><path class="cls-1" d="M554.3,1744.2h-.2c-3.9,0-7-3.4-6.8-7.3l9.1-265.3c0-3.9,3.5-6.8,7.3-6.8,3.9,0,7,3.4,6.8,7.3l-9.1,265.3c0,3.8-3.3,6.8-7.1,6.8h0Z"></path><path class="cls-1" d="M562.5,1483.5c-3.8,0-6.9-3-7.1-6.8-.2-3.9,2.9-7.2,6.8-7.4,41.3-1.7,83.3-2.6,124.6-2.8h0c3.9,0,7.1,3.2,7.1,7.1s-3.1,7.1-7.1,7.1c-41.2.2-83,1.1-124.1,2.7h-.3,0Z"></path><path class="cls-1" d="M559.3,1573.1c-3.7,0-6.8-2.8-7.1-6.5-.3-3.9,2.6-7.3,6.5-7.6,45.3-3.7,91.3-3.7,136.6,0,3.9.3,6.8,3.7,6.5,7.6s-3.7,6.8-7.6,6.5c-44.6-3.6-89.8-3.5-134.3,0h-.6Z"></path><path class="cls-1" d="M510.6,1718c-3.7,0-6.8-2.8-7.1-6.6-.3-3.9,2.7-7.3,6.6-7.6,56.1-4,113-4.5,169.2-1.6,3.9.2,6.9,3.5,6.7,7.4s-3.6,6.9-7.4,6.7c-55.6-2.9-112-2.4-167.5,1.5h-.5v.2Z"></path></g><path class="cls-1" d="M789.7,1754.7h-.4c-2.7-.2-5-1.8-6.1-4.2-7.3-16.8-9.2-35.6-10.8-52.1l-13.3-133.9c-.4-3.9,2.5-7.4,6.3-7.8,3.9-.3,7.4,2.5,7.8,6.3l13.3,133.9c1.1,11.2,2.3,22.6,5,33.5,39.2-67.6,82-133.9,127.4-197.5,2.3-3.2,6.7-3.9,9.9-1.7,3.2,2.3,3.9,6.7,1.7,9.9-48.1,67.4-93.4,138.1-134.5,209.9-1.3,2.2-3.6,3.6-6.2,3.6h-.1Z"></path><g><path class="cls-1" d="M1019.4,1690.7c-3.8,0-7-3.1-7.1-6.9l-5.8-217.1c-.3-10.2-.6-20.8-.5-31.3,0-3.9,3.2-7.1,7.1-7.1h0c3.9,0,7.1,3.2,7.1,7.1,0,10.3.3,20.8.5,30.9l5.8,217.1c0,3.9-3,7.2-6.9,7.3h-.2,0Z"></path><path class="cls-1" d="M982.5,1483.1c-3.8,0-6.9-2.9-7.1-6.8-.2-3.9,2.8-7.2,6.7-7.4,51.5-2.5,103.8-2.8,155.3-.9,3.9,0,7,3.4,6.8,7.3,0,3.9-3.5,6.9-7.3,6.8-51.1-1.9-103-1.6-154.1.9h-.3Z"></path><path class="cls-1" d="M982.7,1582.9c-3.3,0-6.2-2.3-6.9-5.6-.8-3.8,1.6-7.6,5.4-8.4,48.9-10.5,98.9-15.9,148.9-15.9h1.2c3.9,0,7.1,3.2,7.1,7.1s-3.2,7.1-7.1,7.1h-1.2c-49,0-98.1,5.2-145.9,15.5-.5,0-1,.2-1.5.2h0Z"></path><path class="cls-1" d="M1018,1687.6c-3.5,0-6.5-2.6-7-6.1-.5-3.9,2.2-7.4,6-8,45.4-6.2,91.6-11,137.4-14.1,3.8-.3,7.3,2.7,7.6,6.6.3,3.9-2.7,7.3-6.6,7.6-45.4,3.1-91.3,7.8-136.4,14h-1Z"></path></g><g><path class="cls-1" d="M1338.5,1669.4c-3.4,0-6.4-2.5-7-5.9-13.1-80.6-27.3-162.2-42.4-242.6-.7-3.8,1.8-7.6,5.7-8.3,3.9-.7,7.6,1.8,8.3,5.7,15.1,80.5,29.4,162.2,42.4,242.9.6,3.9-2,7.5-5.9,8.1h-1.1Z"></path><g><path class="cls-1" d="M1313.4,1551.6c-3.8,0-7.6-.2-11.3-.7-3.9-.5-6.7-4-6.2-7.9s4-6.7,7.9-6.2c29.8,3.5,60.9-9.5,79.4-33.1,8.4-10.7,11-23.4,7.3-35.7-4.1-13.7-15.4-25-30.3-30.2-18.9-6.6-42.2-1.9-59.2,11.8-5.4,4.3-11.1,9.6-12.6,15.9-.9,3.8-4.8,6.1-8.6,5.2-3.8-.9-6.1-4.8-5.2-8.6,2.6-10.3,10.3-17.7,17.5-23.5,20.7-16.7,49.3-22.3,72.7-14.2,19.2,6.7,33.9,21.5,39.3,39.6,5,16.8,1.5,34-9.8,48.4-19.1,24.5-49.9,39.2-80.9,39.2h0Z"></path><path class="cls-1" d="M1532.3,1614.3c-1,0-2.1-.2-3.1-.7-57.1-27.5-116.7-51.1-177.1-70.2-3.7-1.2-5.8-5.2-4.6-8.9,1.2-3.7,5.2-5.8,8.9-4.6,61,19.3,121.2,43.2,178.9,71,3.5,1.7,5,5.9,3.3,9.4-1.2,2.5-3.8,4-6.4,4h0Z"></path></g></g></g><g><g><path class="cls-1" d="M1485.9,622.7c-6.3,0-12.5-.5-18.6-1.7-7.4-1.4-14.6-3.6-21.4-6.6-1,.2-2.1.3-3.2,0-40.3-8.8-69.2-52.3-64.5-96.8,4.1-38.7,31.4-75.2,71.2-95.3,32.8-16.6,67.9-19.2,96.3-7.3,33.7,14.2,57.7,50.9,58.4,89.3.6,36.1-18.2,72.6-49.2,95.2-20.7,15.1-45.1,23.2-69,23.2h0ZM1490.6,452.5c-26.8,0-53.2,12.4-69,32.5-16.7,21.2-21.3,50.6-11.7,74.7,9.5,23.8,33,42.5,60,47.4,25.4,4.6,54-2.5,76.7-19,27.3-20,43.9-52,43.4-83.6-.6-32.9-21-64.4-49.7-76.4-24.6-10.3-55.3-7.8-84.4,6.9-32.5,16.5-55.6,44.9-62.1,75.5,3.1-12.3,8.8-24,16.8-34.2,18.7-23.8,49.6-38.4,81.4-38,26.8.3,58.7,13.5,69.4,42.1,9.7,25.9-1.6,53.2-12.8,71.6-13.5,22.1-29.3,35.7-47,40.4-23,6.1-49-3.8-63.3-24.1-13.2-18.8-15.5-45.2-5.9-67.4,9.6-22.1,30.1-38.1,52.3-40.8,24.5-2.9,49.2,11.4,57.4,33.2,4.4,11.6,3.7,25.1-2,37-5.3,11.2-14.2,19.3-25,22.9-11.9,3.9-25.6,1.5-36.7-6.6-10.5-7.6-16.5-18.7-16.4-30.3,0-12.7,8-24.6,20.7-31.1,12-6.2,25-5.7,34.8,1.2,3.2,2.3,3.9,6.7,1.7,9.9-2.3,3.2-6.7,4-9.9,1.7-5.4-3.8-12.9-3.9-20.1-.1-7.8,4-12.9,11.3-13,18.6,0,7,3.8,13.9,10.6,18.8,7.3,5.3,16.5,7.1,23.9,4.6,7.1-2.3,13-7.9,16.7-15.6,4-8.3,4.6-18,1.6-25.9-5.9-15.7-24.6-26.2-42.5-24.1-17.3,2.1-33.4,14.8-41,32.3-7.7,17.8-6,38.8,4.4,53.6,10.8,15.3,31,23.1,48.1,18.5,14.1-3.8,27-15.2,38.6-34.1,9.6-15.7,19.4-38.7,11.6-59.2-8.4-22.3-35.1-32.7-56.3-33h-1.3Z"></path><path class="cls-1" d="M1448.1,401.9c-3,0-5.8-1.9-6.7-4.9l-23.2-71c-1.2-3.7.8-7.7,4.5-8.9,3.7-1.2,7.7.8,8.9,4.5l23.2,71c1.2,3.7-.8,7.7-4.5,8.9-.7.2-1.5.4-2.2.4h0Z"></path><path class="cls-1" d="M1579.4,414.1c-1.9,0-3.8-.8-5.2-2.2-2.7-2.9-2.6-7.3.3-10l56.8-53.4c2.8-2.7,7.3-2.5,10,.3,2.7,2.9,2.6,7.3-.3,10l-56.8,53.4c-1.4,1.3-3.1,1.9-4.8,1.9h0Z"></path><path class="cls-1" d="M1357.6,465.5c-1.4,0-2.8-.4-4-1.2-20.9-14.3-39.8-31.3-56.1-50.7-2.5-3-2.1-7.5.8-10,3-2.5,7.5-2.1,10,.9,15.5,18.4,33.4,34.6,53.2,48.1,3.2,2.2,4.1,6.6,1.9,9.9-1.4,2-3.6,3.1-5.9,3.1h0Z"></path><path class="cls-1" d="M1277.7,610.1c-2.6,0-5-1.4-6.3-3.8-1.8-3.5-.4-7.8,3-9.6l76.2-39.6c3.5-1.8,7.8-.5,9.6,3,1.8,3.5.4,7.8-3,9.5l-76.2,39.6c-1,.5-2.2.8-3.3.8h0Z"></path><path class="cls-1" d="M1410.1,734.3c-1,0-2-.2-3-.7-3.5-1.7-5.1-5.9-3.4-9.4,11.4-24.2,24.8-47.7,40-69.7,2.2-3.2,6.6-4,9.8-1.8s4,6.6,1.8,9.8c-14.7,21.4-27.8,44.2-38.9,67.7-1.2,2.6-3.8,4.1-6.4,4.1h0Z"></path><path class="cls-1" d="M1598.4,710.8c-2.5,0-4.9-1.3-6.2-3.7l-40.4-74.3c-1.9-3.4-.6-7.7,2.8-9.6,3.4-1.9,7.7-.6,9.6,2.8l40.4,74.3c1.9,3.4.6,7.7-2.8,9.6-1.1.6-2.2.9-3.4.9h0Z"></path><path class="cls-1" d="M1709.1,631.6c-.9,0-1.9-.2-2.8-.6l-85.6-36.5c-3.6-1.5-5.3-5.7-3.7-9.3s5.7-5.3,9.3-3.7l85.6,36.5c3.6,1.5,5.3,5.7,3.7,9.3-1.2,2.7-3.8,4.3-6.5,4.3h0Z"></path><path class="cls-1" d="M1616.2,460.5c-2.4,0-4.7-1.2-6.1-3.4-2-3.3-1-7.7,2.4-9.7,30.6-18.5,62.2-36.2,94.1-52.4,3.5-1.8,7.8-.4,9.5,3.1s.4,7.8-3.1,9.5c-31.5,16-62.9,33.5-93.1,51.8-1.2.7-2.4,1-3.7,1h0Z"></path><path class="cls-1" d="M1648.7,513.2h-16.9c-3.9,0-7.1-3.2-7-7.1,0-3.9,3.2-7,7.1-7h0c42.7.3,86-.6,128.7-2.7,3.9-.2,7.2,2.8,7.4,6.7.2,3.9-2.8,7.2-6.7,7.4-37.3,1.8-75.1,2.8-112.6,2.8h0Z"></path></g><path class="cls-1" d="M369.6,780.4c15.2-20.8,23.5-43,23.9-64.1.1-5.3-.2-13.2-4-20.2-4.3-7.9-12.2-12.8-20.3-12.5-6.2.2-11.4,3.5-15.2,6.2-9,6.5-16.7,14.8-22.8,24.1-1.4-6.4-3.5-12.9-7.3-18.7-6.9-10.5-21-18.5-34.4-13.4-10.8,4.1-17.7,15.3-20,32.5-4.5,34.4,3.6,70.9,22.4,100.1,1.5,2.3,3.3,4.9,5.5,7.3,3.7,3.9,8.5,7.2,14.7,7.5,1,0,2,0,2.9-.2.2,0,.3.2.5.3,2.5,1.1,5.5.7,7.5-1.2,17.9-15.7,33.7-30.2,46.5-47.7h0ZM341.4,770.2c0-3.1,0-6.2-.4-9.3,2-6.3,4.4-12.4,7.2-18.4,2.3-3.4,4.8-6.6,7.5-9.7-2.2,13.2-7.1,26-14.2,37.4h-.1ZM362.4,701.2c2.2-1.6,5-3.4,7.4-3.5,1.8,0,3.9,1,5.5,2.7.6.7,1.2,1.5,1.7,2.4,1.6,3,2.4,7,2.3,12.4-.7-1.9-1.9-3.8-3.4-5.4-2.2-4-5.4-6.8-9.5-7.9-1.3-.4-2.8-.6-4.4-.5,0,0,.2,0,.3-.2h.1ZM307.8,726.8c.9.7,1.7,1.4,2.5,2.1l8.8,38.4c-.9,3.1-1.8,6.3-2.5,9.4-6-17-10.5-34.5-13.2-52.3.8.2,2.3.7,4.5,2.4h0ZM303.4,706.6s.2.2.4.3c.5.5,1.2,1.6,2,3.5-1.3-.2-2.6-.3-3.9-.2,0-.6.2-1.2.3-1.8.3-1,1-1.7,1.2-1.8h0ZM283.6,716c.9-6.6,3.5-18.2,11-21,.5-.2,1-.3,1.6-.4-3.4,2-6.1,5.4-7.5,9.6-1.5,4.8-1.1,9.5-.6,13.9.1,1.2.3,2.3.5,3.5-.8,2.4-1.1,4.5-1.2,5.7-3,22.6,4.6,46.2,19.3,63.7,1,2.7,2.1,5.3,3.2,7.9.5,1.3,1.1,2.3,1.8,3.4-.1,0-.2,0-.3,0-3.5,1.3-5.3,5-4.3,8.6-1-1.2-2-2.5-3.1-4.2-16.9-26.5-24.3-59.5-20.2-90.6h0l-.2-.2Z"></path><path class="cls-1" d="M890.5,275.7c-.8-6.4-2.1-13.2-5.8-19.1-4.5-7.3-12-11.6-19.5-11.2-6.3.3-12.5,4.1-16.5,10-3.7,5.4-5.1,11.5-5.9,16.2-.4,2-.7,4-.9,6,0,0,0-.1,0-.1-7.2-8.4-17.2-17.7-29.5-15.9-7,1-13.5,5.8-17.2,12.9-2.8,5.4-4.1,11.9-3.9,19.5.6,17.5,9.1,35.2,23.8,49.7,13.9,13.7,31.5,22.9,45.3,29.4,1.4.6,4.2,2,7.4,2s3.6-.4,5.4-1.6c2.7-1.8,3.9-4.5,4.6-6.1,12.5-28.8,16.9-60.4,12.8-91.5h0v-.2ZM813.8,272c.5,0,1-.1,1.5-.1,2.8,0,5.7,1.2,8.4,3-5.9-2.4-11.4-2.3-16,.3,1.8-1.7,4-2.8,6.1-3.1h0ZM811.7,298.9c-1.1-3.4-1.8-7.3-1.3-10.3-.2,2.8.5,5.4.9,6.8,2,6.9,4.5,13.7,7.6,20.3-2.9-5.4-5.4-11-7.2-16.8ZM830.9,303.2c-1.6,2-2.5,4.2-3,6.6-2.6-5.6-4.7-11.4-6.4-17.3-.6-2.3-.6-3-.7-3,.2-.1.8-.2,1.3,0,1.5.5,3,2.1,4.2,3.5,2.3,2.5,4.4,5.2,6.5,8-.7.6-1.4,1.3-2,2.1h.1ZM842.3,323.1c-2.6-4.3-4.9-9.5-3.4-12.6,1.4,2.5,2.8,5.2,4.1,7.9v1c-.4,1.2-.6,2.5-.8,3.8h.1ZM844.5,346.2h.4c.4.5.9,1,1.3,1.4-.6-.4-1.1-.9-1.7-1.3h0ZM865.8,355.1c-2.4,2.2-7.9.1-11.9-2.3-1.1-.7-2.1-1.3-3.2-2,1.3.6,2.5,1,3.6,1.1,1.2,1.9,3.5,2.9,5.7,2.4,0,0,.3,0,.4-.1,1.4.6,3,.9,4.6.6.4,0,.9-.1,1.3-.3-.2.2-.3.4-.5.6h0ZM870.7,319.1c0-.2-.2-.4-.3-.6.3-.2.5-.4.8-.6-.2.4-.3.9-.5,1.3h0ZM870.6,281.7c-2.5-1-5.1-.8-7.4.5-1,.6-2,1.4-2.7,2.3,0-1.1.2-2.2.3-3.3.4-5,1.7-8.2,3.3-8.8.2,0,.5-.1.7-.1,1,0,2.3.6,3.2,1.5,1.8,1.8,2.9,4.6,3.6,6.8.2.6.4,1.2.6,1.9-.6-.4-1.1-.6-1.6-.8h0ZM876.7,337.1c-.3-1.3-.6-2.6-.9-3.9,0-.2.2-.4.4-.6,1-1.7,1.8-3.4,2.6-5.1-.6,3.2-1.3,6.4-2.1,9.6h0ZM875.5,266.2c-3-2.9-6.9-4.5-10.7-4.5s-2.9.2-4.3.7c-2.1.8-3.9,2-5.3,3.6.7-1.8,1.5-3.4,2.4-4.7,2.1-3.1,5.3-5.2,8.3-5.3,4-.2,7.8,3,9.9,6.2,1.5,2.5,2.5,5.4,3.2,8.4-.9-1.5-2-3-3.4-4.4h-.1Z"></path><g><path class="cls-1" d="M303.9,1560.5c-3.3,0-6.4-.6-9.3-1.8-8.6-3.5-15-12.2-17.1-23.4-.3-1.8-.5-3.5-.7-5.3-1.5-3.2-2.6-6.7-3-10.5-.8-8.4,2.2-17.5,8.2-24.9,11-13.5,30.9-19.1,47.2-13.2,16.7,6,28.2,23.1,27.4,40.7-.8,17.7-14.4,33.8-31.6,37.5-1.5.3-2.9.2-4.2-.4-2.9.6-6,.7-9,.3h-.5c-2.5.6-5,.9-7.4.9h0ZM309.6,1506.1c.8,0,1.5,0,2.3.2,4.6.6,8.8,3.1,11.5,6.7,4.5,5.9,4.9,14.7,1,21.8-.8,1.5-1.8,2.9-3,4.2,4.8-3.4,8.2-7,10.4-10.8.4-.6.7-1.2,1-1.9.2-6.6-2-13.9-6.5-20.4-.3-.4-.7-1-1.2-1.6-.9-.5-1.9-.9-3-1.3-7-2.7-14.4-2.6-20.5,0-.6.3-1.2.6-1.8.9-5,5.4-8.2,12.5-8.9,19.8,1.2,3.7,3.7,6.9,7,8.4.9.4,1.8.7,2.7.8-3.4-2.2-5.6-5.9-6.1-10.2-.6-5.2,1.5-10.4,5.4-13.4,2.7-2.1,6-3.2,9.4-3.2h.3ZM308.8,1521.2c2.2,1.2,3.5,3.5,3.6,5.8.7-2,.6-4.2-.4-5.6-.4-.6-1.2-1-2.1-1.1-.6,0-1,0-1.1.2v.7h0Z"></path><g><path class="cls-1" d="M270.3,1680.3c-2.3,0-4.8-.3-7.2-1.1-6-1.8-14.1-7-18.4-21-8.2-26.8-.3-56.4,20.7-77.2,9.7-9.6,20.6-14.1,30.8-12.6,9.5,1.4,17.8,8.2,21.4,17.3,2.6,6.6,2.8,14.3.7,23.5-.3,1.4-.7,2.8-1.1,4.2,2.2,1.4,3.5,4.1,3.2,6.8-2.2,17.4-10.7,34.3-24,47.5-4.2,4.1-14.1,12.5-25.9,12.5h-.2ZM262.8,1662.9c1.3,1.4,2.8,2.3,4.4,2.8,5.6,1.7,12.4-2,17.4-6.4-7.4,4.6-15.1,6-21.7,3.7h0ZM269.6,1614.8c-3,7.2-5,14.7-5.9,22.1-.3,2.5-1,10.8,3.9,12.5,5.2,1.8,12.1-3.9,14.1-5.8,3.8-3.4,7.1-7.2,10.1-11.1-.5.4-1.1.8-1.8,1.2-4.4,2.7-11.5,3.8-16.7-.2-2.9-2.2-6.1-6.6-4.5-15.1.2-1.2.5-2.5.8-3.7h0ZM282.5,1623.3h0ZM288.4,1594.9c1.8,2.2,2.3,5.3.9,7.9-3.1,5.8-5.3,12-6.5,18.3v.6c1.2-.8,2.3-2.5,3.4-4.2,4-6.3,7.1-11.5,6.8-16.4-.1-1.9-1.4-4-3.2-5.5-.4-.3-.8-.6-1.3-.8h0ZM295.9,1582.9c.9.5,1.8,1.1,2.6,1.8,2.6,2.1,4.7,4.7,6.2,7.6-.1-.5-.3-1-.5-1.4-1.2-3.2-4.2-6.6-8.3-7.9h0Z"></path><path class="cls-1" d="M416.2,1641.2c-1.8,0-3.7-.2-5.6-.5-8.1-1.4-15-5.2-21.3-9.2-13.4-8.5-25.8-18.6-36.9-30-6.4-6.6-13.6-15.7-13.2-26.9.3-8.5,5.2-16.7,13-21.8,6-4,13.6-6.1,22.4-6.4,11.8-.4,23.7,2.7,33.9,8.7,6.8,2.5,13,7.3,18,13.9,5.4,7.1,8.6,15,11.7,23.2,0,.2.2.4.2.6,7.4,9.3,9.3,17.6,5.7,24.7-.4.7-.8,1.5-1.4,2.2-1,5.3-3.3,10-6.6,13.6-4.9,5.1-12,7.9-19.8,7.9h-.1ZM413.7,1613.1c3,.3,6,.5,9,.5s4.7-.3,6.3-.9v-1.3c-2.1-1.1-3.6-3.2-3.8-5.8-.2-2.8-.7-5.6-1.4-8.3-5.2-6.2-10.8-12.2-17.4-17-5.2-3.8-13.2-8.3-22.4-8.9-1.4.8-2.9,1.7-4.4,2.7-1,.7-2,1.4-3.1,2.3.3.4.7.9,1.2,1.4,9.2,10.5,21.8,18.3,35.3,21.9,3.8,1,6,4.9,5,8.7-.6,2.3-2.2,4-4.3,4.8h0ZM370.4,1590.8c2,4.7,7.4,8.7,10,10.4,6,3.9,12.6,7,19.5,9.1-11-4.4-21.2-11.1-29.5-19.5ZM367.1,1561.6c-2.7.7-5,1.7-7.1,3-4,2.6-6.5,6.6-6.6,10.5-.1,2.7.9,5.4,2.4,8,.7-3.9,2.4-7.6,5.1-11.1.5-4.6,2.9-8,6.1-10.4h.1Z"></path><path class="cls-1" d="M415.7,1535.9c-13.3,0-26.6-2.2-39.1-6.5-2.7-.9-9-3.1-11.6-9.2-2.7-6.3-.4-13,6.7-20,3.1-3.1,6.4-6.3,9.9-9.5,1.6-2.4,3.9-4.8,6.8-6.9,3.3-2.5,6.9-4.6,10.7-6.3.9-.5,1.8-1.1,2.8-1.6,14-7.4,29.1-8.9,41.4-4.1,4.5,1.8,8.6,4.4,11.9,7.7,1.2.7,2.5,1.4,3.7,2.2,10.6,7.1,16.2,17,15,26.6-1.4,10.7-10.5,18.9-25.6,23.1-10.5,2.9-21.5,4.4-32.5,4.4h0ZM378.1,1514.7c.4.3,1.2.7,3,1.3,1,.4,2.1.7,3.1,1-1.8-2-2.8-4.1-3.4-6-1.9,2-2.5,3.1-2.7,3.7ZM440.1,1509.8c2.6,0,4.9,1.4,6.2,3.6,2.2-2.1,3.8-4.6,4.5-7.5,1.3-5.3-.9-10.9-4.6-15-4.4-2.2-9.1-3.6-13.9-4.3-.1,3.4-2.7,6.4-6.2,6.8-10.2,1.2-20,5-28.4,11,.2,0,.4.2.6.3,13,5.2,27.1,7,41,5.2h.9-.1Z"></path><path class="cls-1" d="M353,1478.4c-3.6,0-7-.8-9.9-2.5-9.7-5.5-11.6-17.8-10-27.4,3.3-20.7,17.9-38.7,37.4-46.2,1.2-.7,2.5-1.4,3.8-2,8.4-4,16-4.2,21.9-.7,7.3,4.4,10.4,13.5,8.5,25-3.5,21.3-17.8,40.5-37.2,50-5.1,2.5-10,3.8-14.4,3.8h0ZM377.5,1431.3c-1.3,0-2.8.4-4.2,1.2-2.6,1.5-4.9,3.9-6.9,6.4-3.6,4.2-5.3,8.3-4.3,10.2.5.9,2,1.7,3.5,1.8,2,.2,4.3-.4,7-1.8,8.9-4.4,15.3-13.7,16.3-23.6.4-4.4-.8-9.9-3.9-11.2-1.8-.8-4.6-.5-8.3.8h-.1c-1.2.8-2.5,1.6-3.6,2.5,3.7-.8,7.5-.6,10.8.6,3.7,1.3,5.6,5.4,4.2,9.1-1.3,3.7-5.4,5.6-9.1,4.2-.5-.2-1-.2-1.5-.2h.1Z"></path><path class="cls-1" d="M276.1,1480c-1.4,0-2.9,0-4.3-.3-13.8-1.8-26.7-12.2-32.8-26.5-4.9-11.4-5.9-25.4-2.9-40.4,2.7-13.5,10.1-22.1,19.8-23,3.3-.3,6.4.4,9.2,1.5.8,0,1.5.2,2.3.4,6.5,1.4,11.4,5.7,15.4,9.6,6.6,6.6,12.5,13.9,17.4,21.8,7.8,12.5,10.4,23.4,8,33.4-3.4,13.6-17.2,23.5-32,23.5h-.1ZM271,1458.7c1.6.9,3.2,1.5,4.9,1.8,1.9.3,4,.2,5.8-.3.8-.5,1.7-.8,2.6-.9,2.5-1.2,4.6-3,5.8-5.3,1.7-3.2,2.1-7.6.9-12.1-.4,5.9-3.5,11.3-8.5,13.8-3.6,1.8-7.8,2-11.7.5-1.5-.5-2.9-1.3-4.2-2.2,1.4,1.6,2.8,3.1,4.3,4.6h.1ZM272.2,1432.5c-.2,3.1-.1,5.8.8,7.9.8,1.7,2.7,2.8,3.3,2.6.3-.2,1-1.9.5-3.6-.7-2.3-2.5-4.6-4.5-6.8h0ZM261.6,1405.6c-4.2.7-8.2,4.8-9.5,9.2-.8,2.8-1,5.8-.5,9.2h0c4.1-8,9.3-10.2,13.1-10.6,2.5-.3,4.9,0,6.9.9-2.1-2-4.2-4-6.5-5.9-1-.9-2.3-1.9-3.6-2.7h.1Z"></path><path class="cls-1" d="M231.1,1568.8h-2.1c-3.6-.2-7.2-.7-10.6-1.5-18,1.6-36.6-3.6-50.3-15.4-8.2-7.1-15.4-18.8-11.2-30.4,3-8.5,11-13.2,16.7-15.9,6.9-3.3,14.1-5.9,21.5-7.7,5-3.1,10.5-5.4,16.2-6.6,14.9-3.1,31.3,1.2,42.8,11.3,5.5,4.8,10.3,11.7,12.2,19.4,3.7,8.8,4,18.6.1,26.9-6.5,14-22.1,20.1-35.4,20.1h0v-.2ZM209.9,1530.4c-1.6,1.9-2.5,4.2-2.2,6.1.4,2.2,2.4,4.5,5.2,5.9,3.5,1.7,7.9,2.1,11.7,2.3,7.4.4,12.7-.2,17.2-1.8,5-1.8,8.9-5.3,10.4-9.2.9-2.2,1-4.6.6-7-1.6-3.4-3.9-6.6-6.6-8.9,2,3.7,2.3,8.3.7,12.7-2.1,6-7.4,10.7-13.3,11.9-8.9,1.7-18.6-3.2-23.9-12h.2ZM200.7,1511.1c-4.9,3.5-8.9,8.2-11.4,13.6-1.2,2.5-2.9,7.1-1.5,10.6,1,2.5,3.7,4.6,6.8,6.4-.3-.9-.5-1.8-.7-2.8-1.4-7.9,2.5-16.6,9.9-21.9,6-4.4,13.1-6.1,19.3-7.1.6,0,1.5-.2,2.4-.4-4.9-.6-9.7-.4-13.8,0-3.7.3-7.4.9-11,1.7h0ZM175.5,1520.6c-2.9,1.8-4.6,3.7-5.3,5.6-1.1,3.2.5,7.2,3.2,10.7-1-5-.3-10.6,2.1-16.3h0ZM222.9,1524.3c2.1,2.7,5.3,4.7,8.1,4.2,1-.2,2.2-1.4,2.6-2.7.2-.7.2-1.2.1-1.3-.7-.9-3.3-1.5-8.5-.6-.8,0-1.6.3-2.4.4h0Z"></path></g></g><g><path class="cls-1" d="M1684.1,1460.4c-4.6-5.1-7.8-11.4-8.9-18.2-3.1-18.4,9.6-38,27.6-42.8,18.3-4.8,38.6,5.7,45.2,23.4,6.6,17.6-1.7,38.9-18.5,47.4-1.2.6-2.5.8-3.8.7-3.3,1.4-6.8,2.2-10.4,2.5-11.8,1-23.4-4.4-31.2-13.1h0ZM1690,1443.2c3.4,9.8,13.9,17.1,24.2,16.2,11.5-.9,21.5-11.8,21.4-23.3,0-7.3-4-14.5-9.9-18s-14-3.1-19.1.9c-1.8,1.4-3.3,3.4-4.2,5.5.8-.8,1.7-1.5,2.7-2.1,4.5-2.8,10-3.4,14.7-1.5,4.1,1.7,7.4,5,9.2,9.4,1.9,4.6,1.9,9.7,0,14-3.3,7.8-12.2,12.8-21.1,11.7-7.4-.9-14.2-5.8-17.9-12.8h0ZM1715.3,1434.6c-.2-.3-.5-.4-.7-.6-.4-.2-1.2,0-1.8.4-.6.3-.8.7-.8.8-.2,2.8-1.9,5.1-4.3,6.1.7.3,1.4.5,2.1.6,2.6.3,5.4-1.1,6.3-3.2.4-.8.3-2,0-3-.2-.4-.4-.8-.7-1.1h0Z"></path><g><path class="cls-1" d="M1759.1,1443.7c-3.9-4.4-6.4-9.8-6.7-15.4,0-1.5,0-3.1.2-4.6h-.3c-3.8.7-7.5-1.9-8.2-5.8-1.9-11.2,4.2-23.3,15.2-30,9.7-5.9,21-7,29.8-7.3,9.5-.3,23.5,0,35.7,6.9,13,7.2,20.8,20.7,19.5,33.7-1.1,10.7-8.2,20.7-19,26.6-10,5.5-21.5,6.7-29.2,7.2-7.4.4-17.1.4-25.9-3.4-4.3-1.9-8-4.6-10.9-7.9h-.2ZM1767.8,1421.7c-1,1.9-1.5,3.9-1.3,5.8.3,5.1,4.8,9.3,9.2,11.2,6,2.6,13.2,2.6,19.4,2.3,10.3-.6,17.4-2.3,23.2-5.4,6.6-3.6,11.2-9.6,11.8-15.7.4-3.8-.8-7.8-3.1-11.4.9,5.9-.3,12.2-3.7,17.5-5.7,8.6-16.5,13.5-27.6,12.6-9-.7-18.1-5.2-25.7-12.4-1.2-1.2-2-2.8-2.1-4.4h-.1ZM1779,1395.8c-4.3.7-8.6,2-12.4,4.3-3.6,2.2-6.9,5.9-8.2,10.1,1.3-1.6,2.8-3.2,4.4-4.7,4.8-4.2,10.2-7,16.2-9.7h0ZM1798.8,1407.9c1.1,1.2,1.7,2.8,1.8,4.5,0,3.9-3,7.2-6.9,7.3-2.3,0-4.6.6-6.8,1.4,3.3,1.8,6.6,2.9,9.9,3.2,5.9.5,11.8-2,14.6-6.3,2.6-4,2.1-10-1.1-12.7-3.4-2.9-9.3-2.8-17.8.2h.8c2.2,0,4.1.9,5.5,2.4h0Z"></path><path class="cls-1" d="M1740.7,1529.2c-4.7-5.3-8.5-11.3-11.2-17.8,0-.3-.2-.6-.3-.8-1.3-2.1-2.4-4.3-3.2-6.6-5-14.8,3.9-32.5,19.5-38.5,13-5.1,29.3-2,41.6,7.8,9.5,7.6,16.9,19,22,33.8,5.3,15.5,3.8,28.4-4.3,36.2-6.3,6.1-16,8.4-27.4,6.5-14.1-2.4-27.2-9.9-36.8-20.6h.1ZM1739,1493.4c-.3,2.1-.2,4.2.5,6.1,1.7,5.1,6.5,9.7,14.6,13.9,8.3,4.4,18.9,6.5,23.9,1.4,3-3.1,3.5-9.1,1.1-13.9s-9.2-9.9-13.9-12.1c-5.1-2.4-10.7-2.6-12-.4-.8,1.2-.3,3.7,1.1,5.6,2,2.8,5.5,5,8.9,7.2,3.3,2.1,4.3,6.5,2.2,9.8-2.1,3.3-6.5,4.3-9.8,2.2-4.1-2.6-9.3-5.9-12.9-11-2-2.8-3.2-5.8-3.8-8.9h.1ZM1794.8,1508.9c-.3,6-2.6,11.6-6.6,15.8-5.7,5.8-13.1,7.7-20.8,7.2,3.9,1.8,8.1,3.2,12.4,3.9,3.2.5,11,1.3,15.2-2.7,5.5-5.4,2.4-16.8.8-21.5-.3-.9-.6-1.8-1-2.7h0Z"></path><path class="cls-1" d="M1641.8,1571.2c-4-4.5-6.8-11.3-8.3-20.3-1.9-11.4-3.7-24.6-1.2-37.5,2.9-15,11.8-27.3,23.6-32.7,14.8-6.8,33-1.2,39.8,12.2,4.8,9.5,3,19.7-.2,27.9-.2,15.4-8.7,28.7-15.5,39.3-3.2,4.9-12.7,19.9-27.3,17.2-4.3-.8-7.9-2.8-10.9-6.2h0ZM1647,1545.2c.2,1.1.3,2.2.5,3.3,1.5,8.8,4.3,14.3,7.8,14.9,3.4.6,7.8-3.1,12.8-10.9.6-.9,1.2-1.9,1.8-2.8-3.1.6-6.3.4-9.3-.9-2.7-1.1-4.9-2.9-6.6-5.2-.8.7-1.8,1.3-2.9,1.6-1.4.4-2.8.4-4,0h-.1ZM1676,1506.8c-.5-.5-.9-1-1.4-1.4-1.9-1.7-4.9-3.6-8.7-3.2-5.8.7-10.3,6.6-11.8,12.1-.6,2.4-.9,5-.8,7.9,3-4.8,8-8.7,14.2-10.9,3.7-1.3,7.7.5,9.1,4.2,1.3,3.7-.5,7.8-4.2,9.1-3.8,1.4-6.7,3.8-7.7,6.4-.7,1.9,0,4.4,1.2,4.9,2.1.9,6.5-2.7,10.1-8.3,2.1-3.3,3.9-6.4,5.2-9.3-.5-4.1-2.4-8.3-5.2-11.4h0Z"></path><path class="cls-1" d="M1554.4,1425.5c-2.9-3.3-5.5-7.5-5.9-12.7-.8-9.4,5.5-18.1,17.2-23.9,21.2-10.5,47-11.6,69-2.9,9.9,3.9,17.5,9.3,22.5,16,6.7,9,8.5,20.4,4.6,29.7-5.7,13.5-21.9,20.4-43.2,18.5-2.4-.2-4.8-.5-7.1-.8-1.6,1.5-3.8,2.3-6.2,1.9-16.7-2.9-32.5-10.1-45.7-20.8-1.7-1.3-3.5-3-5.3-4.9h0ZM1605.8,1401.4c-10.3-2.2-21.4-.8-30.2,4.7-4.2,2.6-6.8,5.6-7,8.2-.5,5.1,6.9,9.9,13.3,12.5,12.2,4.9,25,8,38,9.2,11.5,1,25.1-1,28.9-9.9,1.9-4.5.8-10.8-2.9-15.7-2.2-3-5.4-5.7-9.5-8,.2.2.4.4.6.7,7.2,7.7,9.1,16.8,4.8,23.5-3,4.7-8.4,7.3-16,7.9-14.7,1-29.4-2.9-41.6-11.2-1.8-1.2-2.9-3.1-3.1-5.2s.5-4.2,2-5.7c6.1-6.1,14.1-9.9,22.6-11h0ZM1628.9,1415.6c-2,2.1-5.2,2.9-8.1,1.6-5.8-2.6-12.7-2.6-18.7-.4,7.2,2.8,14.9,4.1,22.7,3.5,4.3-.3,5.1-1.3,5.1-1.4.2-.3,0-1.6-1-3.3h0Z"></path><path class="cls-1" d="M1684.4,1389.9c-2-2.3-2.4-5.7-.7-8.5.5-.8,1.1-1.4,1.8-1.9-15.7-14.8-21.8-39.8-13-59.8,5.4-12.3,15.6-20.6,26.6-21.7,11.4-1.2,23.2,5.2,32.4,17.5,13.1,17.6,16.5,39.9,8.7,56.9-4.8,10.4-14.5,18.6-25.9,22-10.1,3-20.1,1.9-28.2-3.2-.6-.4-1.1-.8-1.5-1.3h-.2ZM1702.7,1368.8c-.5,1.4-1.5,2.7-2.9,3.5,0,0-.3.2-.4.2.8.5,1.6,1,2.4,1.5,2.2,1.2,6.4,3.2,9.4,2.1,2.4-.9,4.7-3.9,6.5-8.9.8-2.3,1.6-4.6,2.1-6.9-1.6,2.6-3.7,4.8-6.8,6.5-3.2,1.7-6.8,2.3-10.4,2h.1ZM1696.1,1332.5c-.6,3.2-.4,6.4-.2,9,.5,5,1.8,8.7,4,11,1.8,1.9,4.8,2.8,6.4,1.9,2.2-1.2,3.3-5.5,3.2-12.1,0-4.6-.5-10.2-3.3-12.4-2.3-1.9-7-1-9.4,1.7-.3.3-.5.6-.7.9h0Z"></path></g></g><path class="cls-1" d="M1278.5,1234.7c-2.8-3.6-6.2-6.2-9.9-7.5-8.6-3.1-17.2.9-21.9,3.1-12.1,5.6-22.3,15.9-30.5,30.9-1.2,1.2-2.2,2.5-3.2,3.7-5.8-9.9-13.6-16.6-22.8-19.3-5.8-1.7-11.2-1.4-15.8.7-.3,0-.6.3-.8.4-4.1.4-8.2,1.7-11.9,4.4-17,12-12.7,34.4-10.7,45.2,2.7,14.3,7.1,27.6,12.7,39.2,5,15.8,16.1,33.2,34.1,40.9,0,0,.2,0,.3.2,2.8,3.9,6.7,6.1,11.3,6.1h.3c.6.2,1.2.2,1.7.2,1.8,0,3.6-.8,4.9-2.1.6-.3,1.2-.7,1.8-1.1,1.9-1.1,3.9-2.6,6.1-4.6,3.2-3,6.3-6.1,9.3-9.3,2.8-1.2,4.7-3.2,6.3-5.3,2.8-3.5,5.3-7.2,7.5-11,3.8-5,7.4-10.2,10.8-15.5,2.4-3.6,4.6-7.2,6.7-11,.7-1.3,1.3-2.5,1.9-3.8.8-1.5,1.5-2.9,2.3-4.4,6.7-13.5,10.6-25.2,12.1-36.5,1.4-3.9,2.7-8,3.4-12.6,2-13,0-23.4-5.8-31h-.2ZM1263.8,1240.6c1.1.4,2.2,1.3,3.2,2.6-2.5-1.2-5.2-2-7.9-2.5,1.8-.4,3.3-.5,4.6,0h.1ZM1209.3,1362.8v-.2c0,0,.2,0,.3,0,.2,0,.4.2.7.3,1.1.4,2.3.4,3.5.3-.6,1.4-1.2,2.2-1.7,2.3-.4,0-1.2,0-2.7-.2v-2.4h-.1ZM1183.2,1320.9c-2.6-7.9-4-16.3-3.9-24.7,1.6,1.8,3.2,3.7,4.7,5.7-.9,6.3-1.2,12.7-.7,19h0ZM1188.6,1283.9c0,.3-.2.7-.4,1-3.2-3.3-6.6-6.5-10.2-9.3-.8-.6-1.7-1.1-2.7-1.3,0-.6,0-1.3.2-1.9.4-3.9,1.1-8.8,3-11.6,3.9.4,8,2.1,11.3,4.3,5.4,3.5,10.2,8.4,14.2,14.4-.7,1.7-1.2,3.4-1.5,5.1-.6-.8-1.2-1.8-1.8-2.6-1.4-1.7-3.4-2.6-5.5-2.6s-.8,0-1.1,0c-2.5.4-4.6,2.1-5.5,4.5h0ZM1230.7,1324.2c-.2-5.4-.6-10.9-1.4-16.3,2.1-7.5,5-14.8,8.8-21.6,0,.5,0,.9.2,1.4.8,12.5-2,25.2-7.6,36.5h0ZM1267.3,1272c0,.9-.2,1.9-.2,2.8-.7,1.8-1.5,3.7-2.3,5.6-.4.9-.7,1.7-1.1,2.6-1.1-5.5-2.9-10.8-5.3-15.9-.7-1.6-2.5-5.2-6.3-7.1-1.6-.8-3.3-1.2-5-1.2-3.4,0-6.8,1.6-9.9,4.5-.8-.2-1.7-.4-2.5-.4,3.9-3.3,8.1-6.2,12.8-7.7,6.1-2,14.5-.8,17.9,4.4,1.7,2.7,2.4,6.8,2,12.4h0Z"></path></g><g><path class="cls-2" d="M767.9,886.7c-47.8-36.9-106.7-56.6-180.1-60.4-3.5-.2-28,.7-58.5,3.5-.5-20.4-1-40.8-1.5-60.9,0-2.1-1-4.1-2.7-5.4s-3.8-1.8-5.8-1.4c-10.4,2-19.4,5.9-28.1,10-1.1-.6-2.3-.9-3.6-.8-3.3.2-5.9,2.5-6.5,5.6-7.4,3.4-14.6,6.3-22.6,7.9-3.5.7-6,3.8-5.8,7.4l2.6,48c-27.3,5.5-50.4,13.1-58.7,23.3-4.7,5.7-4.6,11.2-3.7,14.8,1.9,7.5,1.9,14.7,1.8,22.2-1.5.8-2.8,2.1-3.5,3.8l-.7,1.9c-1,2.8-.2,6,2.1,7.9.8.7,1.7,1.1,2.6,1.3.3,3.5.8,7.2,1.8,11,.5,2.2,2.1,4,4.2,4.8,2.1.9,4.5.7,6.4-.5,16.1-9.8,33.4-17.4,51.5-22.9l17.7,325.6c-16.5-2.2-32.6-4.7-48.3-7.2-1.9-.3-3.9.2-5.5,1.4-1.5,1.2-2.5,3-2.7,5-.2,2.4-.5,4.8-.7,7.2-.3,3-.6,5.9-.9,8.8-.4.3-.7.7-1,1.1-1.8,2.7-1.5,6.2.5,8.5,0,7.1.6,14,3,21-.8.8-1.4,1.8-1.7,3-1,3.8,1.2,7.7,5,8.7,1,.2,1.9.4,2.9.7.3.5.6.9.9,1.4,1.2,1.7,3,2.7,5.1,2.9,15.6,1.5,31.2,3.1,47,4.4l1.5,26.9c.1,1.9,1,3.7,2.4,4.9,1.3,1.2,3,1.8,4.7,1.8s.3,0,.5,0c7.4-.5,13-1.3,18.1-2.2h1.3c.7,0,1.4-.3,2-.6.9-.2,1.8-.3,2.7-.5,6.6-1.3,12.8-2.4,22.4-3.1,3.8-.3,6.7-3.5,6.6-7.3,0-5.4-.3-10.9-.4-16.3,5,0,10.1.2,15.1.2,34.8,0,69.7-2.9,104.1-11.1,109.6-26.2,213.9-126.8,198.9-249.7-7.3-59.7-41-116.7-92.4-156.3h0v-.3ZM433.3,1245.6c.4,0,.7.3,1.1.3,8.2,1.8,16.2,4.5,23.8,8,.4.7.8,1.3,1.4,1.8-4.5-1.8-8.9-3.9-13.1-6.3-3.4-1.9-7.8-.7-9.7,2.7-.1.2-.2.4-.3.7-1.2-.6-2.4-1.3-3.6-1.9.1-1.7.3-3.5.5-5.3h0ZM484.6,1115.1c.6,6.4,1.3,12.8,2,19.3-.3-.3-.6-.6-1-.9l-1-18.4ZM521.7,1288.7h-.4v-1.5h.5c0,.3,0,.6-.2.9v.5h.1ZM667.3,1248.9c-5.4.5-10.7,1.1-16.1,1.5,31.1-9.1,60.3-24.6,85.1-45.5-3.2,3.8-6.6,7.5-10.2,11-17.7,13.9-37.6,25-58.8,33h0ZM502.3,874.4c.5,0,.9-.2,1.4-.3v.9c-.5,0-.9,0-1.4.2v-.8h0ZM525.6,1238.4l-2.7-49.6c.4,0,.7.2,1.1.2h.9c.4,16.5.9,33,1.3,49.5h-.6ZM504.4,898.6c.6,21.2,1.2,42.1,1.9,62.9-1.8-20.9-3-41.8-3.6-62.7.5,0,1.1-.2,1.6-.2h.1ZM505.2,1022.8h1c1,0,1.9-.5,2.7-1v1.6c-2.7,1-4.6,3.6-4.6,6.7,0,5.1.1,10.2.2,15.3h0l-2.4-23.3c.9.5,2,.8,3,.8h0ZM740.4,946.4c7.6,9.3,14.4,19.2,20.5,29.5l-20.5-29.5ZM768.4,1094.2c-6,71.3-73.1,120.5-132.9,136.1-30.9,8.1-63.1,10-95.1,8.8-1.7-64.9-3.5-130.6-5.3-194.6-1.3-48.5-2.7-98-4-147.3,57.5,0,116.3,18.6,164.2,55.4,38.6,29.7,78.1,82.5,73.1,141.6h0ZM748.3,1188.9c-2,2.9-4,5.8-6.1,8.5,0-.8,0-1.7,0-2.6,2.1-1.9,4.2-3.9,6.2-6h0ZM795.3,1143.3c0,1,0,2,.2,2.9-.7,1.4-1.5,2.8-2.3,4.2.8-2.3,1.4-4.7,2.1-7.1ZM660,891c2,1.5,3.9,2.9,5.8,4.4-6-2.5-12.1-4.8-18.3-7-2.5-1.3-5.1-2.6-7.7-3.9l.9-.9c6.5,2.2,12.9,4.7,19.2,7.3h0ZM564.8,883.9c.9.6,1.9,1,3,1.1,25.2,2.7,50.1,8.3,74,16.6,12.5,6.6,24.6,14,36.2,22-37-22.3-78.5-35.5-120.2-39.4,2.3,0,4.6-.2,6.9-.3h0ZM769.5,1181.5s0,.2.2.3c-.3.3-.7.7-1,1,.2-.4.5-.9.8-1.3h0ZM738.6,909.7c-8.8-8.6-18.3-16.5-28.3-23.6,10.3,6.8,19.8,14.7,28.3,23.6ZM705.3,902.6c-6.6-5.5-13.4-10.6-20.4-15.5,7.6,4.3,14.9,9,21.9,14.2-.5.4-1,.8-1.5,1.3ZM530.5,871.8v-2.8c14.1-.9,28.2-.8,42.3.4-14.1.2-28.2,1-42.2,2.3h0ZM467.2,1258.6c-.7-.2-1.4-.5-2.1-.8.4,0,.7,0,1.1.2s.7.4,1.1.6h-.1ZM605.6,1277.1c11.1-.9,22.2-2.5,33.1-4.9-11.7,3-23.5,5.4-35.5,7.4,1-.6,1.8-1.5,2.4-2.5ZM689.9,1255.1v-.3c12.1-5.7,23.7-12.3,34.6-19.9,1.5,0,2.9-.6,4.1-1.7,2.4-2.1,4.7-4.3,6.9-6.5,4.6-3.7,9.1-7.4,13.4-11.5,1.7-1.6,2.3-3.7,2.1-5.8.2-.3.4-.5.6-.8,1.3,1.1,2.9,1.6,4.5,1.6s2.9-.4,4.2-1.4c1.1-.8,2.2-1.7,3.3-2.6-17.9,21.5-44.6,36.5-67.3,46.2-2.2.9-4.3,1.8-6.5,2.6h.1ZM775.6,913.2c-.6-1-1.3-2-2-3,.8.7,1.7,1.5,2.5,2.2-.2.2-.4.5-.5.8h0ZM755.6,897c-.3.2-.6.5-.9.8-1.3-1-2.6-2-3.8-3.1-1.3-1.9-2.6-3.8-4-5.6,3.4,2.3,6.7,4.6,9.9,7.1-.4.2-.8.4-1.2.7h0ZM739,885.8c-8.3-5.9-17-11.3-26.1-16.1,10,4.8,19.6,10.1,28.8,16-.9,0-1.8,0-2.7,0h0ZM649.8,863.9c-.2.6-.3,1.3-.4,1.9-4.5-2.3-9.1-4.5-13.8-6.5,5.2.6,10.3,1.4,15.4,2.4-.5.6-1,1.3-1.2,2.2h0ZM573.7,855.3c-4.5-.4-8.9-.7-13.4-.8-.7-1.1-1.8-1.9-3-2.5,1.1-.2,2.2-.3,3.4-.5,4.4.7,8.8,1.5,13.1,2.5,0,.5,0,.9,0,1.4h0ZM483,818.1l-3.2-23.8c0-.4-.2-.8-.3-1.1.7-.3,1.4-.6,2.1-.9l1.4,25.8h0ZM408.8,890.9l15.9-4.5c-5.3,2.5-10.6,5-15.8,7.7,0-1,0-2.1-.1-3.2h0ZM463.2,1274.8c3.7,1.3,7.4,2.5,11.1,3.6-13.3.2-26.6-1.2-39.7-4.1-.8-2.4-1.4-4.9-1.8-7.4,9.6,4.3,19.9,7,30.3,7.9h.1ZM826.9,981.1c-.2-.6-.5-1.2-.7-1.8.3.6.6,1.2.9,1.8h-.2ZM587.1,840.6c13.4.7,26.3,1.9,38.8,3.7-9.5-.5-19-.2-28.4,1-4-1.2-8.1-2.3-12.2-3.3v-.6c0-.3,0-.6-.2-.9h2ZM514.2,795.3c-1.3-1.6-3.4-2.7-5.7-2.6-1.1,0-2.2.4-3.1.9.1-1.7.2-3.5.4-5.2.2-2.4-.8-4.6-2.6-6.1,3.5-1.5,7-2.9,10.6-4.1,0,5.7.3,11.4.4,17h0ZM468.3,815.7l2.9,21.6c-.6,0-1.2.2-1.7.3l-1.2-21.9h0ZM409.1,910.1c.8-.4,1.6-.8,2.4-1.2,1,.5,2.1.9,3.3.9s1.2,0,1.8-.3c-2.5,1.2-4.9,2.5-7.3,3.8,0-1.1-.1-2.1-.1-3.2h0ZM475.7,903.4l6.2,60.3c-2.4.4-4.4,2-5.3,4.1l-3.5-63.8c.9-.2,1.7-.4,2.6-.6h0ZM495.6,1318.4c.3.2.5.3.8.4h-.8v-.6h0v.2ZM541.8,1289.5v-1.3c10.4,0,20.8-.7,31.1-2.1-.7,1-1.1,2.2-1.2,3.4-9.9.2-19.9.2-29.8,0h0ZM824.2,1155.5c3-6.5,5.7-13.2,8-20,13.3-38.4,15.9-80,8-119.7,2.7,9.5,4.6,19.2,5.8,28.9,4.9,40.1-3.9,77.7-21.9,110.7h.1Z"></path><path class="cls-2" d="M1750.3,876.8c-67.2-62.3-171.9-80.2-251.9-45.2-.3-15.4-.4-30.7-.2-46,0-3.5-2.4-6.5-5.8-7.1-1.9-.3-3.8-.6-5.8-.8-.9-.8-2.1-1.3-3.4-1.6-2-.3-3.9.2-5.4,1.3-12.9.3-27.2,3.6-43.3,10.2-2.7,1.1-4.5,3.7-4.4,6.7,0,8.7-.3,15.7-.7,23.7l-.3,6.3c-6.5,129.2-2.5,259.6,11.6,388.5-9.9-1.1-20.1-2.5-30.7-4.2-3.5-.6-6.9,1.5-7.9,4.9-2.8,8.8-4.4,17.2-6.1,25.3-1.6,8.1-3.2,15.8-5.7,23.9-.7,2.1-.3,4.4,1,6.2,1.3,1.8,3.3,2.9,5.5,3,17,.6,34.1,1.3,51.2,1.7.3,2.2.6,4.4.9,6.6.5,3.5,3.5,6.1,7.1,6.1h0c13.1,0,27,.5,40.4,1,13.2.5,26.8,1,39.9,1s4.9-.6,6.5-2.4c1.3-1.6,2-3.6,1.7-5.6-.4-2.9-.8-5.8-1.2-8.7,23.3-2,46.5-5.3,69.5-10.7,79.6-18.7,144.6-62.3,178.3-119.6,48.4-82.2,30.6-198.2-40.6-264.3h0l-.2-.2ZM1621.9,1218.1c16.3-6.7,32.1-14.6,47.2-23.7v.2c-13.8,9.7-28.2,18.4-43.2,26.2-1-1.4-2.4-2.4-4.1-2.8h0ZM1759.3,1003.3c.6,4.8.9,9.6,1,14.4-1.1-4.9-2.5-9.7-4-14.4,0-.7-.2-1.3-.3-2,.9,1,2.1,1.7,3.3,2h0ZM1496.4,1231.2v-.7h1c-.3.2-.6.5-.9.8h0ZM1494.5,1216.2c-2.6-22-4.4-44-5.5-66.1,1,4.9,1.9,9.8,3,14.7l7.2,51.3h-4.7ZM1481.1,1106h-1.1l-.4-9.1c.5,3,.9,6,1.4,9.1h0ZM1720.7,939.2c3.3,2.3,6.6,4.8,9.8,7.2.7,1,1.3,2,1.9,3.1-.9.5-1.6,1.2-2.2,1.9-3-4.2-6.2-8.3-9.5-12.2h0ZM1689.6,899.6c1.6,1.3,3.2,2.7,4.7,4.1-.3,1.2-.2,2.5.2,3.7-3.8-1.8-7.5-3.5-11.4-5.1.5-.6,1-1.2,1.3-1.9.5-1.1.6-2.2.5-3.3,1.6.8,3.1,1.7,4.6,2.6h.1ZM1500.1,881.3l4.8-2.4c-1.6.9-3.2,1.8-4.8,2.8v-.4h0ZM1486.2,890.3c-.2.3-.3.6-.4,1,0,0,0,0-.2.2v-1.3c0-.2.4-.3.6-.5v.7h0ZM1518.7,1215.6c-1.4-5.3-2.7-10.6-4-15.9l-11-117c5.4,44.6,11.4,88.9,17.5,132.8-.8,0-1.6,0-2.4,0h0ZM1607.8,894.3c-4.7-.6-9.4-1-14.3-1.3-27.1-1.5-54,1.3-80.5,5.7,30.6-8.7,63.3-10,94.7-4.4h.1ZM1742.4,1006.8c0,.7.2,1.3.3,2-.3-1.4-.6-2.7-.9-4.1.2.7.4,1.4.6,2.1h0ZM1754.6,1082.2h.9c1.2,0,2.2-.3,3.3-.9-3.5,13.9-8.6,27.4-15.1,40.2,4.8-12.8,8.4-26,10.9-39.4h0ZM1708.4,887.8c-2-2.8-4.3-5.5-6.7-8.1v-.6c3.1,1.3,6.1,2.8,9.1,4.2-1.4,1.2-2.2,2.8-2.4,4.5h0ZM1582.1,1205.8c-14.9,4-30.4,6.8-46.8,8.5-13.6-98.5-27.1-199.1-33.4-299.3,30-5.4,60.5-9.6,90.8-7.8,44,2.5,81.6,17.9,105.9,43.5,36.5,38.4,43.3,104.1,16.2,156.2-24.4,46.8-72.8,82.9-132.8,98.9h.1ZM1780.6,977.8c-1.7-5.5-3.7-10.9-5.8-16.3-.5-1.5-1.1-3.1-1.7-4.6v-.3c3.1,6.9,5.8,13.9,8.1,21.1h-.6ZM1650.2,863c1.1,1.4,2.7,2.4,4.6,2.7,1.2.2,2.5.4,3.7.6,7.3,3.2,14,7.1,20,11.5-19-8.9-39.1-15.5-59.8-19.2-1.6-.3-3.1,0-4.4.7-2.8-.5-5.7-.9-8.5-1.2-3.9-1.2-7.9-2.1-11.9-3,12.6-.2,25.1.5,37.4,2.8,6.6,1.2,13,3,19,5.1h0ZM1707,1144.3c-4.7,7-9.7,13.7-15,20.2-1.6-.3-3.3,0-4.8.8,7.2-6.6,13.8-13.7,19.9-21.1h0ZM1612,841.3c-.2-.5-.5-.9-.9-1.4,5.2.7,10.4,1.6,15.5,2.9-4.9-.7-9.7-1.2-14.6-1.5h0ZM1425.4,1247.5h7.5c4,.7,8,1.4,12,2,0,.5,0,1,.2,1.6l-9.4.9c-3.5-1.2-7-2.7-10.3-4.4h0ZM1526.5,1254.8v1c-.2,0-.6,0-.9.2.4-.4.7-.8.9-1.2ZM1753.3,1149.7c-.3.7-.7,1.3-1,1.9,0,0-.2.2-.3.4.5-.8.9-1.5,1.3-2.3h0ZM1548.4,834.6c-13.4,2-26.7,4.8-39.8,8.2,17.4-7.1,36.1-11.6,55.1-13.5-5.2,1.4-10.4,3.2-15.4,5.3h.1ZM1444.2,1078.6v7.9c-.2-3.1-.4-6.1-.6-9.2,0,.4.2.9.5,1.3h0ZM1412.2,1233.4l1.7.4c-1,.3-1.9.8-2.7,1.5,0-.7.3-1.4.4-2.1.2,0,.4,0,.6.2h0ZM1540.4,1251.3c4-.5,8-1,12-1.6-3.9,1.1-7.9,2.1-11.8,3,0-.5,0-.9-.2-1.4h0ZM1484,838.7c0-2.5,0-5,.2-7.5,0,2.5,0,4.9,0,7.3,0,0-.2,0-.3.2h0ZM1443.5,818.8c.4-6.8.7-12.8.8-19.7,6.6-2.5,12.8-4.3,18.7-5.6,0,.2,0,.5-.2.7-.7,6.2-1.2,12.4-1.7,18.6-.2-.3-.3-.5-.5-.8,0-2.4.2-4.8.2-7.3.2-3.9-2.9-7.2-6.8-7.4s-7.2,2.9-7.4,6.8c-.5,12.6-.9,25.2-1.2,37.8-2.4,25.2-4,50.5-5,75.8.3-31,1.3-61.9,2.8-92.8l.3-6.2h0ZM1446.9,1125.4c2.1,20.3,5.4,40.5,10,60.4.3,9.6.4,19.1.5,28.6-.8,0-1.6-.2-2.3-.2-3.3-29.5-6-59.2-8.2-88.8h0ZM1407.6,1252.5c.4.7,1,1.3,1.7,1.8.6.4,1.3.8,1.9,1.3-.8.7-1.4,1.6-1.9,2.6-1,0-2,0-3,0,.5-1.8.9-3.7,1.3-5.5h0ZM1529.2,1273.9c-2.4,0-4.9,0-7.4-.2v-.9c2.3,0,4.8-.2,7.2-.4,0,.5,0,1,.2,1.4h0ZM1609.4,1246.8c-3.6.8-7.3,1.6-10.9,2.4,4.3-1.7,8.6-3.6,12.8-5.4h0c7.8-.8,15.4-2.2,23-3.9-8.1,2.6-16.4,4.9-25,6.9h0ZM1787.2,1117.6c-.3-.5-.6-.9-1-1.3,2.3-4.1,4.6-8.3,6.7-12.6-1.7,4.7-3.6,9.3-5.6,13.8h0Z"></path><path class="cls-2" d="M1071.4,747.7c1-14.7,2-29.4,3.1-44.1.3-3.9-2.6-7.3-6.5-7.6-8.1-.7-14.3-1.3-19.8-1.9-1.2-1.3-2.8-2.2-4.6-2.4-1.8-.2-3.4.3-4.8,1.3-.8,0-1.6-.2-2.3-.3-5.5-.7-11.2-1.4-18.4-2.2-1.3-1.4-2.7-2.8-4-4.2-2.7-2.8-7.1-3-10-.4-1.6,1.4-3,3-4.2,4.5-1.4,1-2.5,2.4-3,4.1-7.7,12.4-8.6,27.7-9.3,41.6-.2,4-.4,8-.8,11.9-.2,2,.5,3.9,1.8,5.4.3.4.6.7,1,1.1-22,183.7-36.5,369.6-43.1,553.5,0,3.3,2.1,6.3,5.3,7.1,12.6,3.3,27.8,5.3,42.5,7.1,14.2,1.8,29,3.7,40.6,6.8.6.2,1.2.2,1.8.2,1.5,0,2.9-.4,4.1-1.3,1.7-1.2,2.8-3.2,3-5.3,7.9-104,11.7-208.6,15.4-309.8,0-3,.2-6,.3-9l107.9-36.1c53.4,68.1,105,137.7,154.2,208.4,1.3,1.9,3.6,3.1,5.8,3.1s1.2,0,1.8-.2c2.9-.8,5-3.2,5.3-6.2,2.1-22.9,5.3-57.4,16.6-79,1.2-2.4,1.1-5.2-.5-7.4-87.2-123.9-192.8-244.8-279.2-338.7h0ZM1314.6,1116.5c0,1.2.2,2.5.3,3.7v.4c-1.2-1.5-2.3-3.1-3.5-4.6.8.3,1.7.5,2.6.5s.4,0,.5,0h0ZM1256.4,1045c-.3.2-.5.3-.7.5l-21.4-32.5,23.2,31.5c-.3,0-.7.3-1,.5h0ZM1131.6,844.1c.9-.6,1.6-1.4,2.1-2.3,1.7,2.1,3.4,4.1,5.1,6.2-2.4-1.2-5.4-1-7.6.8-.8.6-1.3,1.3-1.8,2.1-.6-.8-1.3-1.5-1.9-2.3.2,0,.3-.2.5-.3,1.2-1,1.9-2.2,2.3-3.6.5-.2,1-.4,1.4-.7h0ZM1002.2,1108.9h0v-.7.7ZM1106.8,855.4c-4.9-5.1-9.8-10.2-14.7-15.3.4-.4.8-.9,1.1-1.4l13.6,16.7ZM1066,843.1c12.2,14.5,24.3,29,36.3,43.7l-39.1,19.7c.9-21,1.8-42.2,2.8-63.3h0ZM1017.5,839.8c-1,1.1-1.6,2.6-1.7,4.2v.6h-.9c1-8.6,2-17.3,3.1-25.9l-.5,21.2h0ZM997.6,977.8h.3c1,0,1.9-.2,2.7-.5-.6,7.1-1.2,14.2-1.9,21.2-.7,1.1-1,2.4-1,3.8l.2,4.5c-.3,3.5-.7,7-1.1,10.4,0-13.2,0-26.3.2-39.5h.6ZM1062.3,927.2l11.9-4.9c-4,2.3-8.1,4.7-12,7.2v-2.2h0ZM1068.8,790.8v-.7l.4.5c-.2,0-.3,0-.4.2h0ZM990.8,1053.6c.8,0,1.5-.4,2.2-.8-.3,2.5-.6,5.1-.9,7.6v1.8c-1.1,8.9-2,17.9-2.8,26.9-.2-5.8-.4-11.6-.5-17.3.6-6.1,1.2-12.1,1.9-18.1h0ZM1123.5,912.6c.9,1.2,1.9,2.3,2.8,3.5-12.9,4.8-25.8,9.8-38.5,14.9,11.7-6.6,23.6-12.7,35.7-18.4ZM1216.4,953c.2-.2.3-.4.5-.6,3.8,5.6,7.7,11.1,11.4,16.7-4.1-5.3-8.1-10.7-12-16.1h0ZM1008,785.5c-2.8,19.8-5.3,39.7-7.6,59.7.3-8.1.6-16.2,1-24.2,1.8-11.9,3.9-23.7,6.6-35.4h0ZM1061.2,957.6c24.5-10.6,49.4-20.6,74.5-29.8,1.5,1.9,3,3.8,4.5,5.6-26.8,7.2-53.2,15.9-79,25.9v-1.7h0ZM1047.7,722l1.2-11.5-.7,12c-.2-.2-.3-.3-.5-.5ZM1010.8,719.4c0,1.3.3,2.6,1,3.7,0,0,0,.2-.2.3-.8,2.1-1.4,4.2-2.2,6.3-.8-.8-1.6-1.5-2.4-2.3.4-3.4.8-6.8,1.2-10.1.8.7,1.6,1.4,2.5,2.1h.1ZM1060.5,974.8c29.1-11.5,59-21.3,89.3-29.2,0,0,.2.2.3.3l-89.7,30.9v-2h0ZM1277,1047.1c.4.5.9.9,1.4,1.4.5.8,1,1.6,1.4,2.4l-2.8-3.8h0ZM1270.5,1008.2c-6.4-10.3-13-20.6-19.7-30.8,8.1,10.2,16.1,20.4,24.1,30.7-1.4-.4-3-.4-4.4,0h0ZM983.2,958.9h-.7c.3-3.2.6-6.5.8-9.7,0,3.3,0,6.5-.2,9.8h.1ZM974.6,1071.2c-2.7,30-3.7,60.1-3,90.1-.9-1.4-2.3-2.4-3.8-2.8,2-33.1,4.2-66.2,6.6-99.3,0,4,.2,8,.3,12h0ZM971.9,1214.3l1.8,90.6c-1.1-.2-2.2-.3-3.3-.5l1.6-90.1h0ZM1021.6,1284.6l.7,27.2c-.2,0-.5,0-.8,0v-1c-.2-8.7-.2-17.3,0-26h0ZM1322,1127h.4c1.5,0,2.8-.6,3.9-1.4-.5,2.5-.9,5.1-1.4,7.6-1.8-2.2-3.6-4.4-5.3-6.7.8.3,1.6.4,2.4.4h0ZM1328.7,1114.3c-.3-3.9-.7-7.9-1.2-11.8.4,0,.8,0,1.2,0,1.3,0,2.6-.5,3.7-1.2-1.4,4.2-2.7,8.4-3.8,12.8h.1ZM1311.9,1094.5l-24.4-33.2c.9.4,2,.7,3,.7s.2,0,.3,0l19,22.3c.8,3.4,1.5,6.8,2.1,10.2h0ZM988,1307v-4c1,1.1,2.5,2,4.1,2.2h.9c1.7,0,3.3-.6,4.6-1.7v4.6c-.6,0-1.1-.2-1.7-.2-2.6-.3-5.3-.7-7.9-1h0ZM1183.1,962.4c.3,0,.6.2.9.3l13.8,21c-5.4-6.9-10.8-13.8-16.2-20.8l1.5-.5h0ZM1321.6,1151.3c.2.2.5.3.7.4v.5c-.2-.3-.4-.6-.7-.9h0ZM1335.6,1093.4c-.3-.9-.7-1.8-1.4-2.5l-11.2-13.1v-.5c1.1,0,2.1-.4,3.1-1,3.5,4.9,7.1,9.8,10.5,14.8-.3.7-.6,1.5-.9,2.3h0Z"></path></g></svg>