      <svg
        version="1.1"
        id="pix-logo"
        xmlns="http://www.w3.org/2000/svg"
        width="80"
        x="0"
        y="0"
        viewBox="0 0 120 36"
        xml:space="preserve"
      >
        <path
          class="st0 fill-[var(--pix-brand-color)]"
          d="M21.298 10.177c2.431 0 4.266 1.083 5.504 3.249.353.663.353 1.305 0 1.923-.398.575-.951.84-1.658.796-.708-.088-1.194-.464-1.459-1.127-.31-.619-.708-.995-1.194-1.127a4.956 4.956 0 00-1.194-.133c-1.15 0-1.923.31-2.321.928a3.458 3.458 0 01-.199.332 4.574 4.574 0 00-.398 1.525v7.626c0 .663-.265 1.172-.796 1.525-.619.353-1.216.353-1.79 0-.575-.353-.862-.862-.862-1.525v-7.626c.221-3.05 1.569-5.018 4.045-5.902a5.745 5.745 0 012.322-.464zM31.626 4.209c.398.398.597.862.597 1.393v.265c0 .663-.288 1.172-.862 1.525-.619.354-1.216.354-1.791 0-.575-.353-.862-.862-.862-1.525v-.265c0-.221.044-.42.133-.597.22-.707.707-1.105 1.459-1.194.486-.088.928.045 1.326.398zm.066 6.499c.353.354.531.774.531 1.26V24.17c0 .663-.288 1.172-.862 1.525-.619.353-1.216.353-1.791 0s-.862-.862-.862-1.525V11.968c0-.265.066-.508.199-.729.265-.707.773-1.061 1.525-1.061.531-.001.95.176 1.26.53zM34.154 16.477c0-1.58.474-2.958 1.422-4.132 1.129-1.445 2.777-2.168 4.945-2.168 3.251.316 5.261 1.784 6.028 4.403.136.587.226 1.219.271 1.897v7.722c0 .723-.339 1.242-1.016 1.558-.271.136-.52.203-.745.203-.768 0-1.287-.361-1.558-1.084a1.812 1.812 0 01-.135-.677v-7.722c-.09-1.671-1.039-2.596-2.845-2.777-1.536 0-2.461.723-2.777 2.168a3.156 3.156 0 00-.068.61V24.2c0 .723-.361 1.242-1.084 1.558-.181.136-.406.203-.677.203-.768 0-1.31-.361-1.626-1.084a1.812 1.812 0 01-.135-.677v-7.723zM51.464 3.986c.529 0 .97.177 1.322.529.352.353.507.772.463 1.256v4.563h2.182c.705 0 1.234.309 1.587.926.352.529.352 1.102 0 1.719-.353.617-.882.904-1.587.86h-2.182v6.877c0 .661.11 1.103.331 1.323.132.177.352.287.661.331.352.132.793.111 1.322-.066.705-.22 1.322-.066 1.851.463.441.441.573 1.014.397 1.719-.177.661-.595 1.08-1.256 1.256l-1.256.198c-1.94.132-3.395-.397-4.364-1.587-.794-.926-1.19-2.138-1.19-3.637v-6.877h-1.058c-.706.044-1.212-.242-1.521-.86-.353-.617-.353-1.19 0-1.719.309-.617.815-.926 1.521-.926h1.058V5.771c0-.705.308-1.256.926-1.653.264-.088.528-.132.793-.132zM67.938 21.985c.528-.44 1.121-.549 1.781-.33.572.264.901.748.99 1.451.132.66-.088 1.187-.66 1.583-.616.528-1.385.902-2.309 1.121-.66.132-1.76.176-3.298.132-1.1 0-2.177-.374-3.232-1.121-1.935-1.407-2.968-3.54-3.101-6.399a2.009 2.009 0 010-.726c.132-2.99 1.165-5.123 3.101-6.399 1.055-.747 2.265-1.121 3.628-1.121 1.011 0 1.913.22 2.704.66 2.111 1.319 3.166 3.518 3.166 6.597v.66c0 .22-.044.44-.132.66-.264.704-.792 1.055-1.583 1.055h-7.19c.308 1.496 1.187 2.353 2.639 2.573h.594c1.538 0 2.506-.132 2.902-.396zm-3.299-8.246h-.198c-.396 0-.836.132-1.319.396-.704.484-1.144 1.21-1.319 2.177h5.409v-.132c-.176-1.099-.616-1.825-1.319-2.177-.308-.176-.682-.264-1.121-.264h-.133zM78.512 10.177c2.431 0 4.266 1.083 5.504 3.249.353.663.353 1.305 0 1.923-.398.575-.951.84-1.658.796-.708-.088-1.194-.464-1.459-1.127-.31-.619-.708-.995-1.194-1.127a4.956 4.956 0 00-1.194-.133c-1.15 0-1.923.31-2.321.928a3.458 3.458 0 01-.199.332 4.574 4.574 0 00-.398 1.525v7.626c0 .663-.265 1.172-.796 1.525-.619.353-1.216.353-1.791 0s-.862-.862-.862-1.525v-7.626c.221-3.05 1.569-5.018 4.045-5.902a5.75 5.75 0 012.323-.464zM7.203 4.213c1.109 0 2.129.333 3.061.998 2.04 1.375 3.06 3.637 3.06 6.786 0 .577-.022 1.109-.067 1.597-.355 2.395-1.353 4.147-2.994 5.256-.887.577-1.974.932-3.26 1.065-.932 0-1.885-.221-2.861-.665v5.056c0 .665-.266 1.175-.798 1.53-.621.354-1.242.354-1.863 0-.532-.355-.798-.865-.798-1.53V11.399c0-.798.088-1.552.266-2.262.443-2.085 1.419-3.527 2.927-4.325 1.318-.694 3.327-.599 3.327-.599zM4.342 14.858c.31.798 1.198 1.309 2.661 1.53.443 0 .887-.155 1.331-.466.976-.71 1.464-2.018 1.464-3.925 0-2.173-.688-3.57-2.063-4.192l-.732-.132h-.2a2.12 2.12 0 00-1.263.266c-.931.444-1.397 1.597-1.397 3.46v2.129c-.001.532.066.976.199 1.33z"
        ></path>
        <g>
          <path
            class="st1 fill-[var(--pix-brand-color)]"
            d="M93.276 10.327c1.109 0 2.129.333 3.061.998 2.04 1.375 3.06 3.637 3.06 6.786 0 .577-.022 1.109-.067 1.597-.355 2.395-1.353 4.147-2.994 5.256-.887.577-1.974.932-3.26 1.065-.932 0-1.885-.221-2.861-.665v5.056c0 .665-.266 1.175-.798 1.53-.621.354-1.242.354-1.863 0-.532-.355-.798-.865-.798-1.53V17.512c0-.798.088-1.552.266-2.262.443-2.084 1.419-3.526 2.928-4.325 1.317-.693 3.326-.598 3.326-.598zm-2.861 10.645c.31.798 1.198 1.309 2.661 1.53.443 0 .887-.155 1.331-.466.976-.71 1.464-2.018 1.464-3.925 0-2.173-.688-3.57-2.063-4.192l-.732-.133h-.2a2.12 2.12 0 00-1.264.266c-.931.444-1.397 1.597-1.397 3.46v2.129c0 .532.067.976.2 1.331zM103.685 4.209c.398.398.597.862.597 1.393v.265c0 .663-.287 1.172-.862 1.525-.619.354-1.216.354-1.79 0-.575-.353-.862-.862-.862-1.525v-.265c0-.221.044-.42.133-.597.221-.707.707-1.105 1.459-1.194.485-.088.928.045 1.325.398zM103.752 10.708c.353.354.531.774.531 1.26V24.17c0 .663-.287 1.172-.862 1.525-.619.353-1.216.353-1.79 0-.575-.353-.862-.862-.862-1.525V11.968c0-.265.066-.508.199-.729.265-.707.774-1.061 1.525-1.061.529-.001.949.176 1.259.53zM107.596 10.196c.575 0 1.039.221 1.393.663l3.583 4.445 3.583-4.445c.442-.531.995-.752 1.659-.663.663.133 1.128.509 1.393 1.128.221.619.11 1.194-.332 1.725l-4.047 5.042 4.047 4.976c.442.531.553 1.128.332 1.791-.265.619-.73.973-1.393 1.062-.664.133-1.217-.066-1.659-.597l-3.583-4.445-3.583 4.445c-.443.531-.995.73-1.659.597-.663-.088-1.128-.442-1.393-1.062-.221-.663-.111-1.261.332-1.791l4.047-4.976-4.047-5.042c-.487-.575-.575-1.194-.265-1.858.309-.663.84-.995 1.592-.995z"
          ></path>
        </g>
      </svg>