<svg version="1.1" id="Layer_1" xmlns="http://www.w3.org/2000/svg" xmlns:xlink="http://www.w3.org/1999/xlink" x="0px" y="0px" viewBox="0 0 222 40" style="enable-background:new 0 0 222 40;" xml:space="preserve"><style type="text/css">
	.st0{fill:#595B58;}
	.st1{fill:#C9C9C9;}
</style><path class="st0" d="M21.7,0.7l5.9,11.7l13,1.9c0.9,0.1,1.2,1.2,0.6,1.9l-9.4,9.1l2.3,13c0.1,0.9-0.8,1.6-1.6,1.1l-11.6-6.1L9,39.6
	c-0.8,0.5-1.8-0.2-1.6-1.1l2.3-13l-9.4-9.1c-0.7-0.7-0.3-1.8,0.6-1.9l13-1.9l5.9-11.8C20.1-0.1,21.2-0.1,21.7,0.7z"></path><path class="st0" d="M66.6,0.8l5.9,11.7l13,1.9c0.9,0.1,1.2,1.2,0.6,1.9l-9.4,9.1l2.3,13c0.1,0.9-0.8,1.6-1.6,1.1l-11.6-6.1
	l-11.6,6.1c-0.8,0.5-1.8-0.2-1.6-1.1l2.3-13l-9.4-9.1c-0.7-0.7-0.3-1.8,0.6-1.9l13-1.9L65,0.7C65,0,66.2,0,66.6,0.8z"></path><path class="st0" d="M112,0.8l5.9,11.7l13,1.9c0.9,0.1,1.2,1.2,0.6,1.9l-9.4,9.1l2.3,13c0.1,0.9-0.8,1.6-1.6,1.1l-11.6-6.1
	l-11.6,6.1c-0.8,0.5-1.8-0.2-1.6-1.1l2.3-13l-9.4-9.1c-0.7-0.7-0.3-1.8,0.6-1.9l13-1.9l5.9-11.8C110.3,0,111.6,0,112,0.8z"></path><path class="st0" d="M157.3,0.8l5.9,11.7l13,1.9c0.9,0.1,1.2,1.2,0.6,1.9l-9.4,9.1l2.3,13c0.1,0.9-0.8,1.6-1.6,1.1l-11.6-6.1
	l-11.6,6.1c-0.8,0.5-1.8-0.2-1.6-1.1l2.3-13l-9.4-9.1c-0.7-0.7-0.3-1.8,0.6-1.9l13-1.9l5.9-11.8C155.7,0,157,0,157.3,0.8z"></path><g><path class="st1" d="M202.3,0.8l5.9,11.7l13,1.9c0.9,0.1,1.2,1.2,0.6,1.9l-9.4,9.1l2.3,13c0.1,0.9-0.8,1.6-1.6,1.1l-11.6-6.1
		l-11.6,6.1c-0.8,0.5-1.8-0.2-1.6-1.1l2.3-13l-9.4-9.1c-0.7-0.7-0.3-1.8,0.6-1.9l13-1.9l5.9-11.8C200.7,0,201.9,0,202.3,0.8z"></path><path class="st0" d="M201.4,0.2c-0.5,0-0.8,0.2-1,0.6l-5.9,11.7l-13,1.9c-0.9,0.1-1.2,1.2-0.6,1.9l9.4,9.1l-2.3,13
		c-0.1,0.9,0.8,1.6,1.6,1.1l11.6-6.1l0,0V0.2H201.4z"></path></g></svg>